<?xml version="1.0" encoding="UTF-8"?>
<svg id="Layer_1" xmlns="http://www.w3.org/2000/svg" width="612" height="792" version="1.1" viewBox="0 0 612 792">
  <!-- Generator: Adobe Illustrator 29.8.2, SVG Export Plug-In . SVG Version: 2.1.1 Build 3)  -->
  <polygon points="438 368 178 368 178 455 130 367 130 327 300 327 438 368" fill="#231f20" stroke="#fff" stroke-miterlimit="10"/>
  <g>
    <path d="M159.8,574.1h11c.4,8.2,5.9,12.8,14.8,12.8s12.6-3.4,12.6-8.9-7.3-8-16.5-10.3c-9.9-2.7-20.4-6.1-20.4-17.7s10.4-16.3,22.7-16.3,22.9,6.2,23.5,18.7h-11c-.5-7.3-5.4-10.2-12.6-10.2s-11.2,2-11.2,7.4,6.3,7.3,14.5,9.4c14,3.5,22.3,7.7,22.3,18.6s-11.5,17.9-23.7,17.9-25.7-8.2-26-21.5h0Z"/>
    <path d="M212.8,564.5c0-18.7,11.4-30.7,30.1-30.7s30.1,12,30.1,30.7-11.3,31.1-30.1,31.1-30.1-12.5-30.1-31.1ZM261.7,564.5c0-12.7-6.8-22.1-18.7-22.1s-18.7,9.4-18.7,22.1,7,22.5,18.7,22.5,18.7-9.6,18.7-22.5Z"/>
    <path d="M278.4,535h11.2v51.1h29.1v8.6h-40.3v-59.6h0Z"/>
    <path d="M324.2,535h11.2v59.6h-11.2v-59.6Z"/>
    <path d="M343.9,535h22.6c17.8,0,28.1,12.4,28.1,29.7s-10.1,29.9-28.5,29.9h-22.2v-59.6ZM384.1,564.5c0-12.9-6.3-21.1-18.8-21.1h-10.8v42.6h10.8c11.9,0,18.8-7.9,18.8-21.5Z"/>
  </g>
  <g>
    <path d="M156.7,654.4h12.3c.5,7.1,6.6,11.1,16.5,11.1s14-2.9,14-7.7-8.1-6.9-18.4-8.9c-11-2.3-22.7-5.3-22.7-15.3s11.6-14.1,25.3-14.1,25.5,5.4,26.2,16.2h-12.3c-.6-6.3-6-8.8-14.1-8.8s-12.5,1.7-12.5,6.4,7,6.3,16.2,8.1c15.6,3,24.9,6.7,24.9,16.1s-12.8,15.5-26.4,15.5-28.6-7.1-29-18.6Z"/>
    <path d="M219.4,646.1c0-16.2,12.7-26.6,33.6-26.6s33.5,10.4,33.5,26.6-12.6,26.9-33.5,26.9-33.6-10.8-33.6-26.9Z"/>
    <path d="M297.6,620.4h12.5v44.2h34.2v7.4h-46.7v-51.6h0Z"/>
    <path d="M353.8,620.4h12.5v51.6h-12.5v-51.6Z"/>
    <path d="M380.2,620.4h27c21.2,0,33.5,10.7,33.5,25.7s-12,25.9-34,25.9h-26.5v-51.6h0Z"/>
  </g>
  <g>
    <path d="M159.3,753h12.3c.5,7.1,6.6,11.1,16.5,11.1s14-2.9,14-7.7-8.1-6.9-18.4-8.9c-11-2.3-22.7-5.3-22.7-15.3s11.6-14.1,25.3-14.1,25.5,5.4,26.2,16.2h-12.3c-.6-6.3-6-8.8-14.1-8.8s-12.5,1.7-12.5,6.4,7,6.3,16.2,8.1c15.6,3,24.9,6.7,24.9,16.1s-12.8,15.5-26.4,15.5-28.6-7.1-29-18.6Z"/>
    <path d="M222,744.7c0-16.2,12.7-26.6,33.6-26.6s33.5,10.4,33.5,26.6-12.6,26.9-33.5,26.9-33.6-10.8-33.6-26.9Z"/>
    <path d="M300.2,719h12.5v44.2h34.2v7.4h-46.7v-51.6h0Z"/>
    <path d="M356.4,736h12.5v34.6h-12.5v-34.6Z"/>
    <path d="M382.8,719h27c21.2,0,33.5,10.7,33.5,25.7s-12,25.9-34,25.9h-26.5v-51.6h0Z"/>
  </g>
  <g>
    <path d="M224.8,434.5h0c3.6,0,6.4-.5,8.2-1.6s2.8-2.6,2.8-4.6-.8-3.5-2.5-4.7c-1.7-1.1-4.9-2.4-9.7-3.7-10.4-2.5-17.7-5.1-22.1-7.8-4.3-2.7-6.5-6.5-6.5-11.5s2.8-8.9,8.3-11.9,12.6-4.6,21.2-4.6,15.7,1.7,21,5c5.4,3.4,8,7.7,7.8,13v.3h-17.4c0-2.4-1-4.4-3.1-5.8s-4.9-2.2-8.5-2.2-6.4.6-8.5,1.8c-2.1,1.2-3.1,2.7-3.1,4.4s1,3.1,2.9,4.2c2,1.1,5.9,2.4,11.7,4,9.1,2.1,15.8,4.6,20,7.5s6.3,7,6.3,12-2.6,9.1-7.8,12-12.2,4.4-21,4.4-11.3-.7-16.1-2.2-8.7-3.7-11.6-6.7c-2.9-3-4.3-6.6-4.2-10.7v-.2h17.4c0,3.3,1.2,5.7,3.5,7.2s6,2.2,10.9,2.2v.2h.1Z"/>
    <path d="M326.5,409.2v10.6c0,7.3-3,13.3-9,18s-13.8,7-23.5,7-17.5-2.3-23.6-7c-6-4.7-9.1-10.7-9.1-18v-10.6c0-4.8,1.4-9.1,4.1-12.9,2.7-3.8,6.6-6.8,11.5-8.9,5-2.1,10.6-3.2,17-3.2,9.6,0,17.5,2.3,23.5,7s9,10.7,9,18c0,0,.1,0,.1,0ZM308.8,419.8v-10.7c0-4.3-1.3-7.8-3.9-10.5-2.6-2.6-6.3-4-10.9-4s-8.3,1.3-10.9,3.9c-2.6,2.6-3.9,6.1-3.9,10.5v10.7c0,4.4,1.3,7.9,4,10.5,2.6,2.6,6.3,4,10.9,4s8.3-1.3,10.9-4c2.6-2.6,3.9-6.2,3.9-10.5h-.1Z"/>
    <path d="M354.6,384.1v59.9h-17.8v-59.9s17.8,0,17.8,0Z"/>
    <path d="M384.1,384.1v15.7h-17.8v-15.7h17.8ZM384.1,405.4v38.5h-17.8v-38.5h17.8Z"/>
    <path d="M423.7,444h-27.7v-59.1h27.7c9.1,0,16.7,2.3,22.7,6.8,6,4.5,9,10.3,9,17.4v10.6c0,7.1-3,12.9-9,17.4s-13.6,6.8-22.7,6.8h0ZM422.4,395.5h-8.6v38h8.6c4.7,0,8.4-1.2,11.1-3.7s4-5.8,4-9.9v-10.7c0-4.1-1.3-7.4-4-9.9-2.7-2.4-6.4-3.7-11.1-3.7h0Z"/>
  </g>
  <path d="M368.9,730.6"/>
  <path d="M356.4,730.6"/>
  <polyline points="348.7 712.5 355.7 727.7 355.7 717.3 366.9 717.3 346.2 708"/>
  <rect x="178" y="368" width="292.1" height="87" display="none" fill="none" stroke="#000" stroke-miterlimit="10"/>
</svg>