<?xml version="1.0" encoding="UTF-8"?>
<svg id="Layer_1" xmlns="http://www.w3.org/2000/svg" width="612" height="792" version="1.1" viewBox="0 0 612 792">
  <!-- Generator: Adobe Illustrator 29.8.1, SVG Export Plug-In . SVG Version: 2.1.1 Build 2)  -->
  <polygon points="438 368 178 368 178 455 130 367 130 327 300 327 438 368" fill="#231f20" stroke="#fff" stroke-miterlimit="10"/>
  <g>
    <path d="M194.1,422.6h11c.4,8.2,5.9,12.8,14.8,12.8s12.6-3.4,12.6-8.9-7.3-8-16.5-10.3c-9.9-2.7-20.4-6.1-20.4-17.7s10.4-16.3,22.7-16.3,22.9,6.2,23.5,18.7h-11c-.5-7.3-5.4-10.2-12.6-10.2s-11.2,2-11.2,7.4,6.3,7.3,14.5,9.4c14,3.5,22.3,7.7,22.3,18.6s-11.5,17.9-23.7,17.9-25.7-8.2-26-21.5h0Z"/>
    <path d="M247.1,413c0-18.7,11.4-30.7,30.1-30.7s30.1,12,30.1,30.7-11.3,31.1-30.1,31.1-30.1-12.5-30.1-31.1ZM296,413c0-12.7-6.8-22.1-18.7-22.1s-18.7,9.4-18.7,22.1,7,22.5,18.7,22.5,18.7-9.6,18.7-22.5Z"/>
    <path d="M312.7,383.5h11.2v51.1h29.1v8.6h-40.3v-59.6Z"/>
    <path d="M358.5,383.5h11.2v59.6h-11.2v-59.6Z"/>
    <path d="M378.2,383.5h22.6c17.8,0,28.1,12.4,28.1,29.7s-10.1,29.9-28.5,29.9h-22.2v-59.6ZM418.4,413c0-12.9-6.3-21.1-18.8-21.1h-10.8v42.6h10.8c11.9,0,18.8-7.9,18.8-21.5Z"/>
  </g>
  <g>
    <path d="M156.7,654.4h12.3c.5,7.1,6.6,11.1,16.5,11.1s14-2.9,14-7.7-8.1-6.9-18.4-8.9c-11-2.3-22.7-5.3-22.7-15.3s11.6-14.1,25.3-14.1,25.5,5.4,26.2,16.2h-12.3c-.6-6.3-6-8.8-14.1-8.8s-12.5,1.7-12.5,6.4,7,6.3,16.2,8.1c15.6,3,24.9,6.7,24.9,16.1s-12.8,15.5-26.4,15.5-28.6-7.1-29-18.6Z"/>
    <path d="M219.4,646.1c0-16.2,12.7-26.6,33.6-26.6s33.5,10.4,33.5,26.6-12.6,26.9-33.5,26.9-33.6-10.8-33.6-26.9Z"/>
    <path d="M297.6,620.4h12.5v44.2h34.2v7.4h-46.7v-51.6h0Z"/>
    <path d="M353.8,620.4h12.5v51.6h-12.5v-51.6Z"/>
    <path d="M380.2,620.4h27c21.2,0,33.5,10.7,33.5,25.7s-12,25.9-34,25.9h-26.5v-51.6h0Z"/>
  </g>
  <g>
    <path d="M159.3,753h12.3c.5,7.1,6.6,11.1,16.5,11.1s14-2.9,14-7.7-8.1-6.9-18.4-8.9c-11-2.3-22.7-5.3-22.7-15.3s11.6-14.1,25.3-14.1,25.5,5.4,26.2,16.2h-12.3c-.6-6.3-6-8.8-14.1-8.8s-12.5,1.7-12.5,6.4,7,6.3,16.2,8.1c15.6,3,24.9,6.7,24.9,16.1s-12.8,15.5-26.4,15.5-28.6-7.1-29-18.6Z"/>
    <path d="M222,744.7c0-16.2,12.7-26.6,33.6-26.6s33.5,10.4,33.5,26.6-12.6,26.9-33.5,26.9-33.6-10.8-33.6-26.9Z"/>
    <path d="M300.2,719h12.5v44.2h34.2v7.4h-46.7v-51.6h0Z"/>
    <path d="M356.4,736h12.5v34.6h-12.5v-34.6Z"/>
    <path d="M382.8,719h27c21.2,0,33.5,10.7,33.5,25.7s-12,25.9-34,25.9h-26.5v-51.6h0Z"/>
  </g>
  <g>
    <path d="M224.7,544.4h12.3c.5,7.1,6.6,11.1,16.5,11.1s14-2.9,14-7.7-8.1-6.9-18.4-8.9c-11-2.3-22.7-5.3-22.7-15.3s11.6-14.1,25.3-14.1,25.5,5.4,26.2,16.2h-12.3c-.6-6.3-6-8.8-14.1-8.8s-12.5,1.7-12.5,6.4,7,6.3,16.2,8.1c15.6,3,24.9,6.7,24.9,16.1s-12.8,15.5-26.4,15.5-28.6-7.1-29-18.6h0Z"/>
    <path d="M321,563c-20.9,0-33.6-10.8-33.6-26.9s12.7-26.6,33.6-26.6"/>
    <path d="M353.8,531.4h12.5v30.6h-12.5v-30.6Z"/>
  </g>
  <g>
    <path d="M194.3,105.4h0c3.6,0,6.4-.5,8.2-1.6s2.8-2.6,2.8-4.6-.8-3.5-2.5-4.7c-1.7-1.1-4.9-2.4-9.7-3.7-10.4-2.5-17.7-5.1-22.1-7.8-4.3-2.7-6.5-6.5-6.5-11.5s2.8-8.9,8.3-11.9,12.6-4.6,21.2-4.6,15.7,1.7,21,5c5.4,3.4,8,7.7,7.8,13v.3h-17.4c0-2.4-1-4.4-3.1-5.8s-4.9-2.2-8.5-2.2-6.4.6-8.5,1.8c-2.1,1.2-3.1,2.7-3.1,4.4s1,3.1,2.9,4.2c2,1.1,5.9,2.4,11.7,4,9.1,2.1,15.8,4.6,20,7.5s6.3,7,6.3,12-2.6,9.1-7.8,12-12.2,4.4-21,4.4-11.3-.7-16.1-2.2-8.7-3.7-11.6-6.7c-2.9-3-4.3-6.6-4.2-10.7v-.2h17.4c0,3.3,1.2,5.7,3.5,7.2s6,2.2,10.9,2.2v.2Z"/>
    <path d="M296,80.1v10.6c0,7.3-3,13.3-9,18s-13.8,7-23.5,7-17.5-2.3-23.6-7c-6-4.7-9.1-10.7-9.1-18v-10.6c0-4.8,1.4-9.1,4.1-12.9,2.7-3.8,6.6-6.8,11.5-8.9,5-2.1,10.6-3.2,17-3.2,9.6,0,17.5,2.3,23.5,7s9,10.7,9,18h.1ZM278.3,90.7v-10.7c0-4.3-1.3-7.8-3.9-10.5-2.6-2.6-6.3-4-10.9-4s-8.3,1.3-10.9,3.9c-2.6,2.6-3.9,6.1-3.9,10.5v10.7c0,4.4,1.3,7.9,4,10.5,2.6,2.6,6.3,4,10.9,4s8.3-1.3,10.9-4c2.6-2.6,3.9-6.2,3.9-10.5h-.1Z"/>
    <path d="M324.1,51.6v63.3h-17.8v-63.3s17.8,0,17.8,0Z"/>
    <path d="M353.6,51.6v9.2h-17.8v-9.2h17.8ZM353.6,71v43.9h-17.8v-43.9h17.8Z"/>
    <path d="M393.2,114.9h-27.7v-59.1h27.7c9.1,0,16.7,2.3,22.7,6.8,6,4.5,9,10.3,9,17.4v10.6c0,7.1-3,12.9-9,17.4s-13.6,6.8-22.7,6.8h0ZM391.9,66.4h-8.6v38h8.6c4.7,0,8.4-1.2,11.1-3.7s4-5.8,4-9.9v-10.7c0-4.1-1.3-7.4-4-9.9-2.7-2.4-6.4-3.7-11.1-3.7h0Z"/>
  </g>
  <path d="M331.8,510.4h12.5v51.6h-12.5v-51.6Z"/>
  <polyline points="353.8 522 353.8 510.4 366.3 510.4 366.3 522"/>
  <path d="M376.4,509.5c20.9,0,33.6,10.8,33.6,26.9s-12.7,26.6-33.6,26.6"/>
  <path d="M368.9,730.6"/>
  <path d="M356.4,730.6"/>
  <polyline points="348.7 712.5 355.7 727.7 355.7 717.3 366.9 717.3 346.2 708"/>
  <rect x="178" y="368" width="292.1" height="87" display="none" fill="none" stroke="#000" stroke-miterlimit="10"/>
  <g>
    <path d="M309.6,367.3h1.1v3.6h0c.2-.3.4-.6.8-.7.3-.2.7-.3,1.1-.3.8,0,2,.5,2,2.5v3.5h-1.1v-3.3c0-.9-.3-1.7-1.3-1.7s-1.2.5-1.4,1.1c0,.1,0,.3,0,.5v3.5h-1.1v-8.5Z"/>
    <path d="M317.5,368.4v1.7h1.5v.8h-1.5v3.1c0,.7.2,1.1.8,1.1s.5,0,.6,0v.8c-.2,0-.5.1-.9.1s-.9-.2-1.1-.4c-.3-.3-.4-.8-.4-1.5v-3.2h-.9v-.8h.9v-1.4l1-.3Z"/>
    <path d="M321.4,368.4v1.7h1.5v.8h-1.5v3.1c0,.7.2,1.1.8,1.1s.5,0,.6,0v.8c-.2,0-.5.1-.9.1s-.9-.2-1.1-.4c-.3-.3-.4-.8-.4-1.5v-3.2h-.9v-.8h.9v-1.4l1-.3Z"/>
    <path d="M324.1,371.9c0-.7,0-1.3,0-1.9h.9v1h0c.4-.7,1.1-1.1,2.1-1.1,1.4,0,2.5,1.2,2.5,3s-1.3,3.1-2.6,3.1-1.4-.3-1.8-.9h0v3.2h-1v-6.3ZM325.2,373.5c0,.2,0,.3,0,.4.2.7.8,1.2,1.6,1.2,1.1,0,1.8-.9,1.8-2.2s-.6-2.2-1.7-2.2-1.4.5-1.6,1.3c0,.1,0,.3,0,.4v1Z"/>
    <path d="M330.8,374.8c.3.2.9.4,1.4.4.8,0,1.1-.4,1.1-.9s-.3-.8-1.1-1.1c-1-.4-1.5-.9-1.5-1.6s.8-1.7,2-1.7,1.1.2,1.4.4l-.3.8c-.2-.1-.6-.3-1.2-.3s-1,.4-1,.8.3.7,1.1,1c1,.4,1.5.9,1.5,1.8s-.8,1.7-2.2,1.7-1.2-.2-1.6-.4l.3-.8Z"/>
    <path d="M335.5,371c0-.4.3-.8.7-.8s.7.3.7.8c0,.4-.3.7-.7.7s-.7-.3-.7-.7ZM335.5,375.2c0-.4.3-.8.7-.8s.7.3.7.8c0,.4-.3.7-.7.7s-.7-.3-.7-.7Z"/>
    <path d="M337.3,376.3l3.3-8.7h.8l-3.4,8.7h-.8Z"/>
    <path d="M341.4,376.3l3.3-8.7h.8l-3.4,8.7h-.8Z"/>
    <path d="M346.9,370l.8,3c.2.6.3,1.2.4,1.8h0c.1-.6.3-1.2.5-1.8l.9-3h.9l.9,2.9c.2.7.4,1.3.5,1.9h0c0-.6.3-1.2.4-1.9l.8-2.9h1l-1.9,5.8h-1l-.9-2.8c-.2-.6-.4-1.2-.5-1.9h0c-.1.7-.3,1.3-.5,1.9l-.9,2.8h-1l-1.8-5.8h1.1Z"/>
    <path d="M355.8,370l.8,3c.2.6.3,1.2.4,1.8h0c.1-.6.3-1.2.5-1.8l.9-3h.9l.9,2.9c.2.7.4,1.3.5,1.9h0c0-.6.3-1.2.4-1.9l.8-2.9h1l-1.9,5.8h-1l-.9-2.8c-.2-.6-.4-1.2-.5-1.9h0c-.1.7-.3,1.3-.5,1.9l-.9,2.8h-1l-1.8-5.8h1.1Z"/>
    <path d="M364.8,370l.8,3c.2.6.3,1.2.4,1.8h0c.1-.6.3-1.2.5-1.8l.9-3h.9l.9,2.9c.2.7.4,1.3.5,1.9h0c0-.6.3-1.2.4-1.9l.8-2.9h1l-1.9,5.8h-1l-.9-2.8c-.2-.6-.4-1.2-.5-1.9h0c-.1.7-.3,1.3-.5,1.9l-.9,2.8h-1l-1.8-5.8h1.1Z"/>
    <path d="M372.5,375.2c0-.4.3-.8.7-.8s.7.3.7.8-.3.8-.7.8-.7-.3-.7-.8Z"/>
    <path d="M375.6,370l1.3,3.4c.1.4.3.8.4,1.2h0c.1-.3.2-.8.4-1.2l1.2-3.4h1.1l-1.6,4.1c-.8,2-1.3,3-2,3.6-.5.5-1,.6-1.3.7l-.3-.9c.3,0,.6-.3.9-.5.3-.2.6-.6.9-1.2,0-.1,0-.2,0-.3s0-.1,0-.3l-2.1-5.3h1.2Z"/>
    <path d="M386,372.9c0,2.1-1.5,3.1-2.9,3.1s-2.8-1.2-2.8-3,1.3-3.1,2.9-3.1,2.8,1.2,2.8,3ZM381.4,372.9c0,1.3.7,2.2,1.8,2.2s1.8-.9,1.8-2.3-.5-2.2-1.7-2.2-1.8,1.2-1.8,2.3Z"/>
    <path d="M392.2,374.2c0,.6,0,1.1,0,1.6h-.9v-.9h0c-.3.5-.9,1.1-1.9,1.1s-2-.5-2-2.5v-3.4h1.1v3.2c0,1.1.3,1.8,1.3,1.8s1.2-.5,1.4-1c0-.2,0-.3,0-.5v-3.6h1.1v4.2Z"/>
    <path d="M395.2,368.4v1.7h1.5v.8h-1.5v3.1c0,.7.2,1.1.8,1.1s.5,0,.6,0v.8c-.2,0-.5.1-.9.1s-.9-.2-1.1-.4c-.3-.3-.4-.8-.4-1.5v-3.2h-.9v-.8h.9v-1.4l1-.3Z"/>
    <path d="M402.8,374.2c0,.6,0,1.1,0,1.6h-.9v-.9h0c-.3.5-.9,1.1-1.9,1.1s-2-.5-2-2.5v-3.4h1.1v3.2c0,1.1.3,1.8,1.3,1.8s1.2-.5,1.4-1c0-.2,0-.3,0-.5v-3.6h1.1v4.2Z"/>
    <path d="M404.5,375.8c0-.4,0-1,0-1.5v-7h1v3.6h0c.4-.6,1-1.1,2-1.1,1.4,0,2.5,1.2,2.4,3,0,2.1-1.3,3.1-2.6,3.1s-1.5-.3-1.9-1.1h0v1h-1ZM405.6,373.5c0,.1,0,.3,0,.4.2.7.8,1.2,1.6,1.2,1.1,0,1.8-.9,1.8-2.2s-.6-2.2-1.7-2.2-1.4.5-1.6,1.3c0,.1,0,.3,0,.4v1Z"/>
    <path d="M412,373.1c0,1.4.9,2,2,2s1.2-.1,1.6-.3l.2.8c-.4.2-1,.4-1.9.4-1.8,0-2.9-1.2-2.9-2.9s1-3.1,2.7-3.1,2.4,1.7,2.4,2.7,0,.4,0,.5h-4.1ZM415.1,372.4c0-.7-.3-1.7-1.5-1.7s-1.5,1-1.6,1.7h3.1Z"/>
    <path d="M417,375.2c0-.4.3-.8.7-.8s.7.3.7.8-.3.8-.7.8-.7-.3-.7-.8Z"/>
    <path d="M423.9,375.6c-.3.1-.9.3-1.7.3-1.8,0-2.9-1.2-2.9-3s1.2-3.1,3.1-3.1,1.2.2,1.5.3l-.2.8c-.3-.1-.6-.3-1.2-.3-1.3,0-2.1,1-2.1,2.2s.9,2.2,2,2.2,1-.2,1.3-.3l.2.8Z"/>
    <path d="M430.3,372.9c0,2.1-1.5,3.1-2.9,3.1s-2.8-1.2-2.8-3,1.3-3.1,2.9-3.1,2.8,1.2,2.8,3ZM425.7,372.9c0,1.3.7,2.2,1.8,2.2s1.8-.9,1.8-2.3-.5-2.2-1.7-2.2-1.8,1.2-1.8,2.3Z"/>
    <path d="M431.6,371.6c0-.6,0-1.1,0-1.6h.9v.9h0c.3-.6.9-1.1,1.8-1.1s1.4.5,1.6,1.2h0c.2-.3.4-.6.6-.8.3-.3.7-.4,1.3-.4s1.9.5,1.9,2.5v3.4h-1v-3.3c0-1.1-.4-1.8-1.3-1.8s-1.1.4-1.2,1c0,.1,0,.3,0,.5v3.6h-1v-3.5c0-.9-.4-1.6-1.2-1.6s-1.1.5-1.3,1.1c0,.2,0,.3,0,.5v3.5h-1v-4.2Z"/>
    <path d="M440.7,376.3l3.3-8.7h.8l-3.4,8.7h-.8Z"/>
    <path d="M446.2,370l.8,3c.2.6.3,1.2.4,1.8h0c.1-.6.3-1.2.5-1.8l.9-3h.9l.9,2.9c.2.7.4,1.3.5,1.9h0c0-.6.3-1.2.4-1.9l.8-2.9h1l-1.9,5.8h-1l-.9-2.8c-.2-.6-.4-1.2-.5-1.9h0c-.1.7-.3,1.3-.5,1.9l-.9,2.8h-1l-1.8-5.8h1.1Z"/>
    <path d="M457.7,375.8v-.7h-.1c-.3.5-.9.9-1.8.9-1.2,0-1.8-.8-1.8-1.7,0-1.4,1.2-2.2,3.5-2.2h0c0-.6-.1-1.5-1.3-1.5s-1.1.2-1.5.4l-.2-.7c.5-.3,1.2-.5,1.9-.5,1.8,0,2.2,1.2,2.2,2.4v2.2c0,.5,0,1,0,1.4h-1ZM457.6,372.9c-1.2,0-2.5.2-2.5,1.3s.5,1,1,1,1.2-.5,1.4-1c0-.1,0-.2,0-.3v-1Z"/>
    <path d="M461.5,368.4v1.7h1.5v.8h-1.5v3.1c0,.7.2,1.1.8,1.1s.5,0,.6,0v.8c-.2,0-.5.1-.9.1s-.9-.2-1.1-.4c-.3-.3-.4-.8-.4-1.5v-3.2h-.9v-.8h.9v-1.4l1-.3Z"/>
    <path d="M468.3,375.6c-.3.1-.9.3-1.7.3-1.8,0-2.9-1.2-2.9-3s1.2-3.1,3.1-3.1,1.2.2,1.5.3l-.2.8c-.3-.1-.6-.3-1.2-.3-1.3,0-2.1,1-2.1,2.2s.9,2.2,2,2.2,1-.2,1.3-.3l.2.8Z"/>
    <path d="M469.5,367.3h1.1v3.6h0c.2-.3.4-.6.8-.7.3-.2.7-.3,1.1-.3.8,0,2,.5,2,2.5v3.5h-1.1v-3.3c0-.9-.3-1.7-1.3-1.7s-1.2.5-1.4,1.1c0,.1,0,.3,0,.5v3.5h-1.1v-8.5Z"/>
    <path d="M477,373.5v-.3c0-.6.1-1.4.7-2.1.5-.6.8-1.1.8-1.6s-.4-1-1.1-1c-.4,0-.9.1-1.2.4l-.3-.8c.4-.3,1.1-.5,1.7-.5,1.4,0,2,.9,2,1.8s-.5,1.4-1,2.1c-.5.6-.7,1.2-.7,1.8v.3s-.9,0-.9,0ZM476.8,375.2c0-.4.3-.8.7-.8s.7.3.7.8-.3.7-.7.7-.7-.3-.7-.7Z"/>
    <path d="M481.5,370l1.1,3.3c.2.5.3,1,.5,1.5h0c.1-.5.3-1,.5-1.5l1.1-3.3h1.1l-2.3,5.8h-1l-2.2-5.8h1.1Z"/>
    <path d="M486.5,371.8v-.7h6.2v.7h-6.2ZM486.5,374.1v-.7h6.2v.7h-6.2Z"/>
    <path d="M493.9,374.8c.3.2.9.4,1.4.4.8,0,1.1-.4,1.1-.9s-.3-.8-1.1-1.1c-1-.4-1.5-.9-1.5-1.6s.8-1.7,2-1.7,1.1.2,1.4.4l-.3.8c-.2-.1-.6-.3-1.2-.3s-1,.4-1,.8.3.7,1.1,1c1,.4,1.5.9,1.5,1.8s-.8,1.7-2.2,1.7-1.2-.2-1.6-.4l.3-.8Z"/>
    <path d="M498.8,367.9c.6,0,1.4-.2,2.2-.2,1.5,0,2.6.3,3.3,1,.7.7,1.1,1.6,1.1,2.9s-.4,2.4-1.2,3.1c-.8.8-2,1.2-3.6,1.2s-1.4,0-1.9,0v-8ZM499.8,375c.3,0,.6,0,1.1,0,2.2,0,3.4-1.2,3.4-3.4,0-1.9-1.1-3.1-3.3-3.1s-.9,0-1.2.1v6.4Z"/>
    <path d="M509.7,375.8v-2.1h-3.6v-.7l3.5-5h1.1v4.8h1.1v.8h-1.1v2.1h-1ZM509.7,372.9v-2.6c0-.4,0-.8,0-1.2h0c-.2.5-.4.8-.6,1.2l-1.9,2.7h0s2.6,0,2.6,0Z"/>
    <path d="M512.9,367.3h1.1v3.6h0c.2-.3.4-.6.8-.7.3-.2.7-.3,1.1-.3.8,0,2,.5,2,2.5v3.5h-1.1v-3.3c0-.9-.3-1.7-1.3-1.7s-1.2.5-1.4,1.1c0,.1,0,.3,0,.5v3.5h-1.1v-8.5Z"/>
    <path d="M524.8,372.9c0,2.1-1.5,3.1-2.9,3.1s-2.8-1.2-2.8-3,1.3-3.1,2.9-3.1,2.8,1.2,2.8,3ZM520.2,372.9c0,1.3.7,2.2,1.8,2.2s1.8-.9,1.8-2.3-.5-2.2-1.7-2.2-1.8,1.2-1.8,2.3Z"/>
    <path d="M528,375.8l-2.6-8.1h1.1l1.3,4c.3,1.1.6,2.1.9,3h0c.2-.9.6-2,.9-3l1.4-4h1.1l-2.9,8.1h-1.2Z"/>
    <path d="M533.9,367.7v3.4h3.9v-3.4h1.1v8.1h-1.1v-3.8h-3.9v3.8h-1v-8.1h1Z"/>
    <path d="M544.8,375.6c-.3.1-.9.3-1.7.3-1.8,0-2.9-1.2-2.9-3s1.2-3.1,3.1-3.1,1.2.2,1.5.3l-.2.8c-.3-.1-.6-.3-1.2-.3-1.3,0-2.1,1-2.1,2.2s.9,2.2,2,2.2,1-.2,1.3-.3l.2.8Z"/>
    <path d="M547.1,372.7h0c.1-.2.3-.5.5-.7l1.7-2h1.3l-2.2,2.4,2.6,3.4h-1.3l-2-2.8-.5.6v2.2h-1v-8.5h1v5.4Z"/>
    <path d="M551.3,375.8v-.6l.8-.8c2-1.9,2.9-2.9,2.9-4.1,0-.8-.4-1.5-1.5-1.5s-1.3.4-1.7.7l-.3-.7c.5-.5,1.3-.8,2.2-.8,1.7,0,2.4,1.2,2.4,2.3s-1,2.6-2.7,4.2l-.6.6h0s3.5,0,3.5,0v.9h-5Z"/>
    <path d="M559.7,375.8v-3.4l-2.6-4.7h1.2l1.1,2.2c.3.6.6,1.1.8,1.7h0c.2-.5.5-1.1.8-1.7l1.2-2.2h1.2l-2.7,4.6v3.4h-1.1Z"/>
  </g>
</svg>