<?xml version="1.0" encoding="UTF-8"?>
<svg id="Layer_1" xmlns="http://www.w3.org/2000/svg" width="612" height="792" version="1.1" viewBox="0 0 612 792">
  <!-- Generator: Adobe Illustrator 29.8.1, SVG Export Plug-In . SVG Version: 2.1.1 Build 2)  -->
  <polygon points="475 368 178 368 178 455 80 345 80 287 360 287 475 368" fill="#231f20" stroke="#fff" stroke-miterlimit="10"/>
  <g>
    <path d="M239.5,432.4h0c3.7,0,6.6-.4,8.5-1.3,1.9-.9,2.8-2.1,2.8-3.7s-.9-2.9-2.6-3.8c-1.8-.9-5.1-1.9-10.1-3-10.7-2-18.3-4.1-22.8-6.3-4.5-2.2-6.7-5.3-6.7-9.3s2.8-7.2,8.5-9.7c5.7-2.5,13-3.7,21.9-3.7s16.2,1.4,21.7,4.1c5.6,2.7,8.2,6.2,8,10.5v.2h-18c0-2-1.1-3.5-3.2-4.7-2.2-1.2-5.1-1.8-8.8-1.8s-6.6.5-8.7,1.5c-2.1,1-3.2,2.2-3.2,3.6s1,2.5,3,3.4c2,.9,6,1.9,12.1,3.2,9.4,1.7,16.3,3.7,20.7,6.1s6.5,5.6,6.5,9.7-2.7,7.4-8.1,9.7c-5.4,2.4-12.6,3.6-21.7,3.6s-11.7-.6-16.6-1.8c-5-1.2-8.9-3-11.9-5.4-3-2.4-4.4-5.3-4.3-8.7v-.2h18c0,2.7,1.2,4.7,3.6,5.9,2.4,1.2,6.2,1.8,11.3,1.8Z"/>
    <path d="M344.6,411.9v8.6c0,5.9-3.1,10.8-9.3,14.6-6.2,3.8-14.3,5.7-24.3,5.7s-18.1-1.9-24.4-5.7c-6.2-3.8-9.4-8.7-9.4-14.6v-8.6c0-3.9,1.4-7.4,4.2-10.5,2.8-3.1,6.8-5.5,11.9-7.2,5.1-1.7,11-2.6,17.6-2.6,10,0,18,1.9,24.3,5.7,6.2,3.8,9.3,8.7,9.3,14.6ZM326.3,420.5v-8.7c0-3.5-1.3-6.3-4-8.5-2.7-2.1-6.5-3.2-11.3-3.2s-8.6,1.1-11.3,3.2c-2.7,2.1-4,5-4,8.5v8.7c0,3.6,1.4,6.4,4.1,8.5,2.7,2.1,6.5,3.2,11.3,3.2s8.6-1.1,11.2-3.2c2.7-2.1,4-5,4-8.5Z"/>
    <path d="M373.7,392.2v39.3h34.1v8.5h-52.5v-47.8h18.4Z"/>
    <path d="M435.2,392.2v47.8h-18.4v-47.8h18.4Z"/>
    <path d="M477.4,440h-28.6v-47.8h28.6c9.4,0,17.3,1.8,23.5,5.5,6.2,3.7,9.3,8.4,9.3,14.1v8.6c0,5.7-3.1,10.4-9.3,14.1-6.2,3.7-14.1,5.5-23.5,5.5ZM476.1,400.7h-8.9v30.7h8.9c4.9,0,8.7-1,11.5-3,2.8-2,4.2-4.7,4.2-8v-8.7c0-3.4-1.4-6-4.2-8-2.8-2-6.6-3-11.5-3Z"/>
  </g>
  <g>
    <path d="M194.3,105.4h0c3.6,0,6.4-.5,8.2-1.6,1.8-1.1,2.8-2.6,2.8-4.6s-.8-3.5-2.5-4.7c-1.7-1.1-4.9-2.4-9.7-3.7-10.4-2.5-17.7-5.1-22.1-7.8-4.3-2.7-6.5-6.5-6.5-11.5s2.8-8.9,8.3-11.9,12.6-4.6,21.2-4.6,15.7,1.7,21,5c5.4,3.4,8,7.7,7.8,13v.3h-17.4c0-2.4-1-4.4-3.1-5.8-2.1-1.4-4.9-2.2-8.5-2.2s-6.4.6-8.5,1.8c-2.1,1.2-3.1,2.7-3.1,4.4s1,3.1,2.9,4.2c2,1.1,5.9,2.4,11.7,4,9.1,2.1,15.8,4.6,20,7.5,4.2,2.9,6.3,7,6.3,12s-2.6,9.1-7.8,12c-5.2,2.9-12.2,4.4-21,4.4s-11.3-.7-16.1-2.2c-4.8-1.5-8.7-3.7-11.6-6.7-2.9-3-4.3-6.6-4.2-10.7v-.2h17.4c0,3.3,1.2,5.7,3.5,7.2,2.3,1.5,6,2.2,10.9,2.2Z"/>
    <path d="M296,80.1v10.6c0,7.3-3,13.3-9,18-6,4.7-13.8,7-23.5,7s-17.5-2.3-23.6-7c-6-4.7-9.1-10.7-9.1-18v-10.6c0-4.8,1.4-9.1,4.1-12.9,2.7-3.8,6.6-6.8,11.5-8.9,5-2.1,10.6-3.2,17-3.2,9.6,0,17.5,2.3,23.5,7s9,10.7,9,18ZM278.3,90.7v-10.7c0-4.3-1.3-7.8-3.9-10.5-2.6-2.6-6.3-4-10.9-4s-8.3,1.3-10.9,3.9c-2.6,2.6-3.9,6.1-3.9,10.5v10.7c0,4.4,1.3,7.9,4,10.5,2.6,2.6,6.3,4,10.9,4s8.3-1.3,10.9-4c2.6-2.6,3.9-6.2,3.9-10.5Z"/>
    <path d="M324.1,51.6v63.3h-17.8v-63.3h17.8Z"/>
    <path d="M353.6,51.6v9.2h-17.8v-9.2h17.8ZM353.6,71v43.9h-17.8v-43.9h17.8Z"/>
    <path d="M393.2,114.9h-27.7v-59.1h27.7c9.1,0,16.7,2.3,22.7,6.8s9,10.3,9,17.4v10.6c0,7.1-3,12.9-9,17.4-6,4.5-13.6,6.8-22.7,6.8ZM391.9,66.4h-8.6v38h8.6c4.7,0,8.4-1.2,11.1-3.7,2.7-2.5,4-5.8,4-9.9v-10.7c0-4.1-1.3-7.4-4-9.9-2.7-2.4-6.4-3.7-11.1-3.7Z"/>
  </g>
</svg>