<?xml version="1.0" encoding="UTF-8"?>
<svg id="Layer_1" xmlns="http://www.w3.org/2000/svg" width="612" height="792" version="1.1" viewBox="0 0 612 792">
  <!-- Generator: Adobe Illustrator 29.8.1, SVG Export Plug-In . SVG Version: 2.1.1 Build 2)  -->
  <polygon points="475 368 178 368 178 455 80 345 80 287 360 287 475 368" fill="#231f20" stroke="#fff" stroke-miterlimit="10"/>
  <g>
    <path d="M193.6,425.2h12.3c.5,7.1,6.6,11.1,16.5,11.1s14-2.9,14-7.7-8.1-6.9-18.4-8.9c-11-2.3-22.7-5.3-22.7-15.3s11.6-14.1,25.3-14.1,25.5,5.4,26.2,16.2h-12.3c-.6-6.3-6-8.8-14.1-8.8s-12.5,1.7-12.5,6.4,7,6.3,16.2,8.1c15.6,3,24.9,6.7,24.9,16.1s-12.8,15.5-26.4,15.5-28.6-7.1-29-18.6Z"/>
    <path d="M256.2,416.9c0-16.2,12.7-26.6,33.6-26.6s33.5,10.4,33.5,26.6-12.6,26.9-33.5,26.9-33.6-10.8-33.6-26.9ZM310.7,416.9c0-11-7.6-19.1-20.8-19.1s-20.9,8.1-20.9,19.1,7.8,19.5,20.9,19.5,20.8-8.3,20.8-19.5Z"/>
    <path d="M334.4,391.3h12.5v44.2h34.2v7.4h-46.7v-51.6Z"/>
    <path d="M390.6,391.3h12.5v51.6h-12.5v-51.6Z"/>
    <path d="M417,391.3h27c21.2,0,33.5,10.7,33.5,25.7s-12,25.9-34,25.9h-26.5v-51.6ZM464.9,416.9c0-11.2-7.5-18.3-22.4-18.3h-12.9v36.9h12.9c14.2,0,22.4-6.8,22.4-18.6Z"/>
  </g>
  <g>
    <path d="M156.7,654.4h12.3c.5,7.1,6.6,11.1,16.5,11.1s14-2.9,14-7.7-8.1-6.9-18.4-8.9c-11-2.3-22.7-5.3-22.7-15.3s11.6-14.1,25.3-14.1,25.5,5.4,26.2,16.2h-12.3c-.6-6.3-6-8.8-14.1-8.8s-12.5,1.7-12.5,6.4,7,6.3,16.2,8.1c15.6,3,24.9,6.7,24.9,16.1s-12.8,15.5-26.4,15.5-28.6-7.1-29-18.6Z"/>
    <path d="M219.4,646.1c0-16.2,12.7-26.6,33.6-26.6s33.5,10.4,33.5,26.6-12.6,26.9-33.5,26.9-33.6-10.8-33.6-26.9Z"/>
    <path d="M297.6,620.4h12.5v44.2h34.2v7.4h-46.7v-51.6Z"/>
    <path d="M353.8,620.4h12.5v51.6h-12.5v-51.6Z"/>
    <path d="M380.2,620.4h27c21.2,0,33.5,10.7,33.5,25.7s-12,25.9-34,25.9h-26.5v-51.6Z"/>
  </g>
  <g>
    <path d="M224.7,544.4h12.3c.5,7.1,6.6,11.1,16.5,11.1s14-2.9,14-7.7-8.1-6.9-18.4-8.9c-11-2.3-22.7-5.3-22.7-15.3s11.6-14.1,25.3-14.1,25.5,5.4,26.2,16.2h-12.3c-.6-6.3-6-8.8-14.1-8.8s-12.5,1.7-12.5,6.4,7,6.3,16.2,8.1c15.6,3,24.9,6.7,24.9,16.1s-12.8,15.5-26.4,15.5-28.6-7.1-29-18.6Z"/>
    <path d="M321,563c-20.9,0-33.6-10.8-33.6-26.9s12.7-26.6,33.6-26.6"/>
    <path d="M353.8,531.4h12.5v30.6h-12.5v-30.6Z"/>
  </g>
  <g>
    <path d="M194.3,105.4h0c3.6,0,6.4-.5,8.2-1.6,1.8-1.1,2.8-2.6,2.8-4.6s-.8-3.5-2.5-4.7c-1.7-1.1-4.9-2.4-9.7-3.7-10.4-2.5-17.7-5.1-22.1-7.8-4.3-2.7-6.5-6.5-6.5-11.5s2.8-8.9,8.3-11.9,12.6-4.6,21.2-4.6,15.7,1.7,21,5c5.4,3.4,8,7.7,7.8,13v.3h-17.4c0-2.4-1-4.4-3.1-5.8-2.1-1.4-4.9-2.2-8.5-2.2s-6.4.6-8.5,1.8c-2.1,1.2-3.1,2.7-3.1,4.4s1,3.1,2.9,4.2c2,1.1,5.9,2.4,11.7,4,9.1,2.1,15.8,4.6,20,7.5,4.2,2.9,6.3,7,6.3,12s-2.6,9.1-7.8,12c-5.2,2.9-12.2,4.4-21,4.4s-11.3-.7-16.1-2.2c-4.8-1.5-8.7-3.7-11.6-6.7-2.9-3-4.3-6.6-4.2-10.7v-.2h17.4c0,3.3,1.2,5.7,3.5,7.2,2.3,1.5,6,2.2,10.9,2.2Z"/>
    <path d="M296,80.1v10.6c0,7.3-3,13.3-9,18-6,4.7-13.8,7-23.5,7s-17.5-2.3-23.6-7c-6-4.7-9.1-10.7-9.1-18v-10.6c0-4.8,1.4-9.1,4.1-12.9,2.7-3.8,6.6-6.8,11.5-8.9,5-2.1,10.6-3.2,17-3.2,9.6,0,17.5,2.3,23.5,7s9,10.7,9,18ZM278.3,90.7v-10.7c0-4.3-1.3-7.8-3.9-10.5-2.6-2.6-6.3-4-10.9-4s-8.3,1.3-10.9,3.9c-2.6,2.6-3.9,6.1-3.9,10.5v10.7c0,4.4,1.3,7.9,4,10.5,2.6,2.6,6.3,4,10.9,4s8.3-1.3,10.9-4c2.6-2.6,3.9-6.2,3.9-10.5Z"/>
    <path d="M324.1,51.6v63.3h-17.8v-63.3h17.8Z"/>
    <path d="M353.6,51.6v9.2h-17.8v-9.2h17.8ZM353.6,71v43.9h-17.8v-43.9h17.8Z"/>
    <path d="M393.2,114.9h-27.7v-59.1h27.7c9.1,0,16.7,2.3,22.7,6.8s9,10.3,9,17.4v10.6c0,7.1-3,12.9-9,17.4-6,4.5-13.6,6.8-22.7,6.8ZM391.9,66.4h-8.6v38h8.6c4.7,0,8.4-1.2,11.1-3.7,2.7-2.5,4-5.8,4-9.9v-10.7c0-4.1-1.3-7.4-4-9.9-2.7-2.4-6.4-3.7-11.1-3.7Z"/>
  </g>
  <path d="M331.8,510.4h12.5v51.6h-12.5v-51.6Z"/>
  <polyline points="353.8 522 353.8 510.4 366.3 510.4 366.3 522"/>
  <path d="M376.6,510.2h18.5c14.5,0,22.9,10.2,22.9,24.5s-8.2,24.6-23.2,24.6h-18.1v-49ZM409.3,534.6c0-10.7-5.1-17.4-15.3-17.4h-8.8v35.1h8.8c9.7,0,15.3-6.5,15.3-17.6Z"/>
</svg>