<?xml version="1.0" encoding="UTF-8"?>
<svg id="Layer_1" xmlns="http://www.w3.org/2000/svg" width="512" height="512" version="1.1" viewBox="0 0 512 512">
  <!-- Default favicon template - clients override via content/favicon.svg or CMS globalSettings.icon -->
  <path id="_49e2099f-3e4b-45ee-a26c-483e62bcae9c_10" d="M255.3,29L59.6,142v226l195.8,113,90.7-52.5-26.4-35.8-64.7,37.2-151.6-87.6v-174.9l151.6-87.6,151.6,87.6v174.9l-21.6,12.5c-21.9-28.5-53.5-69.9-55.3-72,24-5.6,37.2-25.7,37.2-48.7,0-45.5-46.6-55.6-81-55.6h-97l-34.8,44.9h138.4c12.5,0,19.5,4.2,19.5,13.9s-7,14.6-19.5,14.6h-138.7v80.3h52.8v-37.9h69.2l44.5,58.4,21.2,27.8,27.1,35.5,81.7-46.9v-227L254.7,29s.7,0,.7,0Z"/>
</svg>
