<?xml version="1.0" encoding="UTF-8"?>
<svg id="Layer_1" xmlns="http://www.w3.org/2000/svg" width="512" height="512" version="1.1" viewBox="0 0 512 512">
  <!-- Generator: Adobe Illustrator 29.8.1, SVG Export Plug-In . SVG Version: 2.1.1 Build 2)  -->
  <path d="M18.5,241.8l1.1.7c20.5,6.6,34.8,1.8,46.8-16.1l3.7-5.5c2.6-4,5.3-7.9,8-11.7,9.6-13.9,24.9-23,41.7-24.9,6.3-1,12.7-.4,19,1.4-11.7,20-18.4,43.3-18.4,68.1,0,27.1,8,52.3,21.7,73.4-23.4,4.7-52.6-1-67.3-17,.9-.2,1.7-.5,2.6-.7,10-1.8,17-10.8,16.5-20.9-.4-10.2-5.5-15.7-17.2-17.2-4-.7-8.4-.7-12.8-.7h-1.5c-9.9,0-19-2.6-27.1-8-7.9-5-14.1-12.3-17.9-20.9h1.1Z"/>
  <path d="M277.7,311c-7.2,3-15.6,4.4-25.2,4.4s-15.7-1.4-22.5-4.2c-6.8-2.8-12.7-6.8-17.7-12.1-5-5.3-8.9-11.5-11.5-18.8-2.7-7.2-4-15.3-4-24.3s1.3-16.5,4-23.9c2.7-7.3,6.5-13.6,11.5-18.8,5-5.2,10.9-9.2,17.7-11.9,6.8-2.8,14.3-4.2,22.5-4.2s17.5,1.5,24.6,4.6c6.7,2.9,12.4,6.8,17,11.8,4.1-13.3,10.3-25.8,18.1-37-6-4.2-12.5-7.9-19.6-10.8-11.7-4.8-25.1-7.2-40.1-7.2s-27.5,2.5-39.5,7.4c-12,4.9-22.5,11.8-31.5,20.5-9,8.8-16.1,19.1-21.1,31-5,11.9-7.5,24.7-7.5,38.5s2.5,26.6,7.5,38.5c5,11.9,12,22.3,21.1,31.3,9,8.9,19.6,15.9,31.7,20.8,12.1,4.9,25.2,7.4,39.3,7.4s29.3-2.4,41.1-7.1c7.8-3.1,14.9-7.2,21.5-12-8.2-11-14.8-23.2-19.4-36.4-5,5.4-10.9,9.5-17.9,12.4Z"/>
</svg>