<?xml version="1.0" encoding="UTF-8"?>
<svg id="Layer_1" xmlns="http://www.w3.org/2000/svg" width="512" height="512" version="1.1" viewBox="0 0 512 512">
 <defs>
<style>
  .fill {
    fill: #000; /* default light mode */
  }
  
  @media (prefers-color-scheme: dark) {
    .fill {
      fill: #fff;
    }
  }
</style>
  </defs>
  <!-- Generator: Adobe Illustrator 29.8.1, SVG Export Plug-In . SVG Version: 2.1.1 Build 2)  -->
  <path class="fill" d="M17.2,232.9l1.8,1.2c33,10.6,56,2.9,75.5-25.9l5.9-8.8c4.2-6.4,8.5-12.7,13-18.9,15.5-22.5,40.1-37.1,67.2-40.1,10.2-1.5,20.4-.7,30.6,2.2-18.8,32.2-29.6,69.7-29.6,109.7,0,43.6,12.9,84.2,34.9,118.3-37.6,7.5-84.8-1.6-108.4-27.4,1.4-.4,2.8-.8,4.1-1.2,16-2.9,27.4-17.3,26.5-33.6-.6-16.5-8.8-25.4-27.7-27.7-6.5-1.2-13.6-1.2-20.6-1.2h-2.4c-15.9,0-30.7-4.1-43.6-13-12.7-8.1-22.8-19.8-28.9-33.6h1.8Z"/>
  <path class="fill" d="M434.9,344.4c-11.5,4.8-25.1,7.1-40.7,7.1s-25.4-2.2-36.3-6.7c-11-4.5-20.5-11-28.5-19.5-8.1-8.5-14.3-18.6-18.6-30.3-4.3-11.7-6.5-24.7-6.5-39.1s2.2-26.7,6.5-38.5c4.3-11.8,10.5-21.9,18.6-30.3,8.1-8.4,17.6-14.8,28.5-19.2,11-4.5,23.1-6.7,36.3-6.7s28.2,2.5,39.6,7.4c10.8,4.7,19.9,11,27.5,19,6.7-21.5,16.6-41.5,29.1-59.6-9.7-6.8-20.1-12.7-31.5-17.4-18.9-7.8-40.4-11.7-64.7-11.7s-44.3,4-63.6,11.9c-19.3,7.9-36.3,19-50.8,33.1-14.6,14.1-25.9,30.8-33.9,50-8.1,19.2-12.1,39.9-12.1,62.1s4,42.9,12.1,62.1c8.1,19.2,19.4,36,33.9,50.4,14.6,14.4,31.6,25.6,51,33.5,19.5,7.9,40.6,11.9,63.4,11.9s47.1-3.8,66.2-11.5c12.6-5.1,24.1-11.6,34.6-19.4-13.2-17.7-23.8-37.4-31.3-58.6-8,8.7-17.6,15.4-28.9,20Z"/>
</svg>