<svg width="16" height="16" viewBox="0 0 16 16" fill="none" xmlns="http://www.w3.org/2000/svg">
  <path
    d="M7.36187 10.1671C7.36187 9.86117 7.64639 9.61313 7.99735 9.61313C8.34832 9.61313 8.63284 9.86117 8.63284 10.1671V14.1073L10.1443 12.7897C10.3924 12.5733 10.7948 12.5733 11.043 12.7897C11.2911 13.006 11.2911 13.3568 11.043 13.5732L8.47027 15.8161C8.35393 15.929 8.18515 16 7.99735 16C7.80963 16 7.64091 15.929 7.52458 15.8162L4.95172 13.5732C4.70355 13.3568 4.70355 13.006 4.95172 12.7897C5.1999 12.5733 5.60226 12.5733 5.85044 12.7897L7.36187 14.1074V10.1671Z"
    fill="#fff" />
  <path
    d="M8.63283 5.83285C8.63283 6.13883 8.34832 6.38687 7.99735 6.38687C7.64638 6.38687 7.36186 6.13883 7.36186 5.83285L7.36186 1.89266L5.85044 3.21031C5.60227 3.42667 5.1999 3.42667 4.95173 3.21031C4.70356 2.99396 4.70356 2.64317 4.95173 2.42682L7.52444 0.183933C7.64078 0.0710201 7.80955 0 7.99735 0C8.18508 0 8.35379 0.0709647 8.47012 0.183801L11.043 2.42681C11.2912 2.64317 11.2912 2.99395 11.043 3.21031C10.7948 3.42667 10.3924 3.42667 10.1443 3.21031L8.63283 1.89264V5.83285Z"
    fill="#fff" />
  <path
    d="M5.83285 7.36695C6.13883 7.36695 6.38687 7.65146 6.38687 8.00243C6.38687 8.3534 6.13883 8.63792 5.83285 8.63792H1.89266L3.21031 10.1493C3.42667 10.3975 3.42667 10.7999 3.21031 11.0481C2.99396 11.2962 2.64317 11.2962 2.42682 11.0481L0.183932 8.47534C0.0710193 8.35901 -3.89164e-07 8.19023 0 8.00243C-5.25372e-07 7.81471 0.0709643 7.64599 0.183801 7.52966L2.42681 4.9568C2.64317 4.70863 2.99395 4.70863 3.21031 4.9568C3.42667 5.20498 3.42667 5.60734 3.21031 5.85551L1.89264 7.36695H5.83285Z"
    fill="#fff" />
  <path
    d="M10.1671 8.63791C9.86117 8.63791 9.61313 8.3534 9.61313 8.00243C9.61313 7.65146 9.86117 7.36694 10.1671 7.36694L14.1073 7.36694L12.7897 5.85552C12.5733 5.60735 12.5733 5.20498 12.7897 4.95681C13.006 4.70864 13.3568 4.70864 13.5732 4.95681L15.8161 7.52952C15.929 7.64585 16 7.81463 16 8.00243C16 8.19015 15.929 8.35887 15.8162 8.4752L13.5732 11.0481C13.3568 11.2962 13.006 11.2962 12.7897 11.0481C12.5733 10.7999 12.5733 10.3975 12.7897 10.1493L14.1074 8.63791H10.1671Z"
    fill="#fff" />
</svg>
  