<svg
  id="form-attention-neutral-dark"
  width="100%"
  height="100%"
  viewBox="0 0 16 16"
  xmlns="http://www.w3.org/2000/svg">
  <path fill="#C5C8D6" fill-rule="evenodd" d="M.5 8a7.5 7.5 0 1 1 15 0 7.5 7.5 0 0 1-15 0Z"
    clip-rule="evenodd" opacity=".2" />
  <path fill="#C5C8D6"
    d="M8.02 4a.71.71 0 0 1 .71.728l-.101 4.26a.63.63 0 0 1-1.26 0L7.26 4.73A.71.71 0 0 1 7.97 4h.05ZM8.005 12a.871.871 0 0 1-.609-.233.815.815 0 0 1-.243-.6c0-.236.081-.432.243-.587a.85.85 0 0 1 .61-.244c.228 0 .424.081.586.244.17.155.255.351.255.588a.798.798 0 0 1-.255.599.819.819 0 0 1-.587.233Z" />
</svg>