<svg width="16" height="16" viewBox="0 0 16 16" fill="none" xmlns="http://www.w3.org/2000/svg">
  <path opacity="0.2" fill-rule="evenodd" clip-rule="evenodd"
    d="M1 8C1 4.13401 4.13401 1 8 1C11.866 1 15 4.13401 15 8C15 11.866 11.866 15 8 15C4.13401 15 1 11.866 1 8Z"
    fill="#fff" />
  <path
    d="M8.00005 3.80005C7.65211 3.80005 7.37005 4.08211 7.37005 4.43005V7.37004H4.43005C4.08211 7.37004 3.80005 7.65211 3.80005 8.00004C3.80005 8.34798 4.08211 8.63004 4.43005 8.63004H7.37005V11.57C7.37005 11.918 7.65211 12.2 8.00005 12.2C8.34799 12.2 8.63005 11.918 8.63005 11.57V8.63004H11.57C11.918 8.63004 12.2 8.34798 12.2 8.00004C12.2 7.65211 11.918 7.37004 11.57 7.37004H8.63005V4.43005C8.63005 4.08211 8.34799 3.80005 8.00005 3.80005Z"
    fill="#fff" />
</svg>