<?xml version="1.0" encoding="UTF-8"?>
<svg id="Layer_1" xmlns="http://www.w3.org/2000/svg" width="142" height="164" version="1.1" viewBox="0 0 142 164">
  <path d="M71.1,1.4L1.3,41.7v80.6l69.8,40.3,32.4-18.7-9.4-12.8-23.1,13.3-54.1-31.2v-62.4l54.1-31.2,54.1,31.2v62.4l-7.7,4.5c-7.8-10.2-19.1-24.9-19.7-25.7,8.6-2,13.3-9.2,13.3-17.4,0-16.2-16.6-19.8-28.9-19.8h-34.6l-12.4,16h49.3c4.5,0,6.9,1.5,6.9,5s-2.5,5.2-6.9,5.2h-49.5v28.6h18.8v-13.5h24.7l15.9,20.8,7.6,9.9,9.7,12.6,29.1-16.7V41.7L70.9,1.4s.2,0,.2,0Z"/>
</svg>
