<svg
  id="apple-icon"
  width="100%"
  height="100%"
  viewBox="0 0 16 16"
  xmlns="http://www.w3.org/2000/svg">
  <path fill="#B3B3B3"
    d="M12.17 14.259c-.806.782-1.695.66-2.543.292-.9-.377-1.724-.4-2.676 0-1.185.51-1.814.362-2.528-.292C.394 10.11.99 3.79 5.57 3.554c1.11.06 1.888.614 2.542.66.972-.198 1.903-.764 2.944-.69 1.25.101 2.185.594 2.81 1.482-2.572 1.547-1.962 4.937.4 5.888-.473 1.242-1.08 2.468-2.096 3.375l.001-.01ZM8.022 3.509C7.902 1.665 9.396.15 11.114 0c.237 2.126-1.932 3.717-3.092 3.51Z" />
</svg>