<svg id="command" width="100%" height="100%" viewBox="0 0 40 40" fill="none"
  xmlns="http://www.w3.org/2000/svg">
  <path opacity="0.24" fill-rule="evenodd" clip-rule="evenodd"
    d="M39 21C39 27.4811 38.5582 34.793 36.1831 37.175C33.8081 39.5569 25.3024 40 20.0552 40C14.8081 40 6.30236 39.5569 3.92733 37.175C1.55233 34.793 1 27.4811 1 21C1 14.519 1.55232 7.20702 3.92732 4.82507C6.30236 2.44315 14.8081 2 20.0552 2C25.3024 2 33.8082 2.44315 36.1832 4.82507C38.5582 7.20702 39 14.519 39 21Z"
    fill="#131522" style="fill:#131522;fill:color(display-p3 0.0745 0.0824 0.1333);fill-opacity:1;" />
  <g filter="url(#filter0_i_125_81366)">
    <path fill-rule="evenodd" clip-rule="evenodd"
      d="M39 20C39 26.4811 38.5582 33.793 36.1831 36.175C33.8081 38.5569 25.3024 39 20.0552 39C14.8081 39 6.30236 38.5569 3.92733 36.175C1.55233 33.793 1 26.4811 1 20C1 13.519 1.55232 6.20702 3.92732 3.82507C6.30236 1.44315 14.8081 1 20.0552 1C25.3024 1 33.8082 1.44315 36.1832 3.82507C38.5582 6.20702 39 13.519 39 20Z"
      fill="url(#paint0_linear_125_81366)" style="" />
  </g>
  <path
    d="M23.6667 30.0471C23.6663 30.0571 23.666 30.0671 23.666 30.0772V31.8237C23.666 32.2144 24.0004 32.5222 24.3887 32.4795C24.5753 32.4589 24.7608 32.4365 24.9443 32.4122C25.7844 32.3007 26.6254 32.1427 27.3649 31.9134C28.064 31.6964 28.8585 31.3609 29.4322 30.7855C29.9784 30.2379 30.317 29.5167 30.5444 28.8377C30.7787 28.1374 30.9387 27.345 31.051 26.535C31.2759 24.9149 31.3327 23.0526 31.3327 21.36C31.3327 21.1477 31.3318 20.9328 31.3298 20.716C31.3144 22.2077 31.2454 23.7829 31.0517 25.1785C30.9394 25.9885 30.7794 26.7808 30.545 27.4811C30.3177 28.1601 29.979 28.8813 29.4329 29.429C28.8592 30.0043 28.0647 30.3398 27.3655 30.5568C26.626 30.7861 25.785 30.9441 24.945 31.0556C24.7615 31.08 24.576 31.1023 24.3893 31.123C24.0011 31.1656 23.6667 30.8578 23.6667 30.4671V30.0471Z"
    fill="#1E202E" style="fill:#1E202E;fill:color(display-p3 0.1176 0.1255 0.1804);fill-opacity:1;" />
  <path
    d="M23.6667 10.866C23.6663 10.876 23.666 10.8861 23.666 10.8962V12.6427C23.666 12.9865 23.9276 13.2727 24.269 13.3136C24.3603 13.3245 24.451 13.3359 24.541 13.3479C25.2892 13.4471 25.9439 13.5767 26.456 13.7356C26.7105 13.8145 26.9069 13.8938 27.051 13.9674C27.1217 14.0035 27.1734 14.0349 27.2092 14.0598C27.2269 14.0719 27.2395 14.0818 27.2482 14.0888L27.2577 14.0969L27.2599 14.0991C27.3264 14.1656 27.4762 14.3773 27.6362 14.8556C27.789 15.3123 27.9159 15.9022 28.0135 16.6064C28.1834 17.8316 28.2488 19.2734 28.2629 20.7141C28.2655 20.477 28.2667 20.2397 28.2667 20.0034C28.2667 18.3532 28.2095 16.6583 28.0142 15.2499C27.9165 14.5457 27.7897 13.9557 27.6369 13.499C27.4769 13.0208 27.327 12.8091 27.2605 12.7425L27.2584 12.7404L27.2489 12.7323C27.2402 12.7252 27.2275 12.7154 27.2099 12.7032C27.174 12.6784 27.1224 12.6469 27.0517 12.6108C26.9075 12.5372 26.7112 12.458 26.4567 12.379C25.9445 12.2201 25.2899 12.0906 24.5417 11.9913C24.4517 11.9794 24.361 11.9679 24.2697 11.957C23.9283 11.9162 23.6667 11.63 23.6667 11.2862V10.866Z"
    fill="#1E202E" style="fill:#1E202E;fill:color(display-p3 0.1176 0.1255 0.1804);fill-opacity:1;" />
  <path
    d="M23.6667 30.0471C23.6663 30.0571 23.666 30.0671 23.666 30.0772V31.8237C23.666 32.2144 24.0004 32.5222 24.3887 32.4795C24.5753 32.4589 24.7608 32.4365 24.9443 32.4122C25.7844 32.3007 26.6254 32.1427 27.3649 31.9134C28.064 31.6964 28.8585 31.3609 29.4322 30.7855C29.9784 30.2379 30.317 29.5167 30.5444 28.8377C30.7787 28.1374 30.9387 27.345 31.051 26.535C31.2759 24.9149 31.3327 23.0526 31.3327 21.36C31.3327 21.1477 31.3318 20.9328 31.3298 20.716C31.3144 22.2077 31.2454 23.7829 31.0517 25.1785C30.9394 25.9885 30.7794 26.7808 30.545 27.4811C30.3177 28.1601 29.979 28.8813 29.4329 29.429C28.8592 30.0043 28.0647 30.3398 27.3655 30.5568C26.626 30.7861 25.785 30.9441 24.945 31.0556C24.7615 31.08 24.576 31.1023 24.3893 31.123C24.0011 31.1656 23.6667 30.8578 23.6667 30.4671V30.0471ZM23.6667 10.866C23.6663 10.876 23.666 10.8861 23.666 10.8962V12.6427C23.666 12.9865 23.9276 13.2727 24.269 13.3136C24.3603 13.3245 24.451 13.3359 24.541 13.3479C25.2892 13.4471 25.9439 13.5767 26.456 13.7356C26.7105 13.8145 26.9069 13.8938 27.051 13.9674C27.1217 14.0035 27.1734 14.0349 27.2092 14.0598C27.2269 14.0719 27.2395 14.0818 27.2482 14.0888L27.2577 14.0969L27.2599 14.0991C27.3264 14.1656 27.4762 14.3773 27.6362 14.8556C27.789 15.3123 27.9159 15.9022 28.0135 16.6064C28.1834 17.8316 28.2488 19.2734 28.2629 20.7141C28.2655 20.477 28.2667 20.2397 28.2667 20.0034C28.2667 18.3532 28.2095 16.6583 28.0142 15.2499C27.9165 14.5457 27.7897 13.9557 27.6369 13.499C27.4769 13.0208 27.327 12.8091 27.2605 12.7425L27.2584 12.7404L27.2489 12.7323C27.2402 12.7252 27.2275 12.7154 27.2099 12.7032C27.174 12.6784 27.1224 12.6469 27.0517 12.6108C26.9075 12.5372 26.7112 12.458 26.4567 12.379C25.9445 12.2201 25.2899 12.0906 24.5417 11.9913C24.4517 11.9794 24.361 11.9679 24.2697 11.957C23.9283 11.9162 23.6667 11.63 23.6667 11.2862V10.866ZM8.67029 20.6533C8.68743 22.1712 8.76869 23.7742 8.97881 25.1925C9.09897 26.0035 9.26694 26.7945 9.50721 27.4931C9.74012 28.1705 10.0825 28.8858 10.6241 29.429C11.1978 30.0043 11.9923 30.3398 12.6915 30.5568C13.4309 30.7861 14.272 30.9441 15.112 31.0556C15.2765 31.0775 15.4425 31.0976 15.6096 31.1165C15.9881 31.159 16.3159 30.8679 16.3327 30.4912V31.8175C16.3327 32.2087 15.9975 32.5167 15.6089 32.473C15.4419 32.4542 15.2758 32.434 15.1114 32.4122C14.2713 32.3007 13.4303 32.1427 12.6908 31.9134C11.9916 31.6964 11.1971 31.3609 10.6234 30.7855C10.0819 30.2424 9.73945 29.527 9.50653 28.8497C9.26627 28.151 9.0983 27.36 8.97814 26.549C8.73776 24.9265 8.66602 23.0622 8.66602 21.36C8.66602 21.1271 8.66736 20.8912 8.67029 20.6533ZM16.3327 11.323V12.6495C16.3327 12.9928 16.0719 13.2787 15.7311 13.3203C15.6586 13.3292 15.5864 13.3383 15.5147 13.3479C14.7665 13.4471 14.1119 13.5766 13.5996 13.7356C13.3452 13.8145 13.1488 13.8938 13.0047 13.9674C12.934 14.0035 12.8824 14.035 12.8465 14.0598C12.8288 14.072 12.8161 14.0818 12.8075 14.0888L12.7981 14.0969L12.795 14.0998C12.7241 14.171 12.5715 14.3877 12.4065 14.8676C12.2488 15.3261 12.1159 15.9172 12.0117 16.6204C11.8331 17.8257 11.7557 19.2417 11.7372 20.655C11.7346 20.4374 11.7334 20.22 11.7334 20.0034C11.7334 18.3627 11.8041 16.6699 12.0124 15.2639C12.1166 14.5606 12.2495 13.9695 12.4072 13.511C12.5722 13.0312 12.7248 12.8144 12.7957 12.7432L12.7987 12.7404L12.8082 12.7323C12.8168 12.7252 12.8295 12.7154 12.8472 12.7032C12.8831 12.6784 12.9346 12.6469 13.0054 12.6108C13.1495 12.5372 13.3459 12.458 13.6003 12.379C14.1126 12.2201 14.7672 12.0906 15.5153 11.9913C15.587 11.9818 15.6592 11.9726 15.7318 11.9637C16.0625 11.9233 16.318 11.6528 16.3327 11.323Z"
    fill="#1E202E" style="fill:#1E202E;fill:color(display-p3 0.1176 0.1255 0.1804);fill-opacity:1;" />
  <path
    d="M16.3337 9.54585C16.3337 9.15479 15.9985 8.84677 15.6099 8.89042C15.4428 8.90918 15.2768 8.92942 15.1123 8.95124C14.2723 9.06269 13.4312 9.22066 12.6918 9.4501C11.9925 9.66707 11.198 10.0026 10.6244 10.5779C10.0828 11.1211 9.74041 11.8364 9.5075 12.5137C9.26724 13.2123 9.09927 14.0034 8.97911 14.8144C8.73873 16.437 8.66699 18.3013 8.66699 20.0034C8.66699 21.7056 8.73873 23.5699 8.97911 25.1925C9.09927 26.0035 9.26724 26.7945 9.50751 27.4931C9.74042 28.1705 10.0828 28.8858 10.6244 29.429C11.1981 30.0043 11.9926 30.3398 12.6918 30.5568C13.4312 30.7861 14.2723 30.9441 15.1123 31.0556C15.2768 31.0775 15.4428 31.0976 15.6099 31.1165C15.9985 31.1601 16.3337 30.8521 16.3337 30.461V28.714C16.3337 28.3706 16.0728 28.0848 15.7321 28.0431C15.6595 28.0343 15.5873 28.0251 15.5156 28.0156C14.7674 27.9163 14.1129 27.7868 13.6006 27.6278C13.3462 27.549 13.1498 27.4696 13.0057 27.3961C12.9349 27.36 12.8834 27.3285 12.8475 27.3036C12.8298 27.2915 12.8171 27.2816 12.8085 27.2746L12.799 27.2665L12.7968 27.2643C12.7258 27.1933 12.5725 26.9758 12.4075 26.4958C12.2498 26.0373 12.1169 25.4463 12.0127 24.743C11.8044 23.337 11.7337 21.6441 11.7337 20.0034C11.7337 18.3627 11.8044 16.6699 12.0127 15.2639C12.1169 14.5606 12.2498 13.9695 12.4075 13.511C12.5725 13.0312 12.7251 12.8144 12.796 12.7432L12.799 12.7404L12.8085 12.7323C12.8171 12.7252 12.8298 12.7154 12.8475 12.7032C12.8834 12.6784 12.9349 12.6469 13.0057 12.6108C13.1498 12.5372 13.3462 12.458 13.6006 12.379C14.1129 12.2201 14.7675 12.0906 15.5156 11.9913C15.5873 11.9818 15.6595 11.9726 15.7321 11.9637C16.0728 11.9221 16.3337 11.6362 16.3337 11.2929V9.54585ZM23.667 28.7206C23.667 28.377 23.9286 28.0906 24.27 28.0498C24.3613 28.039 24.452 28.0275 24.542 28.0156C25.2902 27.9163 25.9447 27.7868 26.457 27.6278C26.7115 27.549 26.9078 27.4696 27.0518 27.3961C27.1227 27.36 27.1743 27.3285 27.2102 27.3036C27.2278 27.2915 27.2405 27.2816 27.2492 27.2746L27.2585 27.2665L27.2617 27.2636C27.328 27.1971 27.4772 26.9861 27.6372 26.5078C27.79 26.0511 27.9168 25.4613 28.0145 24.757C28.2098 23.3486 28.267 21.6537 28.267 20.0034C28.267 18.3532 28.2098 16.6583 28.0145 15.2499C27.9168 14.5457 27.79 13.9557 27.6372 13.499C27.4772 13.0208 27.3273 12.8091 27.2608 12.7425L27.2587 12.7404L27.2492 12.7323C27.2405 12.7252 27.2278 12.7154 27.2102 12.7032C27.1743 12.6784 27.1227 12.6469 27.052 12.6108C26.9078 12.5372 26.7115 12.458 26.457 12.379C25.9448 12.2201 25.2902 12.0906 24.542 11.9913C24.452 11.9794 24.3613 11.9679 24.27 11.957C23.9286 11.9162 23.667 11.63 23.667 11.2862V9.53966C23.667 9.14907 24.0014 8.84123 24.3896 8.88398C24.5763 8.90454 24.7618 8.92692 24.9453 8.95127C25.7853 9.06272 26.6265 9.22069 27.3658 9.45013C28.0652 9.6671 28.8597 10.0026 29.4333 10.5779C29.9793 11.1256 30.3182 11.8468 30.5453 12.5257C30.7797 13.2262 30.9397 14.0184 31.052 14.8284C31.2768 16.4486 31.3337 18.3109 31.3337 20.0034C31.3337 21.696 31.2768 23.5583 31.052 25.1785C30.9397 25.9885 30.7797 26.7808 30.5453 27.4811C30.318 28.1601 29.9793 28.8813 29.4332 29.429C28.8595 30.0043 28.065 30.3398 27.3658 30.5568C26.6263 30.7861 25.7853 30.9441 24.9453 31.0556C24.7618 31.08 24.5763 31.1023 24.3896 31.123C24.0014 31.1656 23.667 30.8578 23.667 30.4671V28.7206Z"
    fill="white" style="fill:white;fill-opacity:1;" />
  <defs>
    <filter id="filter0_i_125_81366" x="1" y="1" width="38" height="38" filterUnits="userSpaceOnUse"
      color-interpolation-filters="sRGB">
      <feFlood flood-opacity="0" result="BackgroundImageFix" />
      <feBlend mode="normal" in="SourceGraphic" in2="BackgroundImageFix" result="shape" />
      <feColorMatrix in="SourceAlpha" type="matrix"
        values="0 0 0 0 0 0 0 0 0 0 0 0 0 0 0 0 0 0 127 0" result="hardAlpha" />
      <feOffset dy="1" />
      <feComposite in2="hardAlpha" operator="arithmetic" k2="-1" k3="1" />
      <feColorMatrix type="matrix" values="0 0 0 0 1 0 0 0 0 1 0 0 0 0 1 0 0 0 0.2 0" />
      <feBlend mode="normal" in2="shape" result="effect1_innerShadow_125_81366" />
    </filter>
    <linearGradient id="paint0_linear_125_81366" x1="20" y1="1" x2="20" y2="39"
      gradientUnits="userSpaceOnUse">
      <stop stop-color="#4E5161"
        style="stop-color:#4E5161;stop-color:color(display-p3 0.3059 0.3176 0.3804);stop-opacity:1;" />
      <stop offset="1" stop-color="#1E202E"
        style="stop-color:#1E202E;stop-color:color(display-p3 0.1176 0.1255 0.1804);stop-opacity:1;" />
    </linearGradient>
  </defs>
</svg>
  