<svg
  id="favicon"
  width="100%"
  height="100%"
  viewBox="0 0 64 64"
  xmlns="http://www.w3.org/2000/svg">
  <path fill="#fff"
    d="M64 32c0-10.915-.744-23.23-4.744-27.242C55.256.746 40.93 0 32.093 0S8.93.746 4.93 4.758C.93 8.77 0 21.085 0 32c0 10.916.93 23.23 4.93 27.242C8.93 63.254 23.256 64 32.093 64s23.163-.746 27.163-4.758C63.256 55.23 64 42.916 64 32Z" />
  <path fill="url(#favicon_a)"
    d="M64 32c0-10.915-.744-23.23-4.744-27.242C55.256.746 40.93 0 32.093 0S8.93.746 4.93 4.758C.93 8.77 0 21.085 0 32c0 10.916.93 23.23 4.93 27.242C8.93 63.254 23.256 64 32.093 64s23.163-.746 27.163-4.758C63.256 55.23 64 42.916 64 32Z" />
  <path fill="#5461C8"
    d="M41.972 18.434C47.078 18.434 50 21.5 50 26.84v18.73h-4.824V29.25c0-5.06-2.003-6.411-4.686-6.411-3.695 0-6.08 4.001-6.08 10.854V45.57h-4.824V29.25c0-4.737-1.764-6.412-4.715-6.412-3.725 0-6.05 4.325-6.05 10.854V45.57H14V18.85h4.824v4.203c1.638-3.06 4.3-4.623 7.772-4.623 3.473 0 6.32 1.852 7.302 5.11 1.444-3.128 4.404-5.11 8.074-5.11" />
  <defs>
    <linearGradient id="favicon_a" x1="58.372" x2="24.392" y1="2.426" y2="71.878"
      gradientUnits="userSpaceOnUse">
      <stop stop-color="#fff" stop-opacity=".03" />
      <stop offset=".5" stop-color="#EFF1FF" stop-opacity=".11" />
      <stop offset="1" stop-color="#EFF1FF" stop-opacity=".9" />
    </linearGradient>
  </defs>
</svg>