<svg id="globex" width="100%" height="100%" viewBox="0 0 16 16" fill="none"
  xmlns="http://www.w3.org/2000/svg">
  <path fill-rule="evenodd" clip-rule="evenodd"
    d="M15.6004 8.00002C15.6004 10.5925 15.4237 13.5172 14.4736 14.47C13.5236 15.4228 10.1214 15.6 8.02247 15.6C5.92363 15.6 2.52133 15.4228 1.57132 14.47C0.621323 13.5172 0.400391 10.5925 0.400391 8.00002C0.400391 5.40762 0.621319 2.48283 1.57132 1.53005C2.52133 0.577284 5.92363 0.400024 8.02247 0.400024C10.1214 0.400024 13.5237 0.577284 14.4737 1.53005C15.4237 2.48283 15.6004 5.40762 15.6004 8.00002Z"
    fill="#E5E7F7" />
  <path d="M6 4H10V6H6V4Z" fill="#5461c8" />
  <path d="M6 10H10V12H6V10Z" fill="#5461c8" />
  <path d="M4 6H6V10H4V6Z" fill="#5461c8" />
  <path d="M10 8H12V10H10V8Z" fill="#5461c8" />
</svg>