<svg id="hardware-cellular" width="100%" height="100%" viewBox="0 0 40 40" fill="none"
  xmlns="http://www.w3.org/2000/svg">
  <path
    d="M6.69308 5.10541L5.17239 6.60469C4.08055 7.68115 3.39333 9.09137 3.29031 10.6103C3.15533 12.6004 3 15.8025 3 20C3 24.1975 3.15533 27.3996 3.29031 29.3897C3.39333 30.9086 4.08055 32.3188 5.17239 33.3953L6.69308 34.8946C7.76234 35.9488 9.15602 36.6192 10.6646 36.7221C12.585 36.8532 15.6968 37 20 37C24.3032 37 27.4151 36.8532 29.3355 36.7221C30.8441 36.6192 32.2377 35.9488 33.3069 34.8946L34.8276 33.3953C35.9195 32.3188 36.6067 30.9086 36.7097 29.3897C36.8447 27.3996 37 24.1975 37 20C37 15.8025 36.8447 12.6004 36.7097 10.6103C36.6067 9.09137 35.9195 7.68115 34.8276 6.60469L33.3069 5.10541C32.2377 4.05122 30.8441 3.38082 29.3355 3.27788C27.4151 3.14683 24.3032 3 20 3C15.6968 3 12.585 3.14683 10.6646 3.27788C9.15602 3.38082 7.76234 4.05122 6.69308 5.10541Z"
    fill="#131522" fill-opacity="0.12" />
  <path
    d="M6.69308 5.60541L5.17239 7.10469C4.08055 8.18115 3.39333 9.59137 3.29031 11.1103C3.15533 13.1004 3 16.3025 3 20.5C3 24.6975 3.15533 27.8996 3.29031 29.8897C3.39333 31.4086 4.08055 32.8188 5.17239 33.8953L6.69308 35.3946C7.76234 36.4488 9.15602 37.1192 10.6646 37.2221C12.585 37.3532 15.6968 37.5 20 37.5C24.3032 37.5 27.4151 37.3532 29.3355 37.2221C30.8441 37.1192 32.2377 36.4488 33.3069 35.3946L34.8276 33.8953C35.9195 32.8188 36.6067 31.4086 36.7097 29.8897C36.8447 27.8996 37 24.6975 37 20.5C37 16.3025 36.8447 13.1004 36.7097 11.1103C36.6067 9.59137 35.9195 8.18115 34.8276 7.10469L33.3069 5.60541C32.2377 4.55122 30.8441 3.88082 29.3355 3.77788C27.4151 3.64683 24.3032 3.5 20 3.5C15.6968 3.5 12.585 3.64683 10.6646 3.77788C9.15602 3.88082 7.76234 4.55122 6.69308 5.60541Z"
    fill="#131522" fill-opacity="0.12" />
  <path
    d="M7.08446 5.54349L5.60849 6.99867C4.54877 8.04347 3.88176 9.41221 3.78177 10.8865C3.65076 12.8181 3.5 15.926 3.5 20C3.5 24.074 3.65076 27.1819 3.78177 29.1135C3.88176 30.5878 4.54877 31.9565 5.60849 33.0013L7.08446 34.4565C8.12227 35.4797 9.47496 36.1304 10.9391 36.2303C12.8031 36.3575 15.8234 36.5 20 36.5C24.1766 36.5 27.197 36.3575 29.0609 36.2303C30.5251 36.1304 31.8777 35.4797 32.9156 34.4565L34.3915 33.0013C35.4513 31.9565 36.1183 30.5878 36.2182 29.1135C36.3493 27.1819 36.5 24.074 36.5 20C36.5 15.926 36.3493 12.8181 36.2182 10.8865C36.1183 9.41221 35.4513 8.04347 34.3915 6.99867L32.9156 5.54349C31.8777 4.5203 30.5251 3.86962 29.0609 3.7697C27.197 3.64251 24.1766 3.5 20 3.5C15.8234 3.5 12.8031 3.64251 10.9391 3.7697C9.47496 3.86962 8.12227 4.5203 7.08446 5.54349Z"
    fill="white" />
  <path
    d="M30 20C30 25.5228 25.5228 30 20 30C14.4772 30 10 25.5228 10 20C10 14.4772 14.4772 10 20 10C25.5228 10 30 14.4772 30 20Z"
    fill="url(#paint0_linear_34_652)" />
  <defs>
    <linearGradient id="paint0_linear_34_652" x1="28.2413" y1="10.758" x2="17.6224" y2="32.462"
      gradientUnits="userSpaceOnUse">
      <stop stop-color="white" stop-opacity="0.03" />
      <stop offset="0.500255" stop-color="#E1E4EC" stop-opacity="0.11" />
      <stop offset="1" stop-color="#D4DAE5" stop-opacity="0.56" />
    </linearGradient>
  </defs>
</svg>