<svg id="shield" width="100%" height="100%" viewBox="0 0 40 48" fill="none"
  xmlns="http://www.w3.org/2000/svg">
  <g filter="url(#filter0_ddddd_324_26835)">
    <path fill-rule="evenodd" clip-rule="evenodd"
      d="M4.20818 12.5133C3.89068 15.277 3.49081 20.7924 4.45723 26.2569C5.76256 33.6374 11.1625 39.2562 18.9573 42.7594C19.2902 42.909 19.6441 42.9892 19.9996 43C20.3551 42.9892 20.709 42.909 21.0419 42.7594C28.8367 39.2562 34.2366 33.6374 35.542 26.2569C36.5084 20.7924 36.1085 15.277 35.791 12.5133C35.661 11.3812 34.909 10.4554 33.88 10.0668L20.9652 5.19062C20.6529 5.0727 20.3268 5.00917 19.9996 5C19.6724 5.00917 19.3463 5.0727 19.034 5.19062L6.11925 10.0668C5.09016 10.4554 4.3382 11.3812 4.20818 12.5133Z"
      fill="white" style="fill:white;fill-opacity:1;" />
  </g>
  <path fill-rule="evenodd" clip-rule="evenodd"
    d="M4.20818 12.5133C3.89068 15.277 3.49081 20.7924 4.45723 26.2569C5.76256 33.6374 11.1625 39.2562 18.9573 42.7594C19.2902 42.909 19.6441 42.9892 19.9996 43C20.3551 42.9892 20.709 42.909 21.0419 42.7594C28.8367 39.2562 34.2366 33.6374 35.542 26.2569C36.5084 20.7924 36.1085 15.277 35.791 12.5133C35.661 11.3812 34.909 10.4554 33.88 10.0668L20.9652 5.19062C20.6529 5.0727 20.3268 5.00917 19.9996 5C19.6724 5.00917 19.3463 5.0727 19.034 5.19062L6.11925 10.0668C5.09016 10.4554 4.3382 11.3812 4.20818 12.5133Z"
    fill="white" style="fill:white;fill-opacity:1;" />
  <path fill-rule="evenodd" clip-rule="evenodd"
    d="M4.20818 12.5133C3.89068 15.277 3.49081 20.7924 4.45723 26.2569C5.76256 33.6374 11.1625 39.2562 18.9573 42.7594C19.2902 42.909 19.6441 42.9892 19.9996 43C20.3551 42.9892 20.709 42.909 21.0419 42.7594C28.8367 39.2562 34.2366 33.6374 35.542 26.2569C36.5084 20.7924 36.1085 15.277 35.791 12.5133C35.661 11.3812 34.909 10.4554 33.88 10.0668L20.9652 5.19062C20.6529 5.0727 20.3268 5.00917 19.9996 5C19.6724 5.00917 19.3463 5.0727 19.034 5.19062L6.11925 10.0668C5.09016 10.4554 4.3382 11.3812 4.20818 12.5133Z"
    fill="url(#paint0_linear_324_26835)" style="" />
  <path
    d="M21.8673 17.3796C21.8665 17.3697 21.8658 17.3598 21.8652 17.3499H21.8515C21.8457 17.3547 21.84 17.3597 21.8343 17.3647C21.8221 17.3755 21.8098 17.3863 21.7962 17.3949C21.7489 17.4245 21.7016 17.4543 21.6544 17.4841C21.489 17.5884 21.3235 17.6927 21.1555 17.7927C21.092 17.8304 21.073 17.8717 21.0736 17.9425C21.0763 18.2471 21.076 18.5517 21.0756 18.8563V18.8566C21.0755 18.9599 21.0754 19.0632 21.0754 19.1666V19.2496H20.2606V19.951H21.0754V20.0378C21.0754 20.2535 21.0751 20.4691 21.0748 20.6848V20.685C21.0739 21.2652 21.073 21.8454 21.0785 22.4255C21.0804 22.6278 21.1007 22.834 21.1464 23.0309C21.2469 23.4646 21.5118 23.7699 21.9439 23.9211C22.2168 24.0167 22.4977 24.0144 22.7798 23.9715C22.9377 23.9474 23.0892 23.9036 23.229 23.8173L23.0405 23.1432C22.8809 23.2438 22.7115 23.2882 22.5317 23.295C22.2282 23.3065 22.0053 23.1586 21.9219 22.8716C21.8868 22.7508 21.8735 22.6203 21.8729 22.4941C21.8696 21.8561 21.8701 21.218 21.8705 20.5799C21.8707 20.3952 21.8708 20.2105 21.8708 20.0257C21.8709 20.01 21.8719 19.9942 21.8731 19.9762C21.8737 19.9671 21.8744 19.9574 21.875 19.9468H23.1154V19.2445H21.8707L21.8707 18.825C21.8707 18.3645 21.8707 17.904 21.8705 17.4435C21.8705 17.4222 21.8689 17.4009 21.8673 17.3796Z"
    fill="#5461C8" style="fill:#5461C8;fill:color(display-p3 0.3294 0.3804 0.7843);fill-opacity:1;" />
  <path fill-rule="evenodd" clip-rule="evenodd"
    d="M27.2619 21.741H23.8389C23.8484 21.7952 23.8568 21.8487 23.8651 21.9014C23.8833 22.0166 23.9009 22.1286 23.9274 22.2384C23.9942 22.5161 24.1207 22.765 24.3212 22.9701C24.5037 23.157 24.7294 23.2514 24.9854 23.2805C25.2005 23.3049 25.4117 23.2871 25.6199 23.2304C25.9243 23.1475 26.1297 22.9382 26.2938 22.6797C26.3328 22.6182 26.3678 22.5541 26.4038 22.4881C26.4206 22.4574 26.4375 22.4262 26.4552 22.3948L27.1337 22.6923C27.1262 22.7074 27.119 22.7223 27.1117 22.737C27.0963 22.7686 27.0812 22.7995 27.0653 22.8298C26.8963 23.1513 26.6883 23.4401 26.392 23.6558C26.1593 23.8251 25.8962 23.9168 25.6166 23.9612C25.3115 24.0097 25.0048 24.0182 24.7005 23.9538C24.1943 23.8467 23.7885 23.5825 23.4998 23.1455C23.2421 22.7557 23.1079 22.322 23.0693 21.8563C23.0239 21.3073 23.0998 20.7794 23.3394 20.2807C23.597 19.7444 23.9956 19.3694 24.5744 19.2212C25.1792 19.0663 25.7625 19.1278 26.3047 19.4563C26.6893 19.6893 26.9306 20.0423 27.0931 20.4564C27.2146 20.7659 27.2605 21.0894 27.2618 21.4206C27.2621 21.4907 27.262 21.5608 27.262 21.6344L27.2619 21.741ZM26.4364 21.027C26.3428 20.4729 25.9599 19.7963 25.0598 19.8572C24.7396 19.8789 24.4648 19.9988 24.2529 20.248C24.0622 20.4723 23.9523 20.7345 23.8987 21.027H26.4364Z"
    fill="#5461C8" style="fill:#5461C8;fill:color(display-p3 0.3294 0.3804 0.7843);fill-opacity:1;" />
  <path
    d="M30.417 19.4548C30.39 19.5601 30.363 19.6657 30.3365 19.7711C30.3242 19.8203 30.3126 19.8697 30.3007 19.9208L30.3006 19.9212C30.295 19.9454 30.2892 19.9701 30.2832 19.9953C30.2766 19.9933 30.2705 19.9916 30.2647 19.9901C30.2535 19.987 30.2437 19.9843 30.2344 19.9805C29.6836 19.7594 29.2365 19.8681 28.8563 20.3131C28.6217 20.5878 28.5009 20.9111 28.4206 21.2519C28.3532 21.5376 28.3218 21.8275 28.3212 22.1202C28.3202 22.5421 28.3204 22.964 28.3206 23.3858C28.3206 23.5574 28.3207 23.729 28.3207 23.9006V23.9872H27.5017V19.2316H28.319V20.0224C28.3387 19.995 28.3569 19.9687 28.3743 19.9434C28.4099 19.8917 28.4426 19.8442 28.4803 19.8008C28.8307 19.3974 29.2625 19.1445 29.8241 19.1487C30.0429 19.1503 30.2562 19.1892 30.4508 19.295V19.3224L30.417 19.4548Z"
    fill="#5461C8" style="fill:#5461C8;fill:color(display-p3 0.3294 0.3804 0.7843);fill-opacity:1;" />
  <path fill-rule="evenodd" clip-rule="evenodd"
    d="M20.4885 21.7413H17.0793C17.0958 22.068 17.1613 22.3747 17.3179 22.6567C17.416 22.8332 17.5368 22.9903 17.7074 23.1029C17.9427 23.2583 18.204 23.3035 18.4789 23.2894C18.792 23.2734 19.0798 23.1929 19.3065 22.9555C19.4456 22.8099 19.5562 22.6453 19.6433 22.4637C19.6501 22.4494 19.6571 22.4352 19.6648 22.4195L19.6779 22.3926L20.3646 22.6937C20.3481 22.7246 20.3322 22.7553 20.3164 22.7857C20.2823 22.8512 20.2488 22.9157 20.212 22.978C20.0268 23.2916 19.7983 23.5639 19.479 23.7471C19.2509 23.8779 19.0026 23.9458 18.7448 23.9764C18.4763 24.0083 18.2069 24.0129 17.9402 23.9571C17.3908 23.8421 16.9642 23.5478 16.6723 23.0602C16.4541 22.6958 16.3346 22.2993 16.2976 21.8763C16.249 21.3206 16.323 20.7857 16.5662 20.2804C16.8242 19.7441 17.223 19.3691 17.8021 19.2211C18.4096 19.0658 18.9952 19.1282 19.5389 19.46C19.9207 19.6931 20.1608 20.0449 20.3219 20.4568C20.4413 20.7618 20.4903 21.0803 20.4886 21.4075C20.4882 21.4808 20.4883 21.5542 20.4884 21.6309C20.4885 21.6668 20.4885 21.7035 20.4885 21.7413ZM19.6686 21.0281C19.5258 20.3143 19.0788 19.7961 18.2624 19.8587C17.9477 19.8828 17.6784 20.0092 17.4723 20.2566C17.2867 20.4794 17.178 20.738 17.1253 21.0281H19.6686Z"
    fill="#5461C8" style="fill:#5461C8;fill:color(display-p3 0.3294 0.3804 0.7843);fill-opacity:1;" />
  <path
    d="M9.55078 23.9999H10.3377V23.9144C10.3377 23.738 10.3372 23.5615 10.3368 23.385C10.3358 22.9459 10.3348 22.5068 10.3401 22.0678C10.3432 21.8193 10.3621 21.5696 10.3948 21.3233C10.4388 20.9919 10.5464 20.6793 10.7344 20.3994C10.9194 20.1239 11.1522 19.915 11.4971 19.8763C11.8928 19.8319 12.2241 19.9879 12.3208 20.4235C12.3561 20.5823 12.3669 20.7494 12.3676 20.9128C12.3705 21.6381 12.3703 22.3634 12.37 23.0888C12.3699 23.3612 12.3697 23.6336 12.3698 23.906C12.3698 23.9271 12.3712 23.9482 12.3726 23.9691C12.3732 23.9787 12.3739 23.9883 12.3744 23.9979H13.1644V23.9194C13.1644 23.7388 13.164 23.5582 13.1636 23.3776C13.1625 22.9243 13.1615 22.471 13.167 22.0178C13.1699 21.7764 13.1886 21.5333 13.2239 21.2945C13.2823 20.8999 13.4222 20.5355 13.6861 20.2283C13.9018 19.9772 14.1721 19.8484 14.505 19.8713C14.7792 19.8902 14.9835 20.0177 15.0956 20.2777C15.1742 20.46 15.1896 20.6533 15.1898 20.8483C15.1904 21.6093 15.1903 22.3703 15.1902 23.1314C15.1902 23.3932 15.1902 23.6551 15.1902 23.917V23.999H15.9784C15.9788 23.9914 15.9793 23.9842 15.9797 23.9772C15.9807 23.9628 15.9815 23.9493 15.9815 23.9359C15.9816 23.6789 15.9817 23.422 15.9819 23.165C15.9824 22.3213 15.9829 21.4775 15.9791 20.6338C15.9783 20.4637 15.9589 20.2905 15.9223 20.1244C15.8425 19.7625 15.6552 19.4677 15.3174 19.2961C14.9386 19.1037 14.5404 19.102 14.142 19.2224C13.6943 19.3578 13.3783 19.6609 13.141 20.0556C13.1314 20.0716 13.1217 20.0875 13.1104 20.1063C13.1049 20.1153 13.099 20.1249 13.0926 20.1355C13.089 20.1228 13.0859 20.1118 13.0831 20.102C13.078 20.0839 13.074 20.0697 13.0697 20.0557C12.9538 19.6796 12.7324 19.3945 12.362 19.2449C12.0749 19.1289 11.7761 19.1174 11.4764 19.1811C10.9818 19.2862 10.6303 19.5849 10.383 20.0186C10.3753 20.0322 10.3675 20.0459 10.3598 20.0595C10.3561 20.066 10.3524 20.0726 10.3488 20.0791L10.3354 20.0738V19.2314H9.55078V23.9999Z"
    fill="#5461C8" style="fill:#5461C8;fill:color(display-p3 0.3294 0.3804 0.7843);fill-opacity:1;" />
  <path
    d="M20 43C20 43 20 43 20 43C20.3555 42.9892 20.7094 42.909 21.0423 42.7594C28.8372 39.2562 34.2371 33.6374 35.5424 26.2569C36.5088 20.7924 36.109 15.277 35.7915 12.5133C35.6614 11.3812 34.9095 10.4554 33.8804 10.0668L20.9657 5.19062C20.6533 5.0727 20.3272 5.00917 20 5C20 5 20 5 20 5L20 43Z"
    fill="#090B14" fill-opacity="0.02"
    style="fill:#090B14;fill:color(display-p3 0.0368 0.0416 0.0800);fill-opacity:0.02;" />
  <defs>
    <filter id="filter0_ddddd_324_26835" x="2.89961" y="4.05" width="34.2008" height="41.8"
      filterUnits="userSpaceOnUse" color-interpolation-filters="sRGB">
      <feFlood flood-opacity="0" result="BackgroundImageFix" />
      <feColorMatrix in="SourceAlpha" type="matrix"
        values="0 0 0 0 0 0 0 0 0 0 0 0 0 0 0 0 0 0 127 0" result="hardAlpha" />
      <feOffset dy="1.9" />
      <feGaussianBlur stdDeviation="0.475" />
      <feColorMatrix type="matrix"
        values="0 0 0 0 0.0368 0 0 0 0 0.0416413 0 0 0 0 0.08 0 0 0 0.09 0" />
      <feBlend mode="normal" in2="BackgroundImageFix" result="effect1_dropShadow_324_26835" />
      <feColorMatrix in="SourceAlpha" type="matrix"
        values="0 0 0 0 0 0 0 0 0 0 0 0 0 0 0 0 0 0 127 0" result="hardAlpha" />
      <feOffset dy="0.95" />
      <feColorMatrix type="matrix"
        values="0 0 0 0 0.0368 0 0 0 0 0.0416413 0 0 0 0 0.08 0 0 0 0.05 0" />
      <feBlend mode="normal" in2="effect1_dropShadow_324_26835"
        result="effect2_dropShadow_324_26835" />
      <feColorMatrix in="SourceAlpha" type="matrix"
        values="0 0 0 0 0 0 0 0 0 0 0 0 0 0 0 0 0 0 127 0" result="hardAlpha" />
      <feOffset dy="-0.95" />
      <feComposite in2="hardAlpha" operator="out" />
      <feColorMatrix type="matrix"
        values="0 0 0 0 0.0368 0 0 0 0 0.0416413 0 0 0 0 0.08 0 0 0 0.05 0" />
      <feBlend mode="normal" in2="effect2_dropShadow_324_26835"
        result="effect3_dropShadow_324_26835" />
      <feColorMatrix in="SourceAlpha" type="matrix"
        values="0 0 0 0 0 0 0 0 0 0 0 0 0 0 0 0 0 0 127 0" result="hardAlpha" />
      <feOffset dx="0.95" />
      <feComposite in2="hardAlpha" operator="out" />
      <feColorMatrix type="matrix"
        values="0 0 0 0 0.0352941 0 0 0 0 0.0431373 0 0 0 0 0.0784314 0 0 0 0.05 0" />
      <feBlend mode="normal" in2="effect3_dropShadow_324_26835"
        result="effect4_dropShadow_324_26835" />
      <feColorMatrix in="SourceAlpha" type="matrix"
        values="0 0 0 0 0 0 0 0 0 0 0 0 0 0 0 0 0 0 127 0" result="hardAlpha" />
      <feOffset dx="-0.95" />
      <feComposite in2="hardAlpha" operator="out" />
      <feColorMatrix type="matrix"
        values="0 0 0 0 0.0352941 0 0 0 0 0.0431373 0 0 0 0 0.0784314 0 0 0 0.05 0" />
      <feBlend mode="normal" in2="effect4_dropShadow_324_26835"
        result="effect5_dropShadow_324_26835" />
      <feBlend mode="normal" in="SourceGraphic" in2="effect5_dropShadow_324_26835" result="shape" />
    </filter>
    <linearGradient id="paint0_linear_324_26835" x1="33.3092" y1="6.44023" x2="11.2122" y2="44.8299"
      gradientUnits="userSpaceOnUse">
      <stop stop-color="white" stop-opacity="0.03" style="stop-color:white;stop-opacity:0.03;" />
      <stop offset="0.500255" stop-color="#E1E4EC" stop-opacity="0.11"
        style="stop-color:#E1E4EC;stop-color:color(display-p3 0.8824 0.8941 0.9255);stop-opacity:0.11;" />
      <stop offset="1" stop-color="#D4DAE5" stop-opacity="0.56"
        style="stop-color:#D4DAE5;stop-color:color(display-p3 0.8314 0.8549 0.8980);stop-opacity:0.56;" />
    </linearGradient>
  </defs>
</svg>
  