<svg
  width="100%"
  height="100%"
  viewBox="0 0 40 40"
  xmlns="http://www.w3.org/2000/svg">
  <path fill="url(#cmd_a)" d="M0 0h40v40H0z" />
  <path fill="#1E202E"
    d="m23.667 30.047-.001.03v1.747c0 .39.334.698.723.656.186-.021.372-.043.555-.068.84-.111 1.681-.27 2.42-.498.7-.218 1.494-.553 2.068-1.128.546-.548.885-1.27 1.112-1.948.235-.7.395-1.493.507-2.303.225-1.62.282-3.482.282-5.175l-.003-.644c-.016 1.492-.085 3.067-.278 4.463-.113.81-.273 1.602-.507 2.302-.227.68-.566 1.4-1.112 1.948-.574.575-1.368.91-2.067 1.128-.74.23-1.581.387-2.421.499-.183.024-.369.046-.556.067a.655.655 0 0 1-.722-.656v-.42ZM23.667 10.866l-.001.03v1.747c0 .343.262.63.603.67l.272.035c.748.1 1.403.229 1.915.388.255.079.45.158.595.231a1.382 1.382 0 0 1 .197.122l.01.008.002.002c.066.067.216.278.376.757.153.456.28 1.046.378 1.75.17 1.226.235 2.667.249 4.108.002-.237.004-.474.004-.71 0-1.65-.058-3.346-.253-4.754-.098-.704-.224-1.294-.377-1.751-.16-.478-.31-.69-.377-.757l-.002-.002-.01-.008a1.406 1.406 0 0 0-.197-.122 3.83 3.83 0 0 0-.594-.231c-.512-.159-1.167-.288-1.915-.388l-.272-.034a.68.68 0 0 1-.603-.67v-.421Z" />
  <path fill="#1E202E"
    d="m23.667 30.047-.001.03v1.747c0 .39.334.698.723.655.186-.02.372-.042.555-.067.84-.111 1.681-.27 2.42-.499.7-.217 1.494-.552 2.068-1.128.546-.547.885-1.268 1.112-1.947.235-.7.395-1.493.507-2.303.225-1.62.282-3.482.282-5.175l-.003-.644c-.016 1.492-.085 3.067-.278 4.462-.113.81-.273 1.603-.507 2.303-.227.68-.566 1.4-1.112 1.948-.574.575-1.368.91-2.067 1.128-.74.23-1.581.387-2.421.499-.183.024-.369.046-.556.067a.655.655 0 0 1-.722-.656v-.42Zm0-19.181-.001.03v1.747c0 .343.262.63.603.67l.272.035c.748.1 1.403.229 1.915.388.255.079.45.158.595.231a1.382 1.382 0 0 1 .197.122l.01.008.002.002c.066.067.216.278.376.757.153.456.28 1.046.378 1.75.17 1.226.235 2.667.249 4.108.002-.237.004-.474.004-.71 0-1.65-.058-3.346-.253-4.754-.098-.704-.224-1.294-.377-1.751-.16-.478-.31-.69-.377-.757l-.002-.002-.01-.008a1.406 1.406 0 0 0-.197-.122 3.83 3.83 0 0 0-.594-.231c-.512-.159-1.167-.288-1.915-.388l-.272-.034a.68.68 0 0 1-.603-.67v-.421ZM8.67 20.653c.017 1.518.099 3.121.309 4.54.12.81.288 1.601.528 2.3.233.678.575 1.393 1.117 1.936.574.575 1.368.91 2.067 1.128.74.23 1.581.387 2.421.499.165.021.33.042.498.06a.654.654 0 0 0 .723-.625v1.326c0 .392-.335.7-.724.656a25.426 25.426 0 0 1-.498-.06c-.84-.112-1.68-.27-2.42-.5-.7-.217-1.494-.552-2.068-1.128-.541-.543-.884-1.258-1.116-1.935-.24-.699-.409-1.49-.529-2.301-.24-1.622-.312-3.487-.312-5.189 0-.233.001-.469.004-.707Zm7.663-9.33v1.326a.68.68 0 0 1-.602.671 19.94 19.94 0 0 0-.216.028c-.748.1-1.403.229-1.915.388-.255.079-.451.158-.595.231a1.406 1.406 0 0 0-.198.122l-.009.008-.003.003c-.07.071-.223.288-.389.768-.157.458-.29 1.05-.394 1.752-.179 1.206-.256 2.622-.275 4.035a54.56 54.56 0 0 1-.004-.652c0-1.64.071-3.333.28-4.74.104-.702.236-1.293.394-1.752.165-.48.318-.697.389-.768l.003-.003.01-.008a1.397 1.397 0 0 1 .197-.122c.143-.073.34-.152.594-.231.513-.159 1.167-.288 1.915-.388.072-.01.144-.018.217-.027a.68.68 0 0 0 .6-.641Z" />
  <path fill="#fff"
    d="M16.334 9.546c0-.391-.335-.7-.724-.655-.167.018-.333.039-.498.06-.84.112-1.68.27-2.42.5-.7.216-1.494.552-2.068 1.127-.541.543-.884 1.258-1.117 1.936-.24.698-.408 1.49-.528 2.3-.24 1.623-.312 3.487-.312 5.19 0 1.702.072 3.566.312 5.189.12.81.288 1.602.529 2.3.232.678.575 1.393 1.116 1.936.574.575 1.369.91 2.068 1.128.74.23 1.58.387 2.42.499.165.022.33.042.498.06a.654.654 0 0 0 .724-.655v-1.747a.68.68 0 0 0-.602-.67 19.653 19.653 0 0 1-.216-.028c-.749-.1-1.403-.23-1.915-.388a3.82 3.82 0 0 1-.595-.232 1.38 1.38 0 0 1-.197-.121l-.01-.008-.002-.003c-.071-.07-.225-.288-.39-.768-.157-.459-.29-1.05-.394-1.753-.209-1.406-.28-3.099-.28-4.74 0-1.64.071-3.333.28-4.739.104-.703.237-1.294.395-1.753.165-.48.317-.696.388-.768l.003-.002.01-.009a1.397 1.397 0 0 1 .197-.121c.144-.074.34-.153.595-.232.512-.159 1.166-.288 1.915-.388.071-.01.143-.018.216-.027a.68.68 0 0 0 .602-.671V9.546Zm7.333 19.175a.68.68 0 0 1 .603-.671c.091-.01.182-.022.272-.034.748-.1 1.403-.23 1.915-.388a3.81 3.81 0 0 0 .595-.232 1.377 1.377 0 0 0 .197-.121l.01-.008.003-.003c.066-.067.215-.278.375-.756.153-.457.28-1.047.378-1.75.195-1.41.252-3.104.252-4.755 0-1.65-.057-3.345-.252-4.753-.098-.704-.225-1.294-.378-1.75-.16-.48-.31-.69-.376-.757l-.002-.002-.01-.009a1.406 1.406 0 0 0-.197-.121 3.83 3.83 0 0 0-.595-.232c-.512-.159-1.167-.288-1.915-.388l-.272-.034a.68.68 0 0 1-.603-.67V9.54c0-.39.334-.699.723-.656.186.02.372.043.555.067.84.112 1.681.27 2.42.5.7.216 1.495.552 2.068 1.127.546.548.885 1.269 1.112 1.948.235.7.395 1.492.507 2.303.225 1.62.282 3.482.282 5.174 0 1.693-.057 3.555-.282 5.176-.112.81-.272 1.602-.507 2.302-.227.68-.566 1.4-1.112 1.948-.573.575-1.368.91-2.067 1.128-.74.23-1.58.387-2.42.499-.184.024-.37.046-.556.067a.655.655 0 0 1-.723-.656v-1.746Z" />
  <defs>
    <linearGradient id="cmd_a" x1="20" x2="20" y1="0" y2="40" gradientUnits="userSpaceOnUse">
      <stop stop-color="#4E5161" />
      <stop offset="1" stop-color="#1E202E" />
    </linearGradient>
  </defs>
</svg>