<svg
  id="meter"
  width="100%"
  height="100%"
  viewBox="0 0 64 64"
  xmlns="http://www.w3.org/2000/svg">
  <path fill="#fff" d="M0 0h64v64H0V0Z" />
  <path fill="url(#meter_a)" d="M0 0h64v64H0V0Z" />
  <path fill="#5461C8"
    d="M41.972 18.434c5.106 0 8.028 3.065 8.028 8.406v18.73h-4.824V29.25c0-5.06-2.003-6.412-4.686-6.412-3.695 0-6.08 4.002-6.08 10.854V45.57h-4.824V29.25c0-4.736-1.764-6.412-4.715-6.412-3.725 0-6.05 4.325-6.05 10.854V45.57H14V18.85h4.824v4.202c1.638-3.06 4.3-4.622 7.772-4.622 3.473 0 6.32 1.851 7.302 5.11 1.444-3.128 4.404-5.11 8.074-5.11" />
  <defs>
    <linearGradient id="meter_a" x1="58.372" x2="24.392" y1="2.426" y2="71.878"
      gradientUnits="userSpaceOnUse">
      <stop stop-color="#fff" stop-opacity=".03" />
      <stop offset=".5" stop-color="#EFF1FF" stop-opacity=".11" />
      <stop offset="1" stop-color="#EFF1FF" stop-opacity=".9" />
    </linearGradient>
  </defs>
</svg>