<?xml version="1.0" encoding="UTF-8"?>
<svg id="Layer_1" xmlns="http://www.w3.org/2000/svg" width="336.4" height="61.3" version="1.1" viewBox="0 0 336.4 61.3">
<defs> <style>
  .fill {
    fill: #000; /* default light mode */
  }
  
  @media (prefers-color-scheme: dark) {
    .fill {
      fill: #fff;
    }
  }
</style>
</defs>
  <path class="fill" d="M184.2,12.5c-1.5-2.5-3.6-4.4-6.3-5.7-2.7-1.3-5.6-2-8.9-2h-21.7v51.8h11.6v-18.9h10.1c3.3,0,6.2-.7,8.9-2,2.7-1.3,4.8-3.2,6.3-5.7,1.5-2.5,2.3-5.4,2.3-8.8s-.8-6.4-2.3-8.8ZM173.9,25.4c-.7,1.1-1.6,2-2.8,2.5-1.1.6-2.4.8-3.9.8h-8.4v-14.9h8.4c1.4,0,2.7.3,3.9.8,1.1.6,2.1,1.4,2.8,2.5.7,1.1,1,2.5,1,4.1s-.3,2.9-1,4Z" fill="#231f20"/>
  <path class="fill" d="M290.6,20.1c-1.3-3.3-3.3-6.1-5.8-8.5-2.5-2.4-5.4-4.3-8.7-5.6-3.3-1.3-6.9-2-10.7-2s-7.5.7-10.9,2c-3.3,1.3-6.2,3.2-8.7,5.6-2.4,2.4-4.4,5.2-5.7,8.5-1.4,3.2-2.1,6.7-2.1,10.6s.7,7.3,2.1,10.5c1.4,3.3,3.3,6.1,5.8,8.5,2.5,2.4,5.4,4.4,8.7,5.7,3.3,1.4,6.9,2.1,10.9,2.1s7.4-.7,10.7-2.1c3.3-1.4,6.1-3.3,8.6-5.7,2.4-2.4,4.4-5.3,5.7-8.5,1.4-3.3,2.1-6.8,2.1-10.5s-.7-7.3-2-10.6ZM278.9,39.2c-1.3,2.4-3.1,4.4-5.4,5.7-2.3,1.4-5,2.1-8.1,2.1s-4.4-.4-6.3-1.1c-1.9-.8-3.5-1.9-4.9-3.3-1.4-1.4-2.4-3.2-3.2-5.2-.7-2-1.1-4.2-1.1-6.7s.6-6.1,1.9-8.5c1.3-2.4,3.1-4.3,5.4-5.6,2.3-1.3,5-2,8.1-2s4.3.4,6.2,1.1c1.9.8,3.5,1.9,4.9,3.3,1.4,1.4,2.4,3.2,3.2,5.1.7,2,1.1,4.2,1.1,6.6s-.6,6.1-1.9,8.5Z" fill="#231f20"/>
  <path class="fill" d="M330.3,26.8l-.3.2c-5.6,1.8-9.5.5-12.8-4.4l-1-1.5c-.7-1.1-1.4-2.2-2.2-3.2-2.6-3.8-6.8-6.3-11.4-6.8-1.7-.3-3.5-.1-5.2.4,3.2,5.5,5,11.8,5,18.6s-2.2,14.3-5.9,20.1c6.4,1.3,14.4-.3,18.4-4.6-.2,0-.5-.1-.7-.2-2.7-.5-4.6-2.9-4.5-5.7,0-2.8,1.5-4.3,4.7-4.7,1.1-.2,2.3-.2,3.5-.2h.4c2.7,0,5.2-.7,7.4-2.2,2.2-1.4,3.9-3.4,4.9-5.7h-.3Z"/>
  <path class="fill" d="M225.6,45.7c-2,.8-4.3,1.2-6.9,1.2s-4.3-.4-6.2-1.1c-1.9-.8-3.5-1.9-4.8-3.3-1.4-1.4-2.4-3.2-3.2-5.1-.7-2-1.1-4.2-1.1-6.6s.4-4.5,1.1-6.5c.7-2,1.8-3.7,3.2-5.1,1.4-1.4,3-2.5,4.8-3.3,1.9-.8,3.9-1.1,6.2-1.1s4.8.4,6.7,1.2c1.8.8,3.4,1.9,4.7,3.2,1.1-3.6,2.8-7,4.9-10.1-1.6-1.2-3.4-2.2-5.3-3-3.2-1.3-6.9-2-11-2s-7.5.7-10.8,2c-3.3,1.3-6.2,3.2-8.6,5.6-2.5,2.4-4.4,5.2-5.8,8.5-1.4,3.3-2.1,6.8-2.1,10.5s.7,7.3,2.1,10.5c1.4,3.3,3.3,6.1,5.8,8.5,2.5,2.4,5.4,4.3,8.7,5.7,3.3,1.3,6.9,2,10.7,2s8-.6,11.2-1.9c2.1-.9,4.1-2,5.9-3.3-2.2-3-4-6.3-5.3-9.9-1.4,1.5-3,2.6-4.9,3.4Z" fill="#231f20"/>
  <path class="fill" d="M4.8,26.8l.3.2c5.6,1.8,9.5.5,12.8-4.4l1-1.5c.7-1.1,1.4-2.2,2.2-3.2,2.6-3.8,6.8-6.3,11.4-6.8,1.7-.3,3.5-.1,5.2.4-3.2,5.5-5,11.8-5,18.6s2.2,14.3,5.9,20.1c-6.4,1.3-14.4-.3-18.4-4.6.2,0,.5-.1.7-.2,2.7-.5,4.6-2.9,4.5-5.7,0-2.8-1.5-4.3-4.7-4.7-1.1-.2-2.3-.2-3.5-.2h-.4c-2.7,0-5.2-.7-7.4-2.2-2.2-1.4-3.9-3.4-4.9-5.7h.3Z"/>
  <path class="fill" d="M75.6,45.7c-2,.8-4.3,1.2-6.9,1.2s-4.3-.4-6.2-1.1c-1.9-.8-3.5-1.9-4.8-3.3-1.4-1.4-2.4-3.2-3.2-5.1-.7-2-1.1-4.2-1.1-6.6s.4-4.5,1.1-6.5c.7-2,1.8-3.7,3.2-5.1,1.4-1.4,3-2.5,4.8-3.3,1.9-.8,3.9-1.1,6.2-1.1s4.8.4,6.7,1.2c1.8.8,3.4,1.9,4.7,3.2,1.1-3.6,2.8-7,4.9-10.1-1.6-1.2-3.4-2.2-5.3-3-3.2-1.3-6.9-2-11-2s-7.5.7-10.8,2c-3.3,1.3-6.2,3.2-8.6,5.6-2.5,2.4-4.4,5.2-5.8,8.5-1.4,3.3-2.1,6.8-2.1,10.5s.7,7.3,2.1,10.5c1.4,3.3,3.3,6.1,5.8,8.5,2.5,2.4,5.4,4.3,8.7,5.7,3.3,1.3,6.9,2,10.7,2s8-.6,11.2-1.9c2.1-.9,4.1-2,5.9-3.3-2.2-3-4-6.3-5.3-9.9-1.4,1.5-3,2.6-4.9,3.4Z" fill="#231f20"/>
  <path class="fill" d="M138.6,30.9s0,0,0,0c0-14.2-11.5-25.7-25.7-25.7s-25.7,11.5-25.7,25.7,11.5,25.7,25.7,25.7,10.3-1.6,14.4-4.4v4.5s11.3,0,11.3,0v-25.7s0,0,0,0ZM113,46.6c-8.8,0-15.8-7.1-15.8-15.8s7.1-15.8,15.8-15.8,15.8,7.1,15.8,15.8-7.1,15.8-15.8,15.8Z"/>
</svg>