<svg xmlns="http://www.w3.org/2000/svg" width="512"  version="1.1" viewBox="0 0 512 164.3">
<defs>
  <style>
    .fill {fill: #000000}
.dark .fill {#ffffff}
 #animated-path {
    stroke-dasharray: 1000;

    stroke-dashoffset: 1000;
    animation: draw 3s ease-in-out forwards;
  }

  @keyframes draw {
    to {
      stroke-dashoffset: 0;
    }
  }

  /* Optional: Add fill after drawing completes */
  #animated-path {
    animation: draw 3s ease-in-out forwards, 
               fill-in 3.5s 3.5s ease-in-out forwards;
  }

  @keyframes fill-in {
    from {
opacity: 0;
fill: currentColor;
      stroke: none;

    }
    to {
      opacity: 1;
fill: currentColor;
      stroke: none;

    }
  }
  </style>
</defs>
   <path 
    id="animated-path" 
    d="M65.5,17.1L9.2,49.6v65l56.3,32.5,26.1-15.1-7.6-10.3-18.6,10.7-43.6-25.2v-50.3l43.6-25.2,43.6,25.2v50.3l-6.2,3.6c-6.3-8.2-15.4-20.1-15.9-20.7,6.9-1.6,10.7-7.4,10.7-14,0-13.1-13.4-16-23.3-16h-27.9l-10,12.9h39.8c3.6,0,5.6,1.2,5.6,4s-2,4.2-5.6,4.2h-39.9v23.1h15.2v-10.9h19.9l12.8,16.8,6.1,8,7.8,10.2,23.5-13.5V49.6l-56.3-32.5h.2Z"
    fill="none"
    stroke="currentColor"
    stroke-width="2"
    stroke-linecap="round"
    stroke-linejoin="round"
  />
  <g>
    <path d="M168.6,53.8v21.6h-14.3V14.2h32.1c3.5,0,6.4,1.1,8.6,3.4,2.2,2.3,3.3,5.2,3.3,8.7v15.5c0,2.6-.7,4.9-2,7-1.4,2.1-3.2,3.5-5.5,4.3l9.3,22.5-15.1-.2-8.8-21.6h-7.6ZM184,38.6v-9.2c0-1.1-.6-1.7-1.8-1.7h-13.7v12.6h13.7c1.2,0,1.8-.6,1.8-1.7Z"/>
    <path d="M242.5,75.8h-21.4c-3.6,0-6.5-1.1-8.7-3.4s-3.3-5.1-3.4-8.6V25.9c0-3.5,1.1-6.4,3.4-8.7,2.3-2.3,5.2-3.4,8.6-3.4h21.4c3.5,0,6.3,1.1,8.6,3.4,2.2,2.3,3.3,5.2,3.3,8.7v37.9c0,3.5-1.1,6.4-3.2,8.6s-5,3.4-8.6,3.4ZM223.3,29.2v31.3c0,1.1.6,1.7,1.8,1.7h13.2c1.2,0,1.8-.6,1.8-1.7v-31.3c0-1.1-.6-1.7-1.8-1.7h-13.2c-1.2,0-1.8.6-1.8,1.7Z"/>
    <path d="M306.3,27.9h-15.2v47.7h-14.3V27.9h-15.2v-13.5h44.7v13.5Z"/>
    <path d="M315.8,75.5V14.3h14.3v23.2h17.9V14.3h14.3v61.2h-14.3v-24.5h-17.9v24.5h-14.3Z"/>
    <path d="M406.8,75.8h-20.2c-3.6,0-6.4-1.1-8.7-3.4-2.2-2.2-3.3-5.1-3.4-8.6V25.9c0-3.5,1.1-6.4,3.4-8.7,2.3-2.3,5.1-3.4,8.6-3.4h20.2c3.5,0,6.4,1.1,8.6,3.4,2.3,2.3,3.4,5.2,3.4,8.7v11h-14.3v-7.9c0-1.1-.6-1.7-1.8-1.7h-12.1c-1.2,0-1.8.6-1.8,1.7v31.5c0,1.1.6,1.7,1.8,1.7h12.1c1.2,0,1.8-.6,1.8-1.7v-7.8h14.3v11c0,3.5-1.1,6.4-3.4,8.6-2.2,2.2-5.1,3.4-8.7,3.4Z"/>
    <path d="M462.1,75.8h-21.4c-3.6,0-6.5-1.1-8.7-3.4-2.2-2.2-3.3-5.1-3.4-8.6V25.9c0-3.5,1.1-6.4,3.4-8.7,2.3-2.3,5.2-3.4,8.6-3.4h21.4c3.5,0,6.3,1.1,8.6,3.4,2.2,2.3,3.3,5.2,3.3,8.7v37.9c0,3.5-1.1,6.4-3.2,8.6s-5,3.4-8.6,3.4ZM442.9,29.2v31.3c0,1.1.6,1.7,1.8,1.7h13.2c1.2,0,1.8-.6,1.8-1.7v-31.3c0-1.1-.6-1.7-1.8-1.7h-13.2c-1.2,0-1.8.6-1.8,1.7Z"/>
    <path d="M192.6,104.5v7.9c0,3.6-1.6,6.3-4.7,8.2,3.5,1.8,5.3,4.5,5.3,8.2v9c0,3.1-1,5.7-3,7.7-2,2-4.6,3-7.7,3h-29v-54.7h28.3c3.1-.1,5.7.9,7.7,2.9s3,4.6,3,7.8ZM179.8,113.4v-6.1c0-1-.5-1.5-1.6-1.5h-12v9.3h12.1c.6,0,1-.2,1.2-.3.2-.1.3-.6.3-1.3ZM180.5,135v-7.5c0-.5-.1-.8-.3-1.1s-.3-.4-.4-.4h-13.5v10.4h12.6c1.1,0,1.6-.4,1.6-1.5Z"/>
    <path d="M231.9,148.8h-18.2c-3.2,0-5.8-1-7.8-3-2-2-3-4.6-3-7.7v-44.3h12.8v41.4c0,1,.5,1.5,1.6,1.5h10.9c1.1,0,1.6-.5,1.6-1.5v-41.4h12.6v44.3c.1,3.1-.9,5.7-2.8,7.7-2,2-4.6,3-7.8,3Z"/>
    <path d="M254.3,148.5v-54.7h12.8v54.7h-12.8Z"/>
    <path d="M279.4,93.8h12.8v42.6h21.8v12.1h-34.5v-54.7Z"/>
    <path d="M358.7,105.9h-13.6v42.6h-12.8v-42.6h-13.6v-12.1h40v12.1Z"/>
  </g>
</svg>