<svg
  id="swiftworks"
  width="100%"
  height="100%"
  viewBox="0 0 64 64"
  xmlns="http://www.w3.org/2000/svg">
  <path fill="#fff" d="M0 0h64v64H0V0Z" />
  <path fill="#1B43CB"
    d="M13.206 18.873c3.307-1.143 6.735-1.143 10.102-.12 2.706.841 4.39 2.705 5.112 5.532 1.022 4.33 2.105 8.659 3.187 12.928 0 .12.06.24.3.36.241-1.081.542-2.224.782-3.366l3.067-14.794c.12-.54.301-.902.962-.902 1.444.06 2.947 0 4.39 0 .601 0 .842.241.962.843 1.142 5.832 2.345 11.605 3.548 17.438.06.24.12.481.421.722.541-2.285 1.142-4.51 1.684-6.795.781-3.247 1.563-6.495 2.405-9.742.421-1.744 1.263-2.405 3.007-2.466h3.127c-.06.421-.121.783-.181 1.083-2.405 8.479-4.81 16.958-7.216 25.496-.18.662-.48.962-1.142.902a28.188 28.188 0 0 0-3.187 0c-.662.06-.963-.24-1.083-.841-.722-2.646-1.443-5.292-2.225-7.938-.18-.541-.06-.842.361-1.202 1.323-1.263 1.623-3.008.782-4.57-.782-1.504-2.526-2.285-4.21-1.925-1.563.301-2.826 1.804-2.946 3.488-.06 1.082.3 2.165 1.142 2.886.541.481.602.902.361 1.563a181.54 181.54 0 0 0-2.165 7.637c-.18.602-.42.903-1.082.842a30.356 30.356 0 0 0-3.307 0c-.662 0-.963-.18-1.143-.842-1.744-6.133-3.488-12.267-5.171-18.4-1.203-3.608-5.052-5.292-8.66-3.428-2.044 1.083-2.284 3.789-.36 4.931 1.383.842 2.946 1.323 4.51 1.744 2.465.661 2.465.601 3.187 3.006.36 1.143.722 2.285.962 3.308-2.646-.722-5.292-1.443-7.938-2.285-1.142-.361-2.345-.782-3.427-1.383-2.827-1.443-4.21-3.789-3.849-7.036.36-3.187 1.804-5.592 4.931-6.674Z" />
  <path fill="#1B43CB"
    d="M12.966 36.972c.36 3.248 2.706 4.21 5.592 4.27 2.105.06 4.33 0 5.592-2.586.542 1.985 1.083 3.789 1.684 5.833-1.203.36-2.285.782-3.488 1.023-3.307.54-6.554.54-9.741-.722-3.187-1.263-5.232-4.57-4.811-7.818h5.172Z" />
</svg>