<?xml version="1.0" encoding="utf-8"?>
<!-- Generator: Adobe Illustrator 22.1.0, SVG Export Plug-In . SVG Version: 6.00 Build 0)  -->
<svg version="1.1" id="Layer_1" xmlns="http://www.w3.org/2000/svg" xmlns:xlink="http://www.w3.org/1999/xlink" x="0px" y="0px"
	 viewBox="0 0 8192 2989.7" style="enable-background:new 0 0 8192 2989.7;" xml:space="preserve">
<style type="text/css">
	.st0{fill:#CCCAD2;stroke:#000000;stroke-width:10;stroke-miterlimit:10;}
	.st1{display:none;}
	.st2{display:inline;}
	.st3{fill:none;stroke:#000000;stroke-width:10;stroke-miterlimit:10;}
	.st4{display:inline;fill:#FFFFFF;}
	.st5{fill:#CCCAD2;}
	.st6{fill:#FFFFFF;stroke:#000000;stroke-width:6;stroke-linecap:round;stroke-linejoin:round;stroke-miterlimit:10;}
	.st7{fill:#4D4D4D;}
	.st8{fill:#FFFFFF;}
	.st9{fill:none;stroke:#FFFFFF;stroke-width:4;stroke-miterlimit:10;}
	.st10{fill:#FCFAFB;}
	.st11{fill:#FCFCFC;}
	.st12{fill:none;stroke:#FFFFFF;stroke-width:9;stroke-miterlimit:10;}
	.st13{fill:none;stroke:#000000;stroke-width:6;stroke-linecap:round;stroke-linejoin:round;stroke-miterlimit:10;}
	.st14{fill:none;stroke:#000000;stroke-width:10;stroke-linecap:round;stroke-linejoin:round;stroke-miterlimit:10;}
	.st15{font-family:'Arial-BoldMT';}
	.st16{font-size:64.828px;}
	.st17{font-size:63.7802px;}
</style>
<g id="Layer_3">
	<polygon id="Tent_1_" class="st0" points="355.8,689.1 7830.5,689.1 7830.5,2274.2 925.9,2274.2 925.9,1351.1 355.8,1352.2 	"/>
</g>
<g id="Layer_5" class="st1">
	<g id="Tent_2_" class="st2">
		<polygon class="st3" points="722.9,2477.3 722.9,1554.6 152.7,1555.7 152.7,486.1 8033.6,486.1 8033.6,2477.3 		"/>
	</g>
	<rect x="7172.3" y="2317" class="st4" width="857.3" height="235.1"/>
</g>
<g id="Layer_1_1_">
	<g id="CALCS">
		<rect id="F01" x="6793.2" y="950.1" width="195.7" height="273.9"/>
		<rect id="G01" x="6577.9" y="950.1" width="215.3" height="211.4"/>
		<rect id="F03" x="6577.9" y="1159.4" width="215.3" height="64.7"/>
		<rect id="F05" x="6354.9" y="950.1" width="223" height="273.9"/>
		<rect id="D04" x="6356" y="1344.2" width="97.9" height="313"/>
		<rect id="D01" x="6805.9" y="1344.2" width="183.9" height="313"/>
		<rect id="D03" x="6453.8" y="1461.7" width="352.2" height="195.7"/>
		<rect id="E01" x="6453.8" y="1344.2" width="352.2" height="117.4"/>
		<rect id="C01" x="6440.1" y="1780" width="313" height="136.9"/>
		<rect id="B01" x="6440.1" y="1917" width="313" height="136.9"/>
		<rect id="B03" x="6361.8" y="1780" width="78.3" height="273.9"/>
		<rect id="A03" x="6753.1" y="1780" width="234.8" height="274"/>
		<rect id="A05" x="6354.5" y="2176.8" width="673" height="78.3"/>
		<polygon id="A01" points="7133.1,1863.8 7133.1,2176.8 7027.5,2176.8 7027.5,2255.1 7172.3,2255.1 7172.3,1863.8 		"/>
		<rect id="H00" x="6243.6" y="709.9" width="921.7" height="117.4"/>
		<rect id="H01" x="5891.4" y="709.9" width="352.2" height="117.4"/>
		<rect id="H03" x="5656.6" y="709.9" width="234.8" height="117.4"/>
		<rect id="H05" x="5421.8" y="709.9" width="234.8" height="117.4"/>
		<rect id="H07" x="5187" y="709.9" width="234.8" height="117.4"/>
		<rect id="H09" x="4839.5" y="709.9" width="234.8" height="117.4"/>
		<rect id="H11" x="4604.7" y="709.9" width="234.8" height="117.4"/>
		<rect id="H13" x="4260.3" y="709.9" width="344.3" height="117.4"/>
		<rect id="H15" x="4025.5" y="709.9" width="234.8" height="117.4"/>
		<rect id="H17" x="3616.1" y="709.9" width="297.4" height="117.4"/>
		<rect id="H19" x="3381.3" y="709.9" width="234.8" height="117.4"/>
		<rect id="H21" x="3146.5" y="709.9" width="234.8" height="117.4"/>
		<rect id="H23" x="2782.6" y="709.9" width="364" height="117.4"/>
		<rect id="H25" x="2469.6" y="709.9" width="234.8" height="117.4"/>
		<rect id="H27" x="2234.8" y="709.9" width="234.8" height="117.4"/>
		<rect id="H29" x="2086.1" y="709.9" width="148.7" height="117.4"/>
		<rect id="H30" x="1910" y="709.9" width="176.1" height="117.4"/>
		<rect id="H31" x="1659.5" y="709.9" width="250.4" height="117.4"/>
		<rect id="H33" x="1307.3" y="709.9" width="352.2" height="117.4"/>
		<rect id="H35" x="955.2" y="709.9" width="352.2" height="117.4"/>
		<rect x="955.2" y="997.5" width="156.5" height="90"/>
		<rect id="E31" x="955.2" y="1087.6" width="156.5" height="266.1"/>
		<rect id="C28" x="955.2" y="1353.7" width="156.5" height="330.2"/>
		<rect id="B40" x="955.2" y="1683.7" width="156.5" height="275.7"/>
		<polygon id="A35_2_" points="955.2,2076.8 955.2,2254.7 1385.7,2254.7 1385.7,2176.4 1111.8,2176.4 1111.8,2076.8 		"/>
		<rect id="G19" x="1252.9" y="950.1" width="352.2" height="117.4"/>
		<rect id="F37" x="1252.9" y="1067.5" width="352.2" height="156.5"/>
		<rect id="G18" x="1605.1" y="950.1" width="547.8" height="234.8"/>
		<rect id="F35" x="1605.1" y="1184.9" width="547.8" height="39.1"/>
		<rect id="G17" x="2152.8" y="950.1" width="195.7" height="215.3"/>
		<rect id="G15" x="2348.5" y="950.1" width="195.7" height="215.3"/>
		<rect id="F33" x="2152.8" y="1165.3" width="391.3" height="58.7"/>
		<rect id="F31" x="2544.2" y="950.1" width="250.4" height="273.9"/>
		<rect id="F29" x="2794.6" y="1145.8" width="266.1" height="78.3"/>
		<rect id="F27" x="3060.7" y="1145.8" width="352.2" height="78.3"/>
		<rect id="G13" x="2794.6" y="950.1" width="474.1" height="195.7"/>
		<rect id="F25" x="3412.8" y="1145.8" width="352.2" height="78.3"/>
		<rect id="G11" x="3268.7" y="950.1" width="571.1" height="195.7"/>
		<polygon id="F23" points="3918.2,1223.9 3918.2,950.1 3839.9,950.1 3839.9,1145.8 3765,1145.8 3765,1223.9 		"/>
		<polygon id="F21" points="4203.7,950.1 4090.3,950.1 4090.3,1223.9 4395.4,1223.9 4395.4,1106.5 4203.7,1106.5 		"/>
		<rect id="G09" x="4203.7" y="950.1" width="356.1" height="156.5"/>
		<rect id="F19" x="4395.4" y="1106.5" width="352.2" height="117.4"/>
		<rect id="G07" x="4559.8" y="950.1" width="187.8" height="156.5"/>
		<rect id="F17" x="4747.6" y="1173.1" width="313" height="50.8"/>
		<rect id="G05" x="4747.6" y="950.1" width="313" height="223"/>
		<rect id="F13" x="5197.4" y="1067.3" width="371.9" height="156.8"/>
		<polygon id="F15" points="5060.6,950.1 5060.6,1223.9 5197.4,1223.9 5197.4,1067.3 5433.6,1067.3 5433.6,950.1 		"/>
		<rect id="G03" x="5804.1" y="950.1" width="352.2" height="117.5"/>
		<polygon id="F11" points="5433.6,950.1 5433.6,1067.3 5569.4,1067.3 5569.4,1223.9 5827.7,1223.9 5827.7,1067.6 5804.1,1067.6 
			5804.1,950.1 		"/>
		<rect id="F09" x="5828.8" y="1067.4" width="268.8" height="156.7"/>
		<polygon id="F07" points="6234.6,950.1 6234.6,1223.9 6097.7,1223.9 6097.7,1067.4 6156.3,1067.4 6156.3,950.1 		"/>
		<rect id="A07" x="5897.4" y="2176.8" width="352.2" height="78.3"/>
		<rect id="A09" x="5692" y="2176.8" width="205.4" height="78.3"/>
		<rect id="A10" x="5486.6" y="2176.8" width="205.4" height="78.3"/>
		<rect id="A11" x="5134.4" y="2176.8" width="352.2" height="78.3"/>
		<rect id="A13" x="4702.5" y="2176.8" width="340.4" height="78.3"/>
		<rect id="A15" x="4362" y="2176.8" width="340.4" height="78.3"/>
		<rect id="A17" x="4009.8" y="2176.8" width="352.2" height="78.3"/>
		<rect id="A19" x="3707.5" y="2176.8" width="215.3" height="78.3"/>
		<rect id="A21" x="3492.4" y="2176.8" width="215.3" height="78.3"/>
		<rect id="A23" x="3140.2" y="2176.8" width="352.2" height="78.3"/>
		<rect id="A25" x="2788" y="2176.8" width="352.2" height="78.3"/>
		<rect id="A27" x="2351.3" y="2176.8" width="352.2" height="78.3"/>
		<rect id="A29" x="2046.1" y="2176.8" width="305.2" height="78.3"/>
		<rect id="A31" x="1701.9" y="2176.8" width="344.3" height="78.3"/>
		<rect id="A33" x="1490.5" y="2176.8" width="211.4" height="77.9"/>
		<polygon id="A35" points="1385.7,2254.7 955.2,2254.7 955.2,2076.8 1111.8,2076.8 1111.8,2176.4 1385.7,2176.4 		"/>
		<rect id="C27" x="1241" y="1780" width="238.7" height="117.4"/>
		<rect id="B39" x="1241" y="1897.4" width="183.9" height="156.5"/>
		<rect id="C25" x="1479.7" y="1780" width="238.7" height="117.4"/>
		<rect id="B37" x="1425" y="1897.4" width="270" height="156.5"/>
		<rect id="C23" x="1718.4" y="1780" width="246.6" height="117.4"/>
		<rect id="B35" x="1695" y="1897.4" width="269.9" height="156.5"/>
		<rect id="B33" x="1964.9" y="1780" width="156.5" height="273.9"/>
		<rect id="C19" x="2326.8" y="1780" width="205.4" height="136.9"/>
		<rect id="B31" x="2121.4" y="1917" width="205.4" height="136.9"/>
		<rect id="B29" x="2326.8" y="1917" width="205.4" height="136.9"/>
		<rect id="C21" x="2121.4" y="1780" width="205.4" height="136.9"/>
		<rect id="C17" x="2532.3" y="1780" width="195.7" height="203.5"/>
		<rect id="B27" x="2532.3" y="1983.4" width="195.7" height="70.5"/>
		<rect id="B25" x="2727.9" y="1780" width="254.3" height="273.9"/>
		<polygon id="B23" points="3373.6,2053.9 2982.2,2053.9 2982.2,1780 3307,1780 3307,1936.5 3373.6,1936.5 		"/>
		<rect id="C15" x="3307.5" y="1780" width="176.1" height="156.5"/>
		<rect id="B21" x="3373.6" y="1936.5" width="360" height="117.4"/>
		<rect id="C13" x="3483.5" y="1780" width="273.9" height="156.5"/>
		<polygon id="B19" points="3917.4,2053.9 3733.5,2053.9 3733.5,1936.5 3757.4,1936.5 3757.4,1780 3917.4,1780 		"/>
		<rect id="C11" x="4082.4" y="1780" width="176.1" height="156.5"/>
		<rect id="B17" x="4082.4" y="1936.5" width="704.4" height="117.4"/>
		<rect id="C09" x="4258.5" y="1780" width="450" height="156.5"/>
		<rect id="C07" x="4708.5" y="1780" width="371.7" height="156.5"/>
		<rect id="B13" x="4786.8" y="1936.5" width="293.5" height="117.4"/>
		<rect id="B11" x="5080.3" y="1780" width="254.3" height="273.9"/>
		<rect id="B09" x="5334.6" y="1936.5" width="371.7" height="117.4"/>
		<rect id="C05" x="5334.6" y="1780" width="360" height="156.5"/>
		<rect id="B05" x="6078.1" y="1780" width="156.5" height="273.9"/>
		<rect id="C03" x="5694.6" y="1780" width="383.5" height="156.5"/>
		<rect id="B07" x="5706.3" y="1936.5" width="371.7" height="117.4"/>
		<polygon id="D05" points="6234.6,1344.2 6234.6,1657.3 6175.8,1657.3 6175.8,1500.8 6097.7,1500.8 6097.7,1344.2 		"/>
		<rect id="E03" x="5733.7" y="1344.2" width="364" height="156.5"/>
		<rect id="D07" x="5823.7" y="1500.8" width="352.2" height="156.5"/>
		<rect id="D09" x="5377.6" y="1500.8" width="446.1" height="156.5"/>
		<rect id="E05" x="5377.6" y="1344.2" width="356.1" height="156.5"/>
		<rect id="D11" x="5142.9" y="1344.2" width="234.8" height="313"/>
		<rect id="E07" x="4790.7" y="1344.2" width="352.2" height="156.5"/>
		<rect id="D13" x="4790.7" y="1500.8" width="352.2" height="156.5"/>
		<rect id="E09" x="4524.6" y="1344.2" width="266.1" height="156.5"/>
		<rect id="D15" x="4434.6" y="1500.8" width="356.1" height="156.5"/>
		<rect id="E11" x="4168.5" y="1344.2" width="356.1" height="156.5"/>
		<rect id="D17" x="4168.5" y="1501.9" width="265.2" height="155.4"/>
		<rect id="E12" x="4082.4" y="1344.2" width="86.1" height="313"/>
		<polygon id="D18" points="3917.4,1344.2 3917.4,1657.3 3627.9,1657.3 3627.9,1442.1 3534.1,1442.1 3534.1,1344.2 		"/>
		<rect id="E13" x="3236.7" y="1344.2" width="297.4" height="97.9"/>
		<rect id="D19" x="3432.4" y="1442.1" width="193.6" height="215.3"/>
		<rect id="D23" x="2923.7" y="1524.3" width="313.1" height="133"/>
		<polygon id="D25" points="2501.9,1344.2 2923.7,1344.2 2923.7,1657.3 2677.2,1657.3 2677.3,1528.2 2501,1528.2 		"/>
		<polygon points="3432.4,1657.3 3432.4,1442.1 3236.7,1442.1 3236.7,1344.2 2923.7,1344.2 2923.7,1524.3 3236.8,1524.3 
			3236.8,1657.3 		"/>
		<rect id="E17" x="2325" y="1344.2" width="176.1" height="183.9"/>
		<rect id="D27" x="2325" y="1528.2" width="352.4" height="129.2"/>
		<rect id="E19" x="2109.8" y="1344.2" width="215.3" height="54.8"/>
		<rect id="D29" x="2109.8" y="1399.1" width="215.3" height="258.2"/>
		<rect id="E21" x="1933.7" y="1344.2" width="176.1" height="156.5"/>
		<rect id="D31" x="1933.7" y="1500.8" width="176.1" height="156.5"/>
		<rect id="E23" x="1726.3" y="1344.2" width="207.4" height="273.9"/>
		<rect id="D33" x="1561.9" y="1618.2" width="371.7" height="39.1"/>
		<rect id="E25" x="1569.8" y="1344.2" width="156.5" height="39.1"/>
		<rect id="E29" x="1237.2" y="1344.2" width="176.1" height="156.5"/>
		<rect id="D37" x="1237.2" y="1500.8" width="176.1" height="156.5"/>
		<polygon id="E27" points="1726.3,1500.8 1413.3,1500.8 1413.3,1344.2 1569.8,1344.2 1569.8,1383.4 1726.3,1383.4 		"/>
		<polygon id="D35" points="1561.9,1657.3 1413.3,1657.3 1413.3,1500.8 1726.3,1500.8 1726.3,1618.2 1561.9,1618.2 		"/>
	</g>
</g>
<g id="Layer_7">
	<path id="Aisle" class="st5" d="M7190.2,829.3l-2003.8-2V709.7h-113.1v117.7H4021.8V709.7l-112.4,0.1v117.7l-2966.2-0.1v170.7
		h156.9v964.5H943.3v118.1h156.9v99.9h274.6v78.5H1480v-78.5h1216.3v78.5h84.7v-78.5h1137.8l0.4,78.5h87v-78.5h1035.8v78.5h91.7
		v-78.5h1118.2v78.5h105.2v-78.5h780.7v-313.9h52.5L7190.2,829.3L7190.2,829.3z M3913.3,2057.3H1229.9v-274.6h2683.5V2057.3
		L3913.3,2057.3z M3913.3,1659.7H1226v-313.9h2687.5L3913.3,1659.7L3913.3,1659.7z M6357.4,950.5h634.6v274.6h-634.6V950.5z
		 M6358.4,1345.8h633.7v313.9h-633.7V1345.8z M6364.3,1782.6h627.7v274.7h-627.7V1782.6z M1241.7,1225.2V950.5h2672.4l0.1,274.6
		L1241.7,1225.2L1241.7,1225.2z M4086.6,1225.2V950.5h2150.2v274.6L4086.6,1225.2L4086.6,1225.2z M4078.8,1659.7v-313.9h2158v313.9
		H4078.8z M4078.8,2057.3v-274.6h2158v274.6H4078.8z"/>
</g>
<g id="Layer_2_1_">
	<g id="GLOBAL">
		<path id="Door" class="st6" d="M5039.5,2274.2v42.8c23.1-1.1,41.6-19.7,42.6-42.8c1,23.1,19.4,41.6,42.6,42.8v-42.8"/>
		<path id="Door_1_" class="st6" d="M3915.3,2274.2v42.8c23.1-1.1,41.6-19.7,42.6-42.8c1,23.1,19.4,41.6,42.6,42.8v-42.8"/>
		<path id="Door_2_" class="st6" d="M2694,2274.2v42.8c23.1-1.1,41.6-19.7,42.6-42.8c1,23.1,19.4,41.6,42.6,42.8v-42.8"/>
		<path id="Door_3_" class="st6" d="M1373.9,2274.2v42.8c23.1-1.1,41.6-19.7,42.6-42.8c1,23.1,19.4,41.6,42.6,42.8v-42.8"/>
		<path id="Door_4_" class="st6" d="M6261.3,2274.2v42.8c23.1-1.1,41.6-19.7,42.6-42.8c1,23.1,19.4,41.6,42.6,42.8v-42.8"/>
		<path id="Door_5_" class="st6" d="M5173.5,689.1v-42.8c-23.1,1.1-41.6,19.7-42.6,42.8c-1-23.1-19.4-41.6-42.6-42.8v42.8"/>
		<path id="Door_6_" class="st6" d="M4000.5,689.1v-42.8c-23.1,1.1-41.6,19.7-42.6,42.8c-1-23.1-19.4-41.6-42.6-42.8v42.8"/>
		<path id="Door_7_" class="st6" d="M2778.6,689.1v-42.8c-23.1,1.1-41.6,19.7-42.6,42.8c-1-23.1-19.4-41.6-42.6-42.8v42.8"/>
	</g>
	<g id="SYMBOLS">
		<g id="Bathroom_2_">
			<rect x="2921.9" y="2280" class="st7" width="862.4" height="117.7"/>
			<g>
				<path class="st8" d="M3371,2313.7c3.4,0,6-2.7,6-6c0-3.3-2.7-6-6-6c-3.4,0-6,2.7-6,6C3365,2311,3367.7,2313.7,3371,2313.7z"/>
				<path class="st8" d="M3376.9,2327.5l9.1,16.8l2.2-1.5l-9.3-26.7h-7.4h-0.3h-0.3h-7.4l-9.3,26.7l2.2,1.5l9.1-16.8
					c0,0,1.2,0,1.2,2.9l-9.8,23.5h9.3l3,22.2h1.9h0.3h0.3h1.9l3-22.2h9.3l-9.8-23.5C3375.7,2327.5,3376.9,2327.5,3376.9,2327.5z"/>
				<path class="st8" d="M3331.3,2313.7c3.4,0,6-2.7,6-6c0-3.3-2.7-6-6-6c-3.4,0-6,2.7-6,6C3325.3,2311,3328,2313.7,3331.3,2313.7z"
					/>
				<polygon class="st8" points="3334.4,2316.1 3331.3,2322 3328.5,2316.1 3327.2,2316.1 3318.2,2316.1 3320.8,2344.4 
					3324.8,2344.4 3326.1,2353.9 3329.1,2376.1 3331,2376.1 3331.3,2376.1 3331.6,2376.1 3333.5,2376.1 3336.5,2353.9 
					3338.3,2344.4 3342.4,2344.4 3344.8,2316.1 3336.1,2316.1 				"/>
			</g>
		</g>
		<g id="VIP_Lounge_1_">
			<polygon id="_x3C_Path_x3E__1_" class="st7" points="3532.9,1343.4 3917.3,1343.4 3917.3,1657.3 3626.9,1657.3 3626.9,1441.5 
				3532.9,1441.5 			"/>
			<g>
				<path class="st8" d="M3727.1,1446.7h7.3l11.2,28.4l11.2-28.4h7l-15.5,37.3h-5.8L3727.1,1446.7z"/>
				<path class="st8" d="M3770.6,1446.7h6.6v37h-6.6V1446.7z"/>
				<path class="st8" d="M3787.1,1446.7h14.7c8.7,0,14.1,4.9,14.1,12.3v0.2c0,8.3-6.7,12.7-14.9,12.7h-7.4v11.9h-6.6L3787.1,1446.7
					L3787.1,1446.7z M3801.3,1465.9c4.9,0,8-2.7,8-6.6v-0.2c0-4.4-3.1-6.6-8-6.6h-7.6v13.4L3801.3,1465.9L3801.3,1465.9z"/>
			</g>
			<g>
				<path class="st8" d="M3773.9,1565.5c-0.9,0-1.6-0.4-2-1l-27.4-41.7c-0.5-0.8-0.4-1.8,0.3-2.4l15.4-14.1c0.5-0.4,1.1-0.6,1.7-0.6
					h24.7c0.6,0,1.2,0.2,1.7,0.7l14.8,14.1c0.7,0.7,0.9,1.6,0.3,2.4l-27.4,41.7C3775.5,1565.2,3774.7,1565.5,3773.9,1565.5
					 M3749.3,1522.1l24.5,37.3l24.5-37.3l-12.9-12.3h-22.7L3749.3,1522.1z"/>
				<path class="st8" d="M3772.4,1561.9l-12.5-40l0.2-1.4l7-13.4l2.1-1.2h11.2l2.1,1.2l6.7,13.4l0.2,1.3l-12.5,40L3772.4,1561.9
					L3772.4,1561.9z M3764.6,1521.5l10.1,32.1l10.1-32.1l-5.8-11.6h-8.2L3764.6,1521.5z"/>
				<path class="st8" d="M3800.3,1523.9h-52.6c-1.3,0-1.3-4.1,0-4.1h52.6c1.3,0,2.3,0.9,2.3,2S3801.6,1523.9,3800.3,1523.9"/>
			</g>
		</g>
		<g id="Outdoor_Lounge_2_">
			<polyline class="st7" points="7174.5,692.5 6239.4,692.5 6239.4,574.8 7174.5,574.8 7175.3,692.5 			"/>
			<g>
				<path class="st9" d="M6315.3,690.9c0-23.7-18.1-42.8-40.5-42.8v42.8"/>
				<path class="st9" d="M6315.9,690.9c0-23.6,18.1-42.8,40.5-42.8v42.8"/>
			</g>
			<g>
				<path class="st10" d="M6455.2,636.9L6455.2,636.9c0-9.1,7.2-16.7,17.4-16.7c10.2,0,17.3,7.5,17.3,16.6v0.1
					c0,9.1-7.2,16.6-17.4,16.6S6455.2,646,6455.2,636.9z M6483.7,636.9L6483.7,636.9c0-6.3-4.7-11.6-11.2-11.6s-11.2,5.1-11.2,11.4
					v0.1c0,6.2,4.7,11.5,11.2,11.5C6479.1,648.2,6483.7,643.1,6483.7,636.9z"/>
				<path class="st10" d="M6496.3,639.2v-18.6h5.8V639c0,6,3.2,9.2,8.4,9.2c5.2,0,8.3-3,8.3-9v-18.6h5.8v18.3
					c0,9.6-5.5,14.4-14.2,14.4C6501.8,653.5,6496.3,648.6,6496.3,639.2z"/>
				<path class="st10" d="M6540.8,626h-10.5v-5.2h26.9v5.2h-10.5v27h-5.9V626z"/>
				<path class="st10" d="M6563.4,620.6h12.3c10.5,0,17.7,7,17.7,16v0.1c0,9.1-7.2,16.1-17.7,16.1h-12.3V620.6z M6575.8,647.8
					c7,0,11.5-4.5,11.5-10.9v-0.1c0-6.3-4.5-10.9-11.5-10.9h-6.6v21.9L6575.8,647.8L6575.8,647.8z"/>
				<path class="st10" d="M6598.9,636.9L6598.9,636.9c0-9.1,7.2-16.7,17.4-16.7s17.3,7.5,17.3,16.6v0.1c0,9.1-7.2,16.6-17.4,16.6
					C6606.1,653.5,6598.9,646,6598.9,636.9z M6627.5,636.9L6627.5,636.9c0-6.3-4.7-11.6-11.2-11.6s-11.2,5.1-11.2,11.4v0.1
					c0,6.2,4.7,11.5,11.2,11.5C6622.9,648.2,6627.5,643.1,6627.5,636.9z"/>
				<path class="st10" d="M6639.3,636.9L6639.3,636.9c0-9.1,7.2-16.7,17.4-16.7c10.2,0,17.3,7.5,17.3,16.6v0.1
					c0,9.1-7.2,16.6-17.4,16.6S6639.3,646,6639.3,636.9z M6667.8,636.9L6667.8,636.9c0-6.3-4.7-11.6-11.2-11.6s-11.2,5.1-11.2,11.4
					v0.1c0,6.2,4.7,11.5,11.2,11.5C6663.2,648.2,6667.8,643.1,6667.8,636.9z"/>
				<path class="st10" d="M6681,620.6h14.8c4.1,0,7.4,1.2,9.6,3.2c1.8,1.8,2.7,4.1,2.7,7v0.1c0,5.3-3.3,8.5-7.9,9.8l9,12.2h-6.9
					l-8.1-11.2h-7.3v11.2h-5.8L6681,620.6L6681,620.6z M6695.3,636.7c4.1,0,6.8-2.1,6.8-5.4v-0.1c0-3.4-2.6-5.3-6.9-5.3h-8.4v10.9
					L6695.3,636.7L6695.3,636.7L6695.3,636.7z"/>
				<path class="st10" d="M6729.4,620.6h5.8v27.1h17.4v5.2h-23.3L6729.4,620.6L6729.4,620.6z"/>
				<path class="st10" d="M6755.4,636.9L6755.4,636.9c0-9.1,7.2-16.7,17.4-16.7s17.3,7.5,17.3,16.6v0.1c0,9.1-7.2,16.6-17.4,16.6
					C6762.5,653.5,6755.4,646,6755.4,636.9z M6783.9,636.9L6783.9,636.9c0-6.3-4.7-11.6-11.2-11.6c-6.6,0-11.2,5.1-11.2,11.4v0.1
					c0,6.2,4.7,11.5,11.2,11.5C6779.3,648.2,6783.9,643.1,6783.9,636.9z"/>
				<path class="st10" d="M6796.6,639.2v-18.6h5.8V639c0,6,3.2,9.2,8.4,9.2c5.2,0,8.3-3,8.3-9v-18.6h5.8v18.3
					c0,9.6-5.5,14.4-14.2,14.4C6802,653.5,6796.6,648.6,6796.6,639.2z"/>
				<path class="st10" d="M6833,620.6h5.4l17.8,22.3v-22.3h5.7v32.3h-4.8l-18.3-23v23h-5.7L6833,620.6L6833,620.6z"/>
				<path class="st10" d="M6868.9,636.9L6868.9,636.9c0-9.1,7.1-16.7,17.1-16.7c5.8,0,9.4,1.6,12.7,4.4l-3.7,4.3
					c-2.6-2.1-5.1-3.4-9.3-3.4c-6.1,0-10.8,5.2-10.8,11.4v0.1c0,6.6,4.5,11.6,11.2,11.6c3.1,0,5.9-1,8-2.4v-6h-8.5v-4.9h14.1v13.5
					c-3.3,2.7-8,5-13.8,5C6875.7,653.5,6868.9,646.3,6868.9,636.9z"/>
				<path class="st10" d="M6907.5,620.6h24.5v5.1h-18.7v8.4h16.6v5.1h-16.6v8.7h19v5.1h-24.8L6907.5,620.6L6907.5,620.6z"/>
			</g>
		</g>
		<g id="Indoor_Lounge_2_">
			<rect x="6239.4" y="710.5" class="st7" width="935.1" height="116.1"/>
			<g>
				<path class="st11" d="M6495.5,752.4h5.6v32.3h-5.6V752.4z"/>
				<path class="st11" d="M6509.5,752.4h5.2l17.1,22.3v-22.3h5.5v32.3h-4.7l-17.6-23v23h-5.5V752.4L6509.5,752.4z"/>
				<path class="st11" d="M6545.4,752.4h11.9c10,0,16.9,7,16.9,16v0.1c0,9.1-6.9,16.1-16.9,16.1h-11.9V752.4z M6557.3,779.5
					c6.6,0,11.1-4.5,11.1-10.9v-0.1c0-6.3-4.4-10.9-11.1-10.9h-6.2v21.9H6557.3L6557.3,779.5z"/>
				<path class="st11" d="M6579.6,768.6L6579.6,768.6c0-9.1,6.9-16.7,16.6-16.7s16.6,7.5,16.6,16.6v0.1c0,9.1-6.9,16.6-16.6,16.6
					C6586.5,785.2,6579.6,777.6,6579.6,768.6z M6607.1,768.6L6607.1,768.6c0-6.3-4.5-11.6-10.9-11.6c-6.3,0-10.8,5.1-10.8,11.4v0.1
					c0,6.2,4.5,11.5,10.9,11.5C6602.6,780,6607.1,774.9,6607.1,768.6z"/>
				<path class="st11" d="M6618.3,768.6L6618.3,768.6c0-9.1,6.9-16.7,16.6-16.7c9.8,0,16.6,7.5,16.6,16.6v0.1
					c0,9.1-6.9,16.6-16.6,16.6S6618.3,777.6,6618.3,768.6z M6645.7,768.6L6645.7,768.6c0-6.3-4.5-11.6-10.9-11.6
					c-6.3,0-10.8,5.1-10.8,11.4v0.1c0,6.2,4.5,11.5,10.9,11.5C6641.3,780,6645.7,774.9,6645.7,768.6z"/>
				<path class="st11" d="M6658.4,752.4h14.2c4,0,7.1,1.2,9.2,3.2c1.7,1.8,2.7,4.1,2.7,7v0.1c0,5.3-3.1,8.5-7.6,9.8l8.6,12.2h-6.6
					l-7.8-11.2h-7v11.2h-5.6L6658.4,752.4L6658.4,752.4z M6672.1,768.3c4,0,6.6-2.1,6.6-5.4v-0.1c0-3.4-2.5-5.3-6.6-5.3h-8.1v10.9
					L6672.1,768.3L6672.1,768.3z"/>
				<path class="st11" d="M6704.9,752.4h5.6v27.1h16.7v5.2h-22.3L6704.9,752.4L6704.9,752.4z"/>
				<path class="st11" d="M6729.9,768.6L6729.9,768.6c0-9.1,6.9-16.7,16.6-16.7s16.6,7.5,16.6,16.6v0.1c0,9.1-6.9,16.6-16.6,16.6
					C6736.7,785.2,6729.9,777.6,6729.9,768.6z M6757.3,768.6L6757.3,768.6c0-6.3-4.5-11.6-10.9-11.6c-6.3,0-10.8,5.1-10.8,11.4v0.1
					c0,6.2,4.5,11.5,10.9,11.5C6752.9,780,6757.3,774.9,6757.3,768.6z"/>
				<path class="st11" d="M6769.5,771v-18.6h5.6v18.4c0,6,3,9.2,8,9.2c4.9,0,8-3,8-9v-18.6h5.6v18.3c0,9.6-5.4,14.4-13.7,14.4
					C6774.7,785.1,6769.5,780.3,6769.5,771z"/>
				<path class="st11" d="M6804.4,752.4h5.2l17.1,22.3v-22.3h5.5v32.3h-4.7l-17.6-23v23h-5.5V752.4L6804.4,752.4z"/>
				<path class="st11" d="M6838.9,768.6L6838.9,768.6c0-9.1,6.8-16.7,16.4-16.7c5.5,0,9,1.6,12.3,4.4l-3.5,4.3
					c-2.5-2.1-4.8-3.4-8.9-3.4c-5.9,0-10.3,5.2-10.3,11.4v0.1c0,6.6,4.3,11.6,10.9,11.6c3,0,5.7-1,7.7-2.4v-6h-8.1v-4.9h13.5v13.5
					c-3.1,2.7-7.7,5-13.3,5C6845.5,785.2,6838.9,778,6838.9,768.6z"/>
				<path class="st11" d="M6875.9,752.4h23.6v5.1h-18v8.4h15.9v5.1h-15.9v8.7h18.3v5.1h-23.8L6875.9,752.4L6875.9,752.4z"/>
			</g>
		</g>
	</g>
	<g id="Layer_6">
		<g>
			<polygon class="st8" points="7009,758.6 6983.5,734.5 7034.5,734.5 			"/>
			<line class="st12" x1="7009" y1="755.7" x2="7009" y2="787.5"/>
			<g>
				<path class="st8" d="M7024.5,787.3c0,1.8-7,3.4-15.5,3.4c-8.6,0-15.5-1.5-15.5-3.4c0-1.8,7-3.4,15.5-3.4
					C7017.5,784,7024.5,785.5,7024.5,787.3"/>
				<path class="st8" d="M7012,755.5c0,1.6-1.4,3-3.1,3c-1.7,0-3.1-1.3-3.1-3c0-1.6,1.4-3,3.1-3C7010.6,752.6,7012,753.9,7012,755.5
					"/>
			</g>
		</g>
		<g>
			<path class="st8" d="M7055.7,728.8c0.8-0.2,1.2,0.1,1.5,0.5c0.9,3,0.4,7.8,0.5,12.1c0,1.2-0.5,2.7,0.5,3.4
				c2.1,0.6,1.3-1.8,1.5-2.9c0.3-3.2-0.2-8.5,0-12.1c0.2-0.5-0.2-0.8,1-1c1.1-0.2,1.6,1.2,1.5,3.4c0.2,2.8-0.2,5.9,0,9.2
				c0.1,1.2-0.8,3.4,1,3.4c1.7,0,0.9-2.2,0.9-3.4c0.2-3.2-0.1-11.4,0-11.6c0.1-0.2-0.1-0.8,0.9-1c2,0.2,1.3,2,1.5,3.4
				c0.2,2.7-0.1,5.5,0,8.7c0,1.5-0.5,3,0.5,3.8c2.1,0.6,1.3-1.8,1.5-2.9c0.3-3.2,0-12.1,0-12.1s0.1-0.9,1-1c2.3,0.4,1.3,3.2,1.5,4.8
				c0.3,5.2-0.2,12.3,0,17.9c-0.9,0.5-4,2.4-4.3,3.4c-0.2,9.3,0.2,20.2,0,29.9c0,3,0.6,6.2-1.5,8.2c-1.7,0.2-3.1-0.1-4.3-0.5
				c-1.6-2.4-0.9-5.7-1-8.7c0-8.9,0-19.2,0-28.5c0.2-1.6-3.4-3.3-4.3-3.4c-0.4-6.2-1.1-15.4-0.5-21.7
				C7054.8,730.3,7054.9,729,7055.7,728.8"/>
			<path class="st8" d="M7081.6,768.5c-0.1-1.4-3.3,0.5-3.4-1c0.2-9.6-0.2-32.4,0-33.8c0.4-2.2,1.2-3.5,3.4-4.4
				c0.5-0.2,3.7-0.3,4.3,0c0.2,0.2,1.5,1,1.5,1s0.7,1.4,0.9,2.4c0.6,2.4,0.5,9.1,0.5,13v33.8c0,3,0.2,10.7-0.5,11.6
				c-0.5,0.8-0.9,1.9-2.9,2c-1.8,0.1-2.9-0.7-3.4-2.4c0-0.2-0.5-5.9-0.5-8.2C7081.6,776.9,7081.7,772.8,7081.6,768.5"/>
			<path class="st8" d="M7066.5,789.9c0,2.2-1.6,4-3.4,4c-1.9,0-3.4-1.8-3.4-4v-36.6c0-2.2,1.6-4,3.4-4c2,0,3.4,1.8,3.4,4V789.9z"/>
			<path class="st8" d="M7088.9,790.5c0,2-1.6,3.4-3.4,3.4c-1.9,0-3.4-1.6-3.4-3.4v-31.6c0-2,1.6-3.4,3.4-3.4c1.9,0,3.4,1.6,3.4,3.4
				V790.5z"/>
			<path class="st8" d="M7088.9,763.4c0,2-2.3,3.6-5.3,3.6c-2.9,0-5.3-1.6-5.3-3.6v-32.6c0-2,2.3-3.6,5.3-3.6c3,0,5.3,1.6,5.3,3.6
				V763.4z"/>
			<path class="st8" d="M7062,749.7c0,1.2-0.5,2.2-1.2,2.2c-0.7,0-1.2-0.9-1.2-2.2v-19.6c0-1.2,0.5-2.2,1.2-2.2
				c0.7,0,1.2,0.9,1.2,2.2V749.7z"/>
			<path class="st8" d="M7066.5,749.7c0,1.2-0.5,2.2-1.3,2.2c-0.7,0-1.2-0.9-1.2-2.2v-19.6c0-1.2,0.5-2.2,1.2-2.2
				c0.7,0,1.3,0.9,1.3,2.2V749.7z"/>
			<path class="st8" d="M7070.7,749.7c0,1.2-0.5,2.2-1.2,2.2c-0.7,0-1.2-0.9-1.2-2.2v-19.6c0-1.2,0.5-2.2,1.2-2.2
				c0.7,0,1.2,0.9,1.2,2.2V749.7z"/>
			<path class="st8" d="M7057.7,749.7c0,1.2-0.5,2.2-1.2,2.2c-0.6,0-1.2-0.9-1.2-2.2v-19.6c0-1.2,0.5-2.2,1.2-2.2
				c0.6,0,1.2,0.9,1.2,2.2V749.7z"/>
		</g>
	</g>
	<g id="Entrance_2_">
		<rect x="7198" y="2268.7" class="st7" width="640.3" height="197.2"/>
		<g>
			<path class="st8" d="M7347.8,2348.7h31.6v6.7h-24.2v11.1h21.4v6.7h-21.3v11.5h24.5v6.7h-31.9L7347.8,2348.7L7347.8,2348.7z"/>
			<path class="st8" d="M7388.7,2348.7h7l22.9,29.5v-29.5h7.4v42.7h-6.3L7396,2361v30.4h-7.4L7388.7,2348.7L7388.7,2348.7z"/>
			<path class="st8" d="M7447.3,2355.7h-13.5v-7h34.7v7H7455v35.7h-7.6L7447.3,2355.7L7447.3,2355.7z"/>
			<path class="st8" d="M7476.4,2348.7h19c5.4,0,9.6,1.6,12.3,4.3c2.3,2.3,3.5,5.5,3.5,9.2v0.1c0,7-4.2,11.2-10.2,12.9l11.5,16.2
				h-8.8l-10.5-14.9h-9.4v14.9h-7.5L7476.4,2348.7L7476.4,2348.7L7476.4,2348.7z M7494.9,2369.9c5.4,0,8.8-2.8,8.8-7.1v-0.1
				c0-4.6-3.3-7.1-8.8-7.1H7484v14.3H7494.9L7494.9,2369.9z"/>
			<path class="st8" d="M7535.7,2348.4h7l18.8,43h-7.9l-4.3-10.3H7529l-4.4,10.3h-7.7L7535.7,2348.4z M7546.5,2374.4l-7.4-17.1
				l-7.3,17.1H7546.5z"/>
			<path class="st8" d="M7568.8,2348.7h7l22.9,29.5v-29.5h7.4v42.7h-6.3l-23.6-30.4v30.4h-7.4L7568.8,2348.7L7568.8,2348.7z"/>
			<path class="st8" d="M7615.1,2370.2L7615.1,2370.2c0-12.3,9.1-22.2,22-22.2c7.9,0,12.6,2.7,16.7,6.6l-4.8,5.5
				c-3.4-3.2-7.1-5.3-12-5.3c-8.2,0-14.1,6.7-14.1,15.1v0.1c0,8.4,5.9,15.2,14.1,15.2c5.2,0,8.6-2.1,12.3-5.5l4.8,4.9
				c-4.5,4.6-9.3,7.6-17.3,7.6C7624.4,2392.2,7615.1,2382.5,7615.1,2370.2z"/>
			<path class="st8" d="M7662.1,2348.7h31.6v6.7h-24.2v11.1h21.4v6.7h-21.4v11.5h24.5v6.7h-31.9V2348.7z"/>
		</g>
	</g>
	<path id="Door_10_" class="st13" d="M7195.8,1315.1H7153c1.1,23.1,19.7,41.6,42.8,42.6c-23.1,1-41.6,19.4-42.8,42.6h42.8"/>
	<path id="Door_11_" class="st13" d="M7195.8,1412.9H7153c1.1,23.1,19.7,41.6,42.8,42.6c-23.1,1-41.6,19.4-42.8,42.6h42.8"/>
	<path id="Door_12_" class="st13" d="M7195.8,1510.4H7153c1.1,23.1,19.7,41.6,42.8,42.6c-23.1,1-41.6,19.4-42.8,42.6h42.8"/>
	<path id="Door_13_" class="st13" d="M7195.8,1608.2H7153c1.1,23.1,19.7,41.6,42.8,42.6c-23.1,1-41.6,19.4-42.8,42.6h42.8"/>
	<line class="st14" x1="7197.9" y1="691.7" x2="7197.9" y2="2274.6"/>
	<rect x="383.1" y="713.1" class="st7" width="547.6" height="607.7"/>
	<text transform="matrix(1 0 0 1 492.7031 1043.2422)" class="st8 st15 st16">PORSCHE</text>
	<text transform="matrix(1 0 0 1 7405.6777 1513.7324)" class="st7 st15 st17">ATRIUM</text>
</g>
<g id="entrance">
</g>
</svg>
