<svg xmlns="http://www.w3.org/2000/svg" width="512" height="384" viewBox="0 0 512 384" version="1.1">
	<path d="M 245 22.500 C 245 36.833, 244.637 45, 244 45 C 243.450 45, 243 47.250, 243 50 C 243 52.750, 242.550 55, 242 55 C 241.444 55, 241 57.667, 241 61 C 241 64.333, 240.556 67, 240 67 C 239.450 67, 239 68.251, 239 69.779 C 239 71.411, 238.174 73.153, 237 74 C 235.900 74.793, 235 76.242, 235 77.221 C 235 78.199, 234.550 79, 234 79 C 233.450 79, 233 79.801, 233 80.779 C 233 81.758, 232.100 83.207, 231 84 C 229.900 84.793, 229 86.242, 229 87.221 C 229 88.199, 228.281 89, 227.401 89 C 226.522 89, 224.541 90.350, 223 92 C 221.459 93.650, 219.577 95, 218.820 95 C 218.062 95, 216.793 95.900, 216 97 C 215.207 98.100, 213.857 99, 213 99 C 212.143 99, 210.793 99.900, 210 101 C 209.153 102.174, 207.411 103, 205.779 103 C 204.251 103, 203 103.450, 203 104 C 203 104.550, 202.100 105, 201 105 C 199.900 105, 199 105.450, 199 106 C 199 106.550, 198.100 107, 197 107 C 195.900 107, 195 107.450, 195 108 C 195 108.550, 193.200 109, 191 109 C 188.800 109, 187 109.450, 187 110 C 187 110.550, 185.650 111, 184 111 C 182.350 111, 181 111.450, 181 112 C 181 112.550, 179.200 113, 177 113 C 174.800 113, 173 113.450, 173 114 C 173 114.550, 171.650 115, 170 115 C 168.350 115, 167 115.450, 167 116 C 167 116.550, 165.650 117, 164 117 C 162.350 117, 161 117.450, 161 118 C 161 118.550, 159.650 119, 158 119 C 156.350 119, 155 119.450, 155 120 C 155 120.550, 153.650 121, 152 121 C 150.350 121, 149 121.450, 149 122 C 149 122.550, 147.650 123, 146 123 C 144.350 123, 143 123.450, 143 124 C 143 124.550, 142.100 125, 141 125 C 139.900 125, 139 125.450, 139 126 C 139 126.550, 138.100 127, 137 127 C 135.900 127, 135 127.450, 135 128 C 135 128.550, 134.100 129, 133 129 C 131.900 129, 131 129.450, 131 130 C 131 130.550, 129.831 131, 128.401 131 C 126.803 131, 124.723 132.155, 123 134 C 121.277 135.845, 119.197 137, 117.599 137 C 115.667 137, 115 137.513, 115 139 C 115 140.333, 114.333 141, 113 141 C 111.667 141, 111 141.667, 111 143 C 111 144.124, 110.333 145, 109.478 145 C 107.498 145, 97 155.498, 97 157.478 C 97 158.315, 96.305 159, 95.455 159 C 93.675 159, 89 163.365, 89 165.026 C 89 166.658, 86.390 169, 84.571 169 C 83.558 169, 83 169.896, 83 171.526 C 83 174.351, 75.105 183, 72.526 183 C 71.687 183, 71 183.450, 71 184 C 71 184.550, 71.450 185, 72 185 C 72.550 185, 73 185.450, 73 186 C 73 186.550, 72.305 187, 71.455 187 C 70.605 187, 68.805 188.105, 67.455 189.455 C 64.970 191.940, 64.167 195, 66 195 C 66.550 195, 67 196.350, 67 198 C 67 199.650, 66.550 201, 66 201 C 65.450 201, 65 201.690, 65 202.533 C 65 204.524, 58.524 211, 56.533 211 C 55.690 211, 55 211.450, 55 212 C 55 212.550, 53.749 213, 52.221 213 C 50.589 213, 48.847 213.826, 48 215 C 46.630 216.901, 45.411 217, 23.279 217 L 0 217 0 300.500 L 0 384 82.500 384 L 165 384 165 364.500 C 165 352.167, 165.368 345, 166 345 C 166.550 345, 167 343.200, 167 341 C 167 338.800, 167.450 337, 168 337 C 168.550 337, 169 336.100, 169 335 C 169 333.900, 169.450 333, 170 333 C 170.550 333, 171 331.650, 171 330 C 171 328.350, 171.450 327, 172 327 C 172.550 327, 173 326.100, 173 325 C 173 323.749, 173.667 323, 174.779 323 C 175.758 323, 177.207 322.100, 178 321 C 178.793 319.900, 180.242 319, 181.221 319 C 182.199 319, 183 318.550, 183 318 C 183 317.450, 184.350 317, 186 317 C 187.650 317, 189 317.450, 189 318 C 189 318.550, 189.685 319, 190.522 319 C 192.502 319, 203 308.502, 203 306.522 C 203 304.700, 204.662 304.486, 205.244 306.232 C 205.479 306.937, 208.271 304.799, 211.772 301.232 C 215.487 297.448, 218.727 295, 220.023 295 C 221.205 295, 223.871 293.216, 226 291 C 228.114 288.800, 230.454 287, 231.201 287 C 231.948 287, 233.207 286.100, 234 285 C 234.793 283.900, 236.143 283, 237 283 C 237.857 283, 239.207 282.100, 240 281 C 240.793 279.900, 242.242 279, 243.221 279 C 244.199 279, 245 278.550, 245 278 C 245 277.450, 245.801 277, 246.779 277 C 247.758 277, 249.207 276.100, 250 275 C 250.793 273.900, 252.242 273, 253.221 273 C 254.199 273, 255 272.550, 255 272 C 255 271.450, 255.801 271, 256.779 271 C 257.758 271, 259.207 270.100, 260 269 C 260.793 267.900, 262.242 267, 263.221 267 C 264.199 267, 265 266.550, 265 266 C 265 265.450, 265.801 265, 266.779 265 C 267.758 265, 269.207 264.100, 270 263 C 270.793 261.900, 272.242 261, 273.221 261 C 274.199 261, 275 260.550, 275 260 C 275 259.450, 275.900 259, 277 259 C 278.100 259, 279 258.550, 279 258 C 279 257.450, 279.900 257, 281 257 C 282.100 257, 283 256.550, 283 256 C 283 255.450, 284.350 255, 286 255 C 287.650 255, 289 254.550, 289 254 C 289 253.450, 290.350 253, 292 253 C 293.650 253, 295 252.550, 295 252 C 295 251.446, 297.639 251, 300.917 251 C 304.713 251, 307.015 250.552, 307.341 249.750 C 307.723 248.806, 308.130 248.867, 309 250 C 309.870 251.133, 310.277 251.194, 310.659 250.250 C 311.261 248.769, 315 248.553, 315 250 C 315 250.550, 316.350 251, 318 251 C 319.650 251, 321 251.450, 321 252 C 321 252.550, 321.900 253, 323 253 C 324.100 253, 325 253.450, 325 254 C 325 254.550, 325.685 255, 326.522 255 C 328.375 255, 339 265.437, 339 267.258 C 339 267.973, 339.900 269.207, 341 270 C 342.100 270.793, 343 272.143, 343 273 C 343 273.857, 343.900 275.207, 345 276 C 346.103 276.795, 347 278.589, 347 280 C 347 281.411, 347.897 283.205, 349 284 C 350.174 284.847, 351 286.589, 351 288.221 C 351 289.749, 351.450 291, 352 291 C 352.550 291, 353 292.350, 353 294 C 353 295.650, 353.450 297, 354 297 C 354.550 297, 355 297.801, 355 298.779 C 355 299.758, 355.900 301.207, 357 302 C 358.100 302.793, 359 304.242, 359 305.221 C 359 306.199, 359.450 307, 360 307 C 360.550 307, 361 307.900, 361 309 C 361 310.100, 361.450 311, 362 311 C 362.550 311, 363 311.900, 363 313 C 363 314.100, 363.450 315, 364 315 C 364.550 315, 365 316.350, 365 318 C 365 319.650, 365.450 321, 366 321 C 366.550 321, 367 322.350, 367 324 C 367 325.650, 367.450 327, 368 327 C 368.556 327, 369 329.667, 369 333 C 369 336.333, 369.444 339, 370 339 C 370.637 339, 371 347.167, 371 361.500 L 371 384 441.441 384 C 489.203 384, 512.089 383.665, 512.526 382.958 C 512.880 382.385, 512.839 295.985, 512.434 190.958 L 511.699 0 378.350 0 L 245 0 245 22.500 M 0.478 300.500 C 0.478 346.700, 0.600 365.454, 0.750 342.175 C 0.899 318.896, 0.899 281.096, 0.750 258.175 C 0.600 235.254, 0.478 254.300, 0.478 300.500" stroke="none" fill="#000000" fill-rule="evenodd"/>
</svg>