<svg xmlns="http://www.w3.org/2000/svg" width="285" height="512" viewBox="0 0 285 512" version="1.1">
	<path d="M 227.366 3.082 C 228.151 7.003, 226.765 9.591, 223.435 10.427 C 221.756 10.848, 221.009 11.581, 221.350 12.471 C 222.693 15.969, 223.171 21.474, 222.559 26.377 C 222.009 30.776, 221.446 31.931, 219.398 32.865 C 217.587 33.690, 187.250 34, 108.453 34 L 0 34 0 50 C 0 63.264, 0.246 66, 1.441 66 C 3.460 66, 4.365 64.207, 4.974 59 L 5.500 54.500 117.787 54 C 216.142 53.562, 230.191 53.314, 231.021 52 C 232.039 50.389, 232.239 49.595, 232.398 46.535 C 232.454 45.455, 233.465 44.087, 234.643 43.496 C 235.822 42.905, 237.423 41.894, 238.200 41.249 C 239.335 40.307, 239.940 40.629, 241.270 42.881 L 242.927 45.686 251.214 44.435 C 260.291 43.066, 263 42.252, 263 40.893 C 263 40.402, 263.900 40, 265 40 C 266.100 40, 267 40.482, 267 41.071 C 267 41.661, 267.707 41.436, 268.571 40.571 C 269.436 39.707, 271.348 38.987, 272.821 38.972 C 274.409 38.956, 276.556 37.836, 278.092 36.222 C 280.545 33.646, 280.690 32.905, 280.795 22.389 C 280.904 11.516, 280.854 11.254, 278.453 10.161 C 276.375 9.214, 276 8.351, 276 4.521 L 276 0 251.375 -0 L 226.750 -0 227.366 3.082 M 240 31.883 C 240 32.498, 241.136 33, 242.525 33 C 244.298 33, 245.333 33.744, 246 35.500 C 247.060 38.287, 252 39.169, 252 36.571 C 252 35.786, 252.707 34.436, 253.571 33.571 C 255 32.143, 254.659 31.999, 249.821 31.986 C 246.895 31.979, 243.488 31.701, 242.250 31.370 C 240.900 31.008, 240 31.213, 240 31.883 M 260.750 31.662 C 261.438 31.940, 262.563 31.940, 263.250 31.662 C 263.938 31.385, 263.375 31.158, 262 31.158 C 260.625 31.158, 260.063 31.385, 260.750 31.662 M 12 41.833 C 10.848 42.217, 10.622 45.996, 11.750 46.007 C 12.162 46.012, 59.476 46.024, 116.891 46.035 C 213.324 46.053, 221.424 45.926, 223.141 44.372 C 224.163 43.447, 225 42.422, 225 42.095 C 225 41.487, 13.817 41.228, 12 41.833 M 0 69 C 0 69.550, 0.675 70, 1.500 70 C 2.325 70, 3 69.550, 3 69 C 3 68.450, 2.325 68, 1.500 68 C 0.675 68, 0 68.450, 0 69 M 6.709 73.092 C 5.169 79.414, 4.827 87.807, 6.019 90.035 C 7.216 92.273, 7.315 92.290, 8.632 90.489 C 10.460 87.988, 10.472 75.028, 8.648 72.533 C 7.364 70.777, 7.267 70.805, 6.709 73.092 M 11.538 93.938 C 11.219 94.454, 10.810 98.023, 10.628 101.870 C 10.286 109.106, 11.123 112.281, 12.903 110.492 C 14.018 109.370, 15.151 96.556, 14.325 94.404 C 13.706 92.791, 12.384 92.570, 11.538 93.938 M 16.070 113.870 C 14.789 116.262, 14.704 119.985, 15.887 121.852 C 16.558 122.911, 17.096 122.701, 18.372 120.879 C 20.382 118.010, 20.467 114.633, 18.570 113.058 C 17.428 112.110, 16.924 112.274, 16.070 113.870 M 20.373 123.369 C 18.324 124.331, 18.302 124.529, 19.748 128.774 C 20.994 132.430, 21.472 132.951, 22.559 131.840 C 26.302 128.011, 24.593 121.385, 20.373 123.369 M 25.492 132.821 C 23.774 134.257, 23.610 135.078, 24.360 138.500 C 25.877 145.426, 25.720 145.229, 28.354 143.504 C 30.583 142.043, 30.678 141.620, 29.767 137.219 C 28.541 131.301, 27.989 130.733, 25.492 132.821 M 30.747 145.848 C 28.828 149.100, 29.393 152.447, 31.711 151.557 C 32.510 151.251, 33.577 151, 34.082 151 C 35.306 151, 35.172 149.113, 33.705 145.688 L 32.500 142.876 30.747 145.848 M 37.015 153.719 C 37.007 154.389, 36.325 154.678, 35.500 154.362 C 33.730 153.682, 33.676 154.018, 34.998 157.495 C 35.547 158.939, 36.393 159.875, 36.877 159.576 C 38.250 158.727, 38.847 155.367, 37.893 153.861 C 37.290 152.910, 37.026 152.867, 37.015 153.719 M 39.503 161.991 C 38.696 164.533, 39.610 166, 42 166 C 44.178 166, 45.564 167.645, 43.863 168.212 C 43.017 168.494, 43.051 169.243, 43.992 171.048 C 45.801 174.517, 45.780 174.509, 47.957 172.539 C 49.771 170.897, 49.809 170.531, 48.437 167.879 C 47.618 166.295, 46.499 165, 45.950 165 C 45.400 165, 44.523 163.875, 44 162.500 C 42.860 159.502, 40.382 159.222, 39.503 161.991 M 50.450 173.350 C 48.526 175.456, 48.124 177.787, 49.386 179.514 C 50.557 181.114, 50.741 181.116, 52.318 179.539 C 54.305 177.552, 54.503 174.656, 52.750 173.223 C 51.889 172.519, 51.173 172.559, 50.450 173.350 M 54.288 180.963 C 52.170 182.683, 52.152 182.828, 53.869 184.382 C 54.855 185.274, 55.970 185.697, 56.346 185.321 C 56.722 184.944, 58.597 186.155, 60.512 188.011 C 62.556 189.993, 63.563 191.652, 62.949 192.031 C 62.281 192.444, 62.462 193.139, 63.453 193.961 C 64.719 195.012, 65 195, 65 193.895 C 65 193.152, 68.831 196.356, 73.514 201.014 C 78.197 205.673, 81.827 210.008, 81.582 210.648 C 81.336 211.288, 82.082 212.642, 83.239 213.656 C 84.397 214.670, 85.046 214.988, 84.683 214.363 C 84.319 213.738, 84.692 212.671, 85.511 211.991 C 87.260 210.539, 87.462 209, 85.903 209 C 84.772 209, 58.752 183.156, 57.309 180.600 C 56.625 179.389, 56.158 179.445, 54.288 180.963 M 58.020 188.524 C 58.716 189.362, 59.491 189.842, 59.743 189.591 C 60.436 188.897, 59.027 187, 57.819 187 C 57.155 187, 57.231 187.574, 58.020 188.524 M 68.020 198.524 C 68.716 199.362, 69.491 199.842, 69.743 199.591 C 70.436 198.897, 69.027 197, 67.819 197 C 67.155 197, 67.231 197.574, 68.020 198.524 M 72 202.378 C 72 202.585, 72.685 203.324, 73.523 204.019 C 74.796 205.076, 74.943 205.014, 74.416 203.641 C 73.878 202.240, 72 201.257, 72 202.378 M 77.461 207.957 C 79.639 210.364, 80.138 210.524, 79.391 208.577 C 79.091 207.795, 78.118 206.875, 77.229 206.534 C 75.901 206.025, 75.942 206.279, 77.461 207.957 M 87.494 214.380 C 85.112 216.123, 85.720 216.922, 90.197 217.932 C 93.352 218.643, 93.546 218.533, 93.443 216.094 C 93.314 213.008, 90.486 212.193, 87.494 214.380 M 100.550 223.650 C 100.719 227.521, 102.374 228.459, 105.915 226.692 C 109.436 224.936, 109.610 225.139, 107.432 228.464 C 105.971 230.693, 106.001 230.930, 107.866 231.928 C 110.848 233.524, 112.706 233.232, 113.269 231.078 C 113.929 228.554, 109.694 224.509, 104.458 222.662 C 100.486 221.260, 100.446 221.270, 100.550 223.650 M 115.325 232.658 C 115.687 233.020, 115.513 233.882, 114.939 234.574 C 114.168 235.502, 114.433 235.985, 115.947 236.416 C 117.076 236.737, 118.844 237.238, 119.876 237.528 C 122.101 238.154, 123.692 234.059, 121.712 232.801 C 120.237 231.864, 114.399 231.733, 115.325 232.658 M 124.709 239.004 C 124.303 240.557, 124.784 241.139, 126.843 241.588 C 128.304 241.906, 130.016 242.323, 130.647 242.513 C 132.379 243.034, 132.985 238.208, 131.270 237.550 C 128.175 236.362, 125.229 237.015, 124.709 239.004 M 134.403 243.455 C 134.389 244.580, 134.855 245.831, 135.439 246.235 C 137.264 247.498, 141.760 247.067, 142.334 245.573 C 143.043 243.724, 141.265 242.357, 137.464 241.830 C 134.941 241.480, 134.424 241.755, 134.403 243.455 M 145.728 247.557 C 143.100 249.818, 143.065 249.965, 144.925 250.960 C 147.395 252.282, 151.694 252.305, 152.500 251 C 152.840 250.450, 153.991 250, 155.059 250 C 156.127 250, 157 249.550, 157 249 C 157 248.450, 156.303 248, 155.450 248 C 154.598 248, 152.680 247.369, 151.188 246.597 C 148.702 245.312, 148.245 245.392, 145.728 247.557 M 163 251.892 C 163 252.382, 161.769 253.092, 160.264 253.470 C 156.590 254.392, 158.826 255.643, 165.803 256.568 C 170.630 257.209, 171 257.109, 171 255.164 C 171 254.013, 170.130 252.605, 169.066 252.035 C 166.693 250.765, 163 250.678, 163 251.892 M 177.590 257.627 C 176.809 259.660, 179.848 262.115, 182.250 261.392 C 184.896 260.595, 187.722 261.829, 188.298 264.033 C 188.857 266.168, 193.158 266.477, 216.500 266.057 C 228.622 265.839, 230.352 265.452, 229.111 263.234 C 228.385 261.937, 226.309 261.570, 218.851 261.420 C 206.777 261.178, 195 259.985, 195 259.006 C 195 257.911, 186.839 256, 182.164 256 C 179.438 256, 178.020 256.504, 177.590 257.627 M 171.695 266.648 C 168.966 267.434, 170.221 269.345, 174.075 270.273 C 175.959 270.726, 177.950 271.066, 178.500 271.029 C 184.894 270.597, 187.227 270.173, 188.118 269.282 C 188.699 268.701, 188.789 267.987, 188.317 267.696 C 187.016 266.892, 173.750 266.055, 171.695 266.648 M 152.008 271.974 C 149.118 273.801, 152.653 275.244, 160.333 275.374 C 168.453 275.511, 170.590 274.636, 167.557 272.418 C 165.350 270.804, 154.356 270.490, 152.008 271.974 M 141.649 276.759 C 141.318 277.294, 141.847 278.456, 142.824 279.341 C 144.285 280.662, 145.281 280.761, 148.420 279.894 C 150.583 279.297, 151.863 278.463, 151.370 277.971 C 150.013 276.616, 142.329 275.658, 141.649 276.759 M 131.610 281.822 C 131.331 282.274, 131.974 283.389, 133.039 284.301 C 134.548 285.593, 135.555 285.739, 137.597 284.963 C 139.769 284.137, 140.007 283.713, 138.986 282.483 C 137.679 280.908, 132.464 280.440, 131.610 281.822 M 125 285.735 C 120.694 286.952, 120.639 287.014, 122.597 288.496 C 124.731 290.111, 127.839 290.388, 129.810 289.139 C 130.807 288.506, 130.568 287.951, 128.810 286.809 C 127.539 285.985, 125.825 285.501, 125 285.735 M 113.511 291.368 C 111.707 292.687, 111.722 292.781, 113.913 293.953 C 115.163 294.623, 117.320 294.886, 118.705 294.538 C 121.136 293.928, 121.162 293.837, 119.457 291.953 C 117.369 289.645, 116.045 289.515, 113.511 291.368 M 105.848 295.750 C 105.764 296.163, 105.651 297.174, 105.596 297.999 C 105.542 298.823, 104.823 299.507, 103.999 299.519 C 101.816 299.551, 97.995 301.023, 98.032 301.817 C 98.049 302.193, 98.616 303.225, 99.291 304.111 C 100.760 306.041, 103.661 305.199, 106.240 302.095 C 107.197 300.943, 108.633 300, 109.431 300 C 111.550 300, 112.356 298.134, 110.964 296.456 C 109.705 294.940, 106.113 294.444, 105.848 295.750 M 91.617 305.195 C 89.946 306.130, 89.944 306.280, 91.582 308.091 C 93.609 310.330, 96.290 310.561, 97.890 308.633 C 99.839 306.284, 94.701 303.468, 91.617 305.195 M 85.797 309.680 C 84.860 309.927, 83.818 311, 83.480 312.064 C 83.142 313.129, 82.458 314, 81.961 314 C 80.870 314, 68 326.990, 68 328.091 C 68 328.517, 67.123 329.144, 66.051 329.484 C 64.979 329.824, 63.824 330.979, 63.484 332.051 C 63.144 333.123, 62.431 334, 61.899 334 C 61.368 334, 59.373 335.560, 57.467 337.467 C 53.768 341.165, 52.770 344.409, 55.674 343.295 C 56.979 342.794, 57.194 343.052, 56.651 344.468 C 56.058 346.014, 56.184 346.093, 57.500 345 C 58.350 344.295, 58.800 342.945, 58.500 342 C 57.886 340.065, 60.085 337.782, 62.145 338.215 C 62.890 338.372, 63.372 337.890, 63.215 337.145 C 62.893 335.613, 64.763 333, 66.181 333 C 66.697 333, 66.819 333.483, 66.454 334.074 C 66.089 334.664, 66.753 334.552, 67.929 333.824 C 69.685 332.737, 69.780 332.440, 68.458 332.162 C 67.007 331.858, 67.019 331.636, 68.580 329.912 C 70.372 327.931, 72.588 327.239, 71.500 329 C 70.494 330.628, 71.642 330.140, 73.128 328.308 C 74.060 327.158, 74.099 326.857, 73.250 327.367 C 71.339 328.515, 71.763 326.524, 73.829 324.655 C 75.986 322.703, 77.435 322.472, 76.367 324.250 C 75.857 325.099, 76.158 325.060, 77.308 324.128 C 79.140 322.642, 79.628 321.494, 78 322.500 C 76.377 323.503, 76.859 321.362, 78.576 319.937 C 79.883 318.853, 80.308 318.874, 81.061 320.064 C 81.841 321.297, 81.988 321.288, 82.103 320 C 82.177 319.175, 82.178 317.998, 82.105 317.383 C 81.909 315.719, 85.226 313.205, 85.712 314.649 C 85.989 315.469, 86.960 315.368, 89.111 314.295 C 91.989 312.859, 92.046 312.709, 90.406 310.896 C 89.462 309.853, 88.422 309.052, 88.095 309.116 C 87.768 309.180, 86.734 309.434, 85.797 309.680 M 48.558 347.936 C 47.140 349.503, 47.206 349.845, 49.308 351.820 C 51.934 354.286, 54 353.228, 54 349.417 C 54 346.571, 50.624 345.653, 48.558 347.936 M 44.667 352.667 C 44.300 353.033, 44 354.293, 44 355.467 C 44 356.640, 43.572 358.028, 43.050 358.550 C 42.450 359.150, 43.191 359.500, 45.062 359.500 C 48.465 359.500, 49.711 357.198, 48.020 354.038 C 46.897 351.939, 45.830 351.503, 44.667 352.667 M 35.131 366.342 C 33.681 368.090, 34.331 371.200, 36.527 373.022 C 38.107 374.333, 38.258 374.107, 39.467 368.624 C 39.972 366.336, 39.797 365.864, 38.615 366.317 C 37.798 366.631, 36.971 366.414, 36.778 365.834 C 36.574 365.221, 35.886 365.433, 35.131 366.342 M 29.392 377.119 C 27.755 378.928, 27.786 379.143, 30.022 381.524 C 32.658 384.330, 33.471 383.920, 34.322 379.355 C 34.794 376.820, 34.540 376.113, 33.011 375.713 C 31.905 375.424, 30.395 376.011, 29.392 377.119 M 24.734 386.750 C 23.288 388.356, 23.358 388.732, 25.582 391.309 L 28.005 394.117 29.002 391.494 C 30.399 387.819, 30.250 386.310, 28.418 385.607 C 26.339 384.809, 26.537 384.748, 24.734 386.750 M 20.677 395.750 C 20.434 396.163, 19.922 397.962, 19.538 399.749 C 18.957 402.459, 19.103 402.898, 20.421 402.392 C 21.376 402.025, 22.013 402.322, 22.032 403.143 C 22.095 405.843, 25 400.622, 25 397.809 C 25 395.695, 24.520 395, 23.059 395 C 21.991 395, 20.919 395.337, 20.677 395.750 M 15.628 405.853 C 14.031 411.806, 14.052 412.662, 15.791 412.534 C 18.760 412.315, 20 410.996, 20 408.058 C 20 404.795, 16.399 402.979, 15.628 405.853 M 10.987 420.024 C 9.667 422.490, 9.763 424.733, 11.388 429.400 L 12.746 433.301 13.781 429.900 C 14.351 428.030, 15.048 424.856, 15.330 422.846 C 15.754 419.830, 15.506 419.104, 13.908 418.686 C 12.680 418.365, 11.614 418.853, 10.987 420.024 M 6.011 436.959 C 4.816 441.397, 5.287 448.261, 6.972 450.966 C 7.700 452.136, 8.099 451.870, 8.943 449.651 C 10.411 445.788, 10.263 439.854, 8.598 435.895 L 7.196 432.560 6.011 436.959 M 7.232 459 C 7.232 460.925, 7.438 461.712, 7.689 460.750 C 7.941 459.788, 7.941 458.212, 7.689 457.250 C 7.438 456.288, 7.232 457.075, 7.232 459 M 6.050 473.907 C 4.633 476.554, 6.501 481.899, 8.237 480.163 C 9.106 479.294, 36.047 479.003, 114.950 479.014 C 173.002 479.021, 221.513 479.299, 222.750 479.630 C 225.616 480.398, 225.628 482.447, 222.777 484.443 C 220.800 485.828, 208.991 486, 115.777 486 C 12.872 486, 10.965 485.965, 9.030 484.030 C 7.071 482.071, 7.055 482.081, 6.021 485.923 C 3.935 493.667, -5.960 493, 110.985 493 C 202.265 493, 216.222 493.195, 219.378 494.513 L 223 496.027 223 504.013 L 223 512 251.371 512 L 279.743 512 280.464 500.866 C 281.017 492.334, 280.890 489.550, 279.921 488.951 C 279.225 488.521, 274.101 487.859, 268.536 487.479 C 258.558 486.799, 258.391 486.746, 256.640 483.695 C 255.659 481.987, 254.559 481.049, 254.182 481.601 C 253.807 482.151, 251.148 482.690, 248.272 482.800 C 245.397 482.909, 241.205 483.734, 238.957 484.634 C 233.894 486.660, 232.892 485.841, 232.483 479.344 L 232.179 474.500 120.839 474 C 59.603 473.725, 8.960 473.150, 8.300 472.722 C 7.567 472.246, 6.692 472.707, 6.050 473.907 M 247.200 490.200 C 246.540 490.860, 246 491.976, 246 492.681 C 246 493.385, 244.762 494.235, 243.250 494.568 C 241.738 494.902, 240.050 495.325, 239.500 495.509 C 238.950 495.692, 244.350 495.794, 251.500 495.736 C 258.650 495.678, 262.137 495.465, 259.249 495.263 C 254.615 494.939, 253.818 494.549, 252.473 491.948 C 250.851 488.811, 249.152 488.248, 247.200 490.200" stroke="none" fill="#000000" fill-rule="evenodd"/>
</svg>