<svg xmlns="http://www.w3.org/2000/svg" width="512" height="442" viewBox="0 0 512 442" version="1.1">
	<path d="M 460.713 6.620 C 460.372 6.961, 454.109 7.210, 446.796 7.173 C 437.798 7.127, 432.530 7.533, 430.500 8.430 L 427.500 9.755 430.315 10.877 C 431.863 11.495, 437.938 12.014, 443.815 12.032 C 454.918 12.065, 456.665 12.606, 458.837 16.684 C 459.711 18.325, 460 71.505, 460 230.434 L 460 442 464.493 442 L 468.986 442 469.243 230.050 C 469.425 79.599, 469.814 17.786, 470.583 17.017 C 472.125 15.475, 474.334 16.603, 476.303 19.936 C 477.884 22.613, 478 37.074, 478 232.404 L 478 442 482.750 442 L 487.500 442 487.263 227.750 C 487.132 109.913, 486.779 12.458, 486.477 11.184 C 485.643 7.663, 480.421 6, 470.199 6 C 465.323 6, 461.054 6.279, 460.713 6.620 M 394 13.680 C 392.075 13.878, 389.437 14.277, 388.138 14.567 C 385.882 15.071, 385.853 15.180, 387.500 17 C 388.748 18.379, 390.022 18.746, 392.110 18.328 C 393.701 18.010, 395.620 18.270, 396.389 18.908 C 398.001 20.246, 412.350 19.481, 417.984 17.757 C 421.018 16.828, 421.212 16.590, 419.484 15.915 C 418.393 15.489, 415.389 15.109, 412.809 15.070 C 410.229 15.032, 407.840 14.550, 407.500 14 C 406.908 13.042, 401.458 12.913, 394 13.680 M 424.813 16.683 C 425.534 16.972, 426.397 16.936, 426.729 16.604 C 427.061 16.272, 426.471 16.036, 425.417 16.079 C 424.252 16.127, 424.015 16.364, 424.813 16.683 M 370 19.688 C 362.832 20.228, 361.004 20.846, 361.642 22.510 C 362.027 23.513, 363.631 24, 366.548 24 C 368.932 24, 371.195 24.507, 371.578 25.126 C 372.433 26.510, 382.169 25.742, 386.500 23.949 L 389.500 22.707 385.832 21.604 C 383.814 20.997, 381.827 20.163, 381.415 19.750 C 380.681 19.015, 379.059 19.006, 370 19.688 M 351.797 25.536 C 351.502 25.831, 348.615 26.102, 345.380 26.139 C 338.567 26.217, 335.804 27.325, 336.687 29.627 C 337.154 30.843, 338.218 31.100, 341.150 30.707 C 343.267 30.423, 345.251 30.598, 345.559 31.095 C 346.447 32.533, 356.413 32.150, 358.538 30.596 C 360.406 29.230, 360.391 29.135, 357.979 27.129 C 355.575 25.129, 352.895 24.439, 351.797 25.536 M 329 31.805 C 328.175 32.070, 326.402 32.694, 325.061 33.191 L 322.622 34.094 325.267 36.547 C 326.722 37.896, 328.877 39, 330.055 39 C 332.984 39, 339.308 35.898, 338.308 34.951 C 336.715 33.442, 330.471 31.332, 329 31.805 M 314.074 38.877 C 310.679 39.826, 310.483 41.431, 313.518 43.420 C 315.723 44.865, 316.654 44.939, 319.747 43.918 L 323.384 42.718 320.442 40.364 C 318.824 39.069, 317.275 38.053, 317 38.105 C 316.725 38.157, 315.408 38.504, 314.074 38.877 M 296.739 44.959 C 291.901 45.898, 291.305 46.575, 293.339 48.823 C 294.253 49.832, 295 51.233, 295 51.936 C 295 52.755, 295.628 52.961, 296.750 52.508 C 297.712 52.120, 300.300 51.561, 302.500 51.266 C 304.700 50.970, 307.345 50.293, 308.378 49.761 C 310.154 48.845, 310.116 48.663, 307.672 46.396 C 305.014 43.932, 303.239 43.699, 296.739 44.959 M 281.061 52.101 L 278.622 53.075 281.056 55.359 C 283.133 57.307, 284.076 57.528, 287.495 56.865 C 289.698 56.437, 291.864 56.068, 292.309 56.044 C 293.809 55.963, 291.983 54.138, 288.826 52.563 C 285.268 50.788, 284.467 50.741, 281.061 52.101 M 270 57.895 C 267.083 58.706, 266.907 59.662, 269.102 62.761 C 270.639 64.931, 270.850 64.961, 274.352 63.497 C 276.358 62.659, 278 61.714, 278 61.397 C 278 60.701, 273.706 57.039, 273 57.133 C 272.725 57.169, 271.375 57.512, 270 57.895 M 258.833 64.589 C 257.277 66.151, 257.277 66.378, 258.833 68.007 C 261.854 71.169, 264.550 71.306, 267.652 68.456 C 269.218 67.016, 269.908 66.145, 269.183 66.519 C 268.459 66.894, 267.334 66.505, 266.683 65.655 C 264.816 63.216, 260.751 62.664, 258.833 64.589 M 251.047 70.291 L 246.594 72.253 248.908 74.126 C 251.382 76.130, 255.573 76.556, 257.960 75.046 C 259.230 74.242, 259.215 73.886, 257.841 72.311 C 256.972 71.315, 256.090 70.012, 255.880 69.415 C 255.633 68.709, 253.946 69.015, 251.047 70.291 M 238.228 77.039 C 236.978 77.541, 235.686 78.655, 235.357 79.513 C 235.027 80.372, 233.237 81.710, 231.379 82.486 C 227.409 84.145, 227.066 86.158, 230.383 88.331 C 232.401 89.654, 233.047 89.686, 234.608 88.545 C 235.622 87.803, 236.462 86.258, 236.476 85.111 C 236.489 83.964, 236.950 83.065, 237.500 83.113 C 238.050 83.161, 238.409 83.541, 238.298 83.957 C 238.187 84.373, 240.136 83.775, 242.629 82.628 L 247.163 80.542 244.332 78.276 C 241.169 75.745, 241.356 75.783, 238.228 77.039 M 218.477 89.765 C 217.914 90.169, 216.666 91.737, 215.704 93.250 C 214.741 94.763, 213.316 96, 212.536 96 C 210.159 96, 209.797 97.855, 211.685 100.358 C 213.354 102.570, 213.636 102.629, 215.798 101.213 C 217.478 100.112, 217.775 99.479, 216.874 98.922 C 215.887 98.312, 215.900 97.826, 216.937 96.576 C 218.553 94.629, 220.405 94.502, 219.681 96.388 C 219.341 97.274, 220.793 96.857, 223.696 95.234 L 228.244 92.693 225.872 90.869 C 223.406 88.972, 220.239 88.500, 218.477 89.765 M 203.164 102.302 C 202.570 103.018, 202.342 104.593, 202.658 105.802 C 203.464 108.884, 208.973 108.851, 211.584 105.750 C 212.626 104.513, 213.086 103.823, 212.605 104.217 C 212.125 104.612, 210.607 104.049, 209.231 102.967 C 206.314 100.673, 204.666 100.492, 203.164 102.302 M 196.080 108.800 C 194.329 110.275, 194.242 110.738, 195.426 112.297 C 196.176 113.286, 198.075 114.186, 199.645 114.297 C 202.172 114.477, 202.500 114.169, 202.500 111.615 C 202.500 107.836, 199.030 106.315, 196.080 108.800 M 190.302 114.250 C 189.176 115.487, 188.465 117.078, 188.722 117.784 C 188.979 118.490, 188.605 119.771, 187.892 120.631 C 186.720 122.043, 186.538 122.033, 186.011 120.532 C 185.499 119.072, 185.188 119.142, 183.464 121.104 C 181.737 123.069, 181.712 123.262, 183.250 122.701 C 185.419 121.910, 185.439 122.400, 183.368 125.560 C 181.739 128.048, 181.740 128.049, 184.437 127.024 C 185.922 126.459, 188.568 124.492, 190.318 122.651 C 192.068 120.811, 194.175 119.073, 195 118.790 C 196.231 118.367, 196.094 117.832, 194.241 115.813 C 192.998 114.459, 192.286 113.048, 192.658 112.676 C 193.029 112.304, 193.112 112, 192.841 112 C 192.570 112, 191.427 113.013, 190.302 114.250 M 175.345 127.451 C 173.610 128.206, 171.900 129.740, 171.544 130.860 C 171.189 131.981, 170.019 133.177, 168.945 133.518 C 167.871 133.858, 166.404 135.260, 165.685 136.632 C 164.966 138.005, 163.345 139.661, 162.083 140.314 C 160.822 140.966, 159.162 143.014, 158.395 144.865 L 157 148.230 159.465 146.615 C 162.562 144.585, 163 144.595, 163 146.691 C 163 148.164, 163.182 148.133, 164.415 146.447 C 165.409 145.088, 165.502 144.310, 164.728 143.832 C 164.049 143.412, 165.713 141.016, 169.063 137.590 C 174.597 131.930, 176.732 130.651, 175.564 133.694 C 174.999 135.165, 175.186 135.142, 176.981 133.518 C 178.374 132.256, 178.680 131.420, 177.920 130.951 C 177.086 130.435, 177.089 129.703, 177.932 128.127 C 178.558 126.957, 178.942 126.018, 178.785 126.039 C 178.628 126.061, 177.080 126.696, 175.345 127.451 M 170.443 138.418 C 169.376 139.198, 168.768 140.101, 169.091 140.424 C 169.414 140.748, 170.496 140.110, 171.494 139.006 C 173.619 136.659, 173.183 136.415, 170.443 138.418 M 145.482 159.019 C 143.698 160.991, 143.696 161.054, 145.443 160.384 C 146.760 159.878, 147.143 160.076, 146.809 161.091 C 146.555 161.866, 144.953 162.638, 143.250 162.808 C 141.297 163.002, 139.564 164.016, 138.554 165.558 C 137.674 166.901, 137.414 168, 137.977 168 C 138.540 168, 139 168.478, 139 169.063 C 139 169.647, 138.213 169.996, 137.250 169.838 C 134.494 169.384, 133 170.869, 133 174.059 C 133 176.461, 132.579 177, 130.700 177 C 126.198 177, 125.330 180.197, 128.750 184.187 C 129.550 185.121, 129.862 186.460, 129.448 187.187 C 129.036 187.909, 130.307 186.983, 132.272 185.129 C 134.545 182.984, 135.628 181.194, 135.249 180.206 C 134.812 179.068, 135.096 178.823, 136.311 179.289 C 138.287 180.047, 140 177.361, 140 173.503 C 140 171.556, 140.454 170.949, 141.750 171.162 C 144.209 171.567, 146 170.219, 146 167.964 C 146 166.909, 147.056 165.354, 148.346 164.509 C 150.323 163.214, 153 159.135, 153 157.418 C 153 157.149, 152.043 157.442, 150.873 158.068 C 149.297 158.911, 148.565 158.914, 148.049 158.080 C 147.580 157.320, 146.744 157.626, 145.482 159.019 M 122.193 185.207 C 120.525 186.875, 120.685 191, 122.417 191 C 123.196 191, 124.004 191.511, 124.212 192.137 C 124.421 192.762, 125.333 192.141, 126.239 190.758 C 127.808 188.364, 127.779 188.141, 125.637 186.128 C 123.893 184.491, 123.117 184.283, 122.193 185.207 M 114.049 196.448 L 112.024 198.604 114.930 202.052 C 118.360 206.123, 119.870 205.392, 120.692 199.259 C 121.184 195.593, 121.021 195.237, 118.650 194.784 C 116.858 194.441, 115.458 194.948, 114.049 196.448 M 109.477 202.588 C 109.124 204.190, 108.484 206.625, 108.056 208 C 107.350 210.269, 107.538 210.492, 110.091 210.413 C 111.638 210.364, 113.605 209.743, 114.463 209.031 C 115.828 207.898, 115.839 207.597, 114.554 206.618 C 113.747 206.003, 112.419 204.190, 111.603 202.588 L 110.119 199.676 109.477 202.588 M 103.277 213.203 C 102.702 213.916, 101.807 216.525, 101.290 219 C 100.359 223.450, 100.378 223.499, 103.001 223.416 C 106.728 223.298, 108 222.270, 108 219.375 C 108 217.997, 108.442 216.042, 108.983 215.032 C 109.817 213.474, 109.650 213.279, 107.880 213.742 C 106.734 214.041, 105.464 213.751, 105.059 213.096 C 104.499 212.190, 104.074 212.215, 103.277 213.203 M 95.748 227.726 C 94.261 229.369, 94.357 229.758, 97.045 233 C 98.640 234.925, 99.969 236.050, 99.997 235.500 C 100.025 234.950, 100.447 232.780, 100.935 230.677 C 101.698 227.390, 101.601 226.939, 100.241 227.461 C 99.371 227.795, 98.366 227.592, 98.006 227.010 C 97.589 226.334, 96.774 226.593, 95.748 227.726 M 90.254 233.604 C 89.719 234.647, 89.005 236.963, 88.666 238.750 C 88.147 241.488, 88.348 242, 89.942 242 C 90.982 242, 91.991 242.472, 92.183 243.049 C 92.375 243.626, 93.716 242.838, 95.163 241.299 L 97.793 238.500 94.510 235.104 C 91.455 231.943, 91.159 231.839, 90.254 233.604 M 84.206 245.252 C 82.533 247.268, 81.371 255.507, 82.892 254.567 C 83.549 254.160, 84.712 254.346, 85.474 254.978 C 87.154 256.373, 88.390 254.423, 89.411 248.765 C 89.989 245.561, 89.852 245.120, 88.442 245.661 C 87.538 246.008, 86.466 245.755, 86.061 245.098 C 85.502 244.194, 85.053 244.232, 84.206 245.252 M 77.398 258.165 C 76.969 258.859, 76.331 261.318, 75.980 263.630 C 75.398 267.467, 75.544 267.871, 77.665 268.276 C 80.586 268.835, 82.073 267.068, 83.014 261.922 C 83.631 258.550, 83.504 257.976, 82.250 258.458 C 81.423 258.775, 80.169 258.555, 79.462 257.969 C 78.539 257.203, 77.959 257.258, 77.398 258.165 M 70.698 274.956 C 69.244 279.916, 69.273 280.276, 71.441 284.094 C 74.024 288.641, 75.349 288.027, 76.524 281.739 C 76.910 279.670, 77.666 277.707, 78.202 277.375 C 78.738 277.044, 78.133 276.252, 76.858 275.617 C 75.583 274.981, 74.016 273.410, 73.375 272.126 C 72.271 269.911, 72.134 270.057, 70.698 274.956 M 64.500 291.346 C 62.306 296.597, 62.569 298.684, 65.494 299.244 C 68.600 299.837, 69.550 298.659, 70.387 293.176 C 70.839 290.219, 70.710 289.061, 69.980 289.512 C 69.393 289.875, 68.257 289.628, 67.456 288.964 C 66.251 287.963, 65.742 288.373, 64.500 291.346 M 58.157 303.555 C 56.594 306.985, 56.702 310.199, 58.494 313.636 C 59.315 315.211, 60.008 317.400, 60.034 318.500 C 60.129 322.629, 62.846 315.529, 63.748 308.791 C 64.463 303.460, 64.378 302.302, 63.303 302.714 C 62.572 302.994, 61.376 302.727, 60.644 302.120 C 59.618 301.268, 59.050 301.596, 58.157 303.555 M 52.053 324.750 C 50.574 330.075, 50.749 334.356, 52.688 340.284 L 54.375 345.443 55.605 342.472 C 56.282 340.837, 57.140 336.923, 57.513 333.774 C 58.052 329.218, 57.865 327.722, 56.595 326.453 C 55.718 325.575, 55 323.989, 55 322.929 C 55 319.655, 53.150 320.798, 52.053 324.750 M 46.186 348.130 C 44.044 355.019, 43.700 361.843, 45.409 363.552 C 46.284 364.427, 47 366.011, 47 367.071 C 47 370.120, 48.744 369.318, 49.872 365.750 C 51.400 360.918, 51.582 353.182, 50.201 351.801 C 49.541 351.141, 48.993 349.903, 48.985 349.050 C 48.976 348.197, 48.579 346.884, 48.102 346.130 C 47.464 345.124, 46.956 345.655, 46.186 348.130 M 39.666 374.932 C 37.791 381.044, 37.282 401, 39 401 C 39.575 401, 40.030 404.297, 40.070 408.750 C 40.109 413.012, 40.488 417.390, 40.913 418.478 C 41.683 420.448, 41.690 420.448, 42.742 418.478 C 44.092 415.949, 45.553 379.684, 44.379 377.863 C 43.895 377.113, 43.012 374.925, 42.416 373 L 41.331 369.500 39.666 374.932 M 41.079 431.583 C 41.127 432.748, 41.364 432.985, 41.683 432.188 C 41.972 431.466, 41.936 430.603, 41.604 430.271 C 41.272 429.939, 41.036 430.529, 41.079 431.583 M 33.646 436.095 C 31.014 439.853, 31.506 442, 35 442 C 38.368 442, 38.865 440.188, 36.611 436.122 L 35.293 433.744 33.646 436.095" stroke="none" fill="#000000" fill-rule="evenodd"/>
</svg>