<svg xmlns="http://www.w3.org/2000/svg" width="512" height="146" viewBox="0 0 512 146" version="1.1">
	<path d="M 0 20 L 0 40 5.351 40 C 8.294 40, 12.029 40.463, 13.652 41.029 C 17.790 42.471, 20.371 47.201, 19.709 52.130 C 19.266 55.436, 19.829 57.167, 23.296 63.155 C 29.836 74.451, 38.366 82.175, 51.044 88.281 C 53.578 89.502, 56.110 91.400, 56.670 92.500 C 64.172 107.222, 73.289 118.272, 80.223 121.046 C 82.025 121.767, 85.140 123.627, 87.144 125.178 C 89.148 126.730, 91.699 128, 92.812 128 C 98.322 128, 101 132.072, 101 140.450 L 101 146 127.142 146 L 153.283 146 152.723 135.250 C 152.397 129.004, 151.429 122.405, 150.413 119.500 C 148.257 113.339, 142.394 105.213, 137.865 102.110 C 135.999 100.831, 133.155 98.033, 131.544 95.892 C 129.934 93.752, 128.082 92, 127.429 92 C 124.260 92, 121.217 74.483, 123.040 66.727 C 125.356 56.873, 127.590 54.204, 135.746 51.549 C 139.740 50.249, 142.843 49.987, 148.746 50.450 C 153.011 50.785, 236.418 51.298, 334.095 51.590 L 511.690 52.121 512.340 42.310 C 512.697 36.915, 512.992 25.188, 512.995 16.250 L 513 0 256.500 0 L 0 0 0 20 M 0.420 20.500 C 0.419 31.500, 0.565 36.136, 0.745 30.803 C 0.924 25.470, 0.925 16.470, 0.746 10.803 C 0.568 5.136, 0.421 9.500, 0.420 20.500" stroke="none" fill="#000000" fill-rule="evenodd"/>
</svg>