<svg xmlns="http://www.w3.org/2000/svg" width="512" height="453" viewBox="0 0 512 453" version="1.1">
	<path d="M 24 2.941 C 24 5.794, 22.082 8.438, 21.919 5.809 C 21.875 5.089, 20.982 6.300, 19.935 8.500 C 18.083 12.394, 18.033 18.195, 18.055 227.425 C 18.076 422.050, 17.929 442.499, 16.497 443.925 C 15.288 445.130, 13.162 445.440, 7.458 445.245 L 0 444.990 0 448.995 L 0 453 21.500 453 L 43 453 43.016 448.750 C 43.025 446.413, 43.019 348.875, 43.004 232 L 42.975 19.500 46.245 14.500 C 48.928 10.398, 50.321 9.269, 54.007 8.214 C 56.478 7.507, 59.625 6.599, 61 6.196 C 62.747 5.684, 63.595 4.640, 63.816 2.732 L 64.133 0 44.066 0 L 24 0 24 2.941 M 67.184 2.750 C 67.470 5.239, 67.880 5.500, 71.500 5.500 C 75.120 5.500, 75.530 5.239, 75.816 2.750 C 76.121 0.100, 75.964 0, 71.500 0 C 67.036 0, 66.879 0.100, 67.184 2.750 M 86 2.500 C 86 3.875, 86.450 5, 87 5 C 87.550 5, 88 3.875, 88 2.500 C 88 1.125, 87.550 0, 87 0 C 86.450 0, 86 1.125, 86 2.500 M 106.552 9.591 C 105.318 10.825, 103.865 11.032, 100.084 10.512 C 96.393 10.004, 94.393 10.265, 91.854 11.587 L 88.500 13.333 92.500 15.153 C 95.161 16.363, 97.839 16.804, 100.500 16.468 C 102.700 16.191, 108.172 16.578, 112.660 17.329 C 119.535 18.479, 120.738 18.480, 120.298 17.334 C 120.011 16.586, 120.350 15.283, 121.052 14.437 C 122.798 12.333, 120.540 10.145, 115.391 8.950 C 109.882 7.672, 108.360 7.783, 106.552 9.591 M 27.701 13.632 C 27.316 14.018, 27 15.415, 27 16.736 C 27 18.656, 27.452 19.075, 29.250 18.820 C 30.894 18.586, 31.500 17.831, 31.500 16.014 C 31.500 13.600, 29.185 12.149, 27.701 13.632 M 66.269 13.693 C 67.242 13.947, 68.592 13.930, 69.269 13.656 C 69.946 13.382, 69.150 13.175, 67.500 13.195 C 65.850 13.215, 65.296 13.439, 66.269 13.693 M 132 18.393 C 132 19.827, 131.438 21.015, 130.750 21.033 C 127.875 21.110, 134.431 24.927, 139.192 25.948 C 143.996 26.978, 144.742 26.863, 149.781 24.313 L 155.202 21.571 152.545 19.285 C 150.298 17.352, 148.753 17, 142.526 17 C 138.477 17, 134.452 16.727, 133.582 16.393 C 132.389 15.935, 132 16.427, 132 18.393 M 161 20.694 C 163.696 21.657, 165.013 24.108, 163.926 26.138 C 163.378 27.162, 162.525 28, 162.030 28 C 161.535 28, 159.863 28.482, 158.315 29.070 C 154.411 30.555, 156.469 31.548, 167.392 33.453 C 172.164 34.285, 176.953 35.440, 178.034 36.018 C 179.588 36.850, 180 36.752, 180 35.549 C 180 34.713, 181.861 32.797, 184.136 31.291 L 188.271 28.555 185.386 27.322 C 183.799 26.645, 180.697 26.070, 178.493 26.045 C 172.951 25.983, 168.049 24.430, 165.810 22.027 C 164.772 20.912, 162.927 20.036, 161.711 20.079 C 160.262 20.131, 160.017 20.343, 161 20.694 M 26.473 27.086 C 25.626 29.755, 27.908 37.197, 29.419 36.694 C 30.016 36.495, 30.500 33.913, 30.500 30.930 C 30.500 26.685, 30.143 25.459, 28.835 25.207 C 27.827 25.013, 26.895 25.754, 26.473 27.086 M 46.272 32 C 46.272 34.475, 46.467 35.487, 46.706 34.250 C 46.944 33.013, 46.944 30.988, 46.706 29.750 C 46.467 28.512, 46.272 29.525, 46.272 32 M 190.712 36.296 C 190.310 38.867, 190.792 40.111, 193.150 42.594 L 196.089 45.687 200.294 41.844 C 202.607 39.730, 204.892 38, 205.372 38 C 207.795 38, 203.301 34.975, 200.150 34.485 C 198.142 34.172, 195.311 33.731, 193.857 33.504 C 191.538 33.143, 191.152 33.486, 190.712 36.296 M 208 43.649 C 208 44.942, 207.438 46.014, 206.750 46.032 C 204.780 46.081, 210.899 51, 212.931 51 C 213.931 51, 216.180 51.286, 217.928 51.636 C 220.963 52.243, 221.076 52.152, 220.445 49.636 C 219.965 47.723, 220.169 47, 221.192 47 C 223.443 47, 225 49.169, 225 52.307 C 225 54.659, 224.666 55.089, 223.250 54.558 C 222.034 54.102, 222.277 54.687, 224.046 56.474 C 225.869 58.316, 228.068 59.221, 231.796 59.662 C 236.871 60.263, 237 60.215, 237 57.723 C 237 56.317, 237.563 54.956, 238.250 54.698 C 240.535 53.842, 235.730 51.098, 230.724 50.401 C 227.057 49.890, 225.484 49.083, 223.948 46.927 C 221.745 43.833, 220.476 43.271, 213.045 42.096 C 208.190 41.329, 208 41.387, 208 43.649 M 27 53.500 C 27 55.944, 27.452 57, 28.500 57 C 29.548 57, 30 55.944, 30 53.500 C 30 51.056, 29.548 50, 28.500 50 C 27.452 50, 27 51.056, 27 53.500 M 242.605 60.562 C 242.911 61.783, 242.676 63.082, 242.081 63.450 C 239.352 65.137, 242.756 67.229, 250.250 68.470 C 253.898 69.074, 254 69.008, 254 66.045 C 254 64.323, 254.528 63, 255.214 63 C 256.017 63, 255.898 62.469, 254.862 61.434 C 254.001 60.572, 250.765 59.524, 247.672 59.104 C 242.201 58.362, 242.063 58.402, 242.605 60.562 M 259.616 69.607 C 260.083 71.465, 259.816 72, 258.421 72 C 256.934 72, 257.119 72.514, 259.500 75 C 262.578 78.213, 264 78.763, 264 76.741 C 264 76.048, 264.900 74.919, 266 74.232 C 268.198 72.860, 268.629 70.507, 266.882 69.427 C 266.267 69.047, 264.246 68.394, 262.390 67.975 C 259.192 67.254, 259.047 67.339, 259.616 69.607 M 26.764 243.750 C 26.619 339.313, 26.853 418.287, 27.285 419.250 C 29.494 424.173, 32.914 418.802, 31.432 412.737 C 30.997 410.957, 30.494 333.113, 30.315 239.750 C 30.028 90.672, 29.808 70, 28.508 70 C 27.208 70, 26.996 91.112, 26.764 243.750 M 46.232 73 C 46.232 74.925, 46.438 75.713, 46.689 74.750 C 46.941 73.787, 46.941 72.213, 46.689 71.250 C 46.438 70.287, 46.232 71.075, 46.232 73 M 274.510 75.984 C 274.164 76.543, 273.087 77, 272.115 77 C 271.144 77, 269.298 78.118, 268.015 79.484 L 265.681 81.969 269.308 83.484 C 271.303 84.318, 273.572 85, 274.349 85 C 275.127 85, 276.896 86.486, 278.281 88.301 C 279.706 90.170, 282.374 92.086, 284.429 92.717 L 288.059 93.831 285.853 90.263 L 283.648 86.695 286.574 87.424 L 289.500 88.153 286.501 85.012 C 283.588 81.961, 283.488 81.934, 282.984 84.068 C 282.515 86.056, 282.337 86.111, 281.121 84.646 C 280.367 83.738, 280.032 82.009, 280.358 80.711 C 280.814 78.894, 280.314 78.026, 278.038 76.682 C 276.202 75.597, 274.907 75.341, 274.510 75.984 M 291.807 93.135 C 292.067 94.907, 291.753 96.534, 291.071 96.956 C 290.270 97.451, 291.108 98.766, 293.643 100.991 C 295.823 102.905, 297.563 103.811, 297.785 103.146 C 298.312 101.563, 302 101.697, 302 103.300 C 302 104.015, 301.531 105.069, 300.958 105.642 C 299.424 107.176, 301.575 108.555, 308.047 110.188 L 313.593 111.588 313.197 108.887 C 312.905 106.896, 313.269 106.095, 314.583 105.842 C 316.013 105.566, 315.488 104.661, 311.933 101.267 C 308.817 98.293, 307.404 97.476, 307.177 98.518 C 306.999 99.333, 306.211 100, 305.427 100 C 303.755 100, 303.529 98.409, 305.065 97.460 C 307.104 96.200, 302.840 93.098, 298.135 92.418 C 295.586 92.049, 293.017 91.365, 292.427 90.898 C 291.694 90.318, 291.497 91.028, 291.807 93.135 M 327 118.500 C 328.292 119.875, 329.574 121, 329.849 121 C 330.124 121, 329.292 119.875, 328 118.500 C 326.708 117.125, 325.426 116, 325.151 116 C 324.876 116, 325.708 117.125, 327 118.500 M 321.968 120.727 C 322.561 121.952, 324.048 123.439, 325.273 124.032 C 327.344 125.035, 327.372 125.007, 325.669 123.636 C 324.662 122.825, 323.175 121.338, 322.364 120.331 C 320.993 118.628, 320.965 118.656, 321.968 120.727 M 347.287 138.250 C 348.205 138.938, 349.675 140.400, 350.553 141.500 C 351.430 142.600, 351.821 142.825, 351.422 142 C 350.261 139.603, 347.779 137, 346.654 137 C 346.084 137, 346.369 137.563, 347.287 138.250 M 365.718 156.421 C 367.672 159.034, 368.381 159.157, 367.446 156.720 C 367.116 155.859, 366.191 154.903, 365.390 154.596 C 364.295 154.176, 364.375 154.626, 365.718 156.421 M 369 166.287 C 369 167.782, 372.350 176, 372.959 176 C 373.383 176, 374.874 175.100, 376.273 174 C 377.671 172.900, 379.532 172, 380.408 172 C 382.371 172, 382.521 174.586, 380.601 175.323 C 379.831 175.618, 378.672 177.462, 378.026 179.421 C 376.990 182.559, 377.102 183.334, 378.963 185.949 C 380.994 188.801, 381.156 188.850, 383.151 187.208 C 386.617 184.356, 388.050 179.997, 386.505 177.009 C 384.508 173.148, 375.498 165.902, 374.248 167.152 C 373.537 167.863, 372.558 167.834, 371.107 167.057 C 369.948 166.437, 369 166.090, 369 166.287 M 388.772 187.965 C 387.349 189.084, 385.715 190, 385.141 190 C 383.264 190, 387.622 198.012, 391.364 201.439 C 393.364 203.271, 395 205.666, 395 206.762 C 395 209.333, 397.282 211.213, 399.410 210.396 C 400.325 210.045, 401.762 208.428, 402.602 206.803 C 403.973 204.151, 403.973 203.608, 402.598 201.509 C 401.538 199.892, 400.436 199.335, 399.027 199.703 C 396.998 200.234, 394 198.549, 394 196.878 C 394 196.395, 394.652 196, 395.449 196 C 396.699 196, 396.687 195.484, 395.361 192.250 C 392.924 186.300, 391.810 185.575, 388.772 187.965 M 406.786 212.774 C 404.471 215.471, 403.910 217.963, 405.111 220.208 C 405.995 221.860, 406.387 221.995, 407.082 220.885 C 407.815 219.715, 408.381 219.739, 410.725 221.038 C 413.667 222.669, 413.844 224.695, 411.003 224.214 C 409.548 223.967, 409.669 224.699, 411.870 229.464 C 413.277 232.509, 414.751 235, 415.146 235 C 415.541 235, 416.840 233.628, 418.034 231.952 C 421.049 227.718, 420.093 222.617, 415.876 220.436 C 414.200 219.569, 412.213 217.361, 411.436 215.502 C 409.646 211.218, 408.632 210.622, 406.786 212.774 M 422.607 239.057 C 420.245 241.708, 419.943 242.705, 420.503 246.018 C 421.498 251.910, 423.235 252.692, 426.324 248.641 C 428.652 245.589, 428.805 244.869, 427.861 241.377 C 426.372 235.864, 425.711 235.573, 422.607 239.057 M 430.551 255.947 C 428.074 258.532, 427.791 259.451, 428.239 263.432 C 428.521 265.929, 429.523 269.149, 430.466 270.588 L 432.181 273.205 433.511 270.641 C 434.243 269.231, 435.627 266.747, 436.588 265.120 C 438.250 262.307, 438.250 261.943, 436.584 257.582 C 435.622 255.062, 434.506 253, 434.104 253 C 433.703 253, 432.104 254.326, 430.551 255.947 M 439.500 272 C 438.505 273.100, 436.913 274, 435.963 274 C 434.396 274, 434.360 274.348, 435.574 277.750 C 436.310 279.813, 436.932 282.238, 436.956 283.139 C 436.980 284.041, 437.788 285.749, 438.750 286.936 L 440.500 289.093 443.250 284.846 C 446.416 279.957, 446.566 278.598, 444.487 273.622 C 442.749 269.464, 442.012 269.224, 439.500 272 M 447.500 289 C 446.505 290.100, 445.037 291, 444.238 291 C 443.255 291, 443.012 291.565, 443.486 292.750 C 443.872 293.712, 444.645 297.514, 445.206 301.197 C 445.826 305.270, 446.917 308.520, 447.989 309.490 C 449.629 310.975, 449.908 310.822, 451.991 307.293 C 453.892 304.073, 454.158 302.482, 453.750 296.765 C 453.312 290.636, 451.928 287, 450.033 287 C 449.635 287, 448.495 287.900, 447.500 289 M 456.626 313.533 C 456.282 314.430, 456 317.097, 456 319.459 C 456 321.944, 455.403 324.250, 454.585 324.930 C 453.536 325.800, 453.398 326.900, 454.049 329.172 C 454.533 330.859, 454.685 334.098, 454.386 336.370 C 453.759 341.146, 455.693 344.716, 458.355 343.694 C 459.621 343.208, 460 341.720, 460 337.231 C 460 334.024, 460.407 330.972, 460.904 330.450 C 461.405 329.923, 461.517 325.719, 461.154 321.011 C 460.637 314.307, 460.158 312.457, 458.876 312.212 C 457.983 312.041, 456.970 312.636, 456.626 313.533 M 464.818 347.500 C 464.192 348.875, 463.301 350, 462.839 350 C 462.378 350, 462.034 353.488, 462.076 357.750 C 462.198 370.218, 465.802 377.161, 467.971 369.107 C 468.567 366.895, 469.533 364.789, 470.117 364.428 C 471.424 363.620, 470.402 350.536, 468.776 347.250 C 467.333 344.336, 466.228 344.406, 464.818 347.500 M 473.630 376.250 C 473.299 377.488, 473.021 382.787, 473.014 388.027 C 473.003 395.254, 472.601 398.125, 471.346 399.916 C 469.892 401.992, 469.771 404.517, 470.338 420.888 C 470.693 431.125, 471.277 442.538, 471.636 446.250 L 472.289 453 492.145 453 L 512 453 512 449.651 L 512 446.302 502.250 445.656 C 496.887 445.301, 489.286 445.008, 485.357 445.005 C 479.769 445.001, 478.082 444.656, 477.607 443.418 C 476.501 440.537, 476.957 432.127, 478.264 431.300 C 479.261 430.669, 479.365 425.325, 478.757 406 C 478.030 382.868, 477.010 374, 475.076 374 C 474.613 374, 473.962 375.012, 473.630 376.250 M 27 431.606 C 27 432.569, 26.443 434.897, 25.763 436.778 C 24.622 439.935, 24.711 440.347, 26.923 442.139 C 30.211 444.801, 31.165 443.391, 30.804 436.405 C 30.563 431.740, 30.137 430.450, 28.750 430.186 C 27.622 429.972, 27 430.477, 27 431.606 M 46.328 446.500 C 46.333 450.350, 46.513 451.802, 46.730 449.728 C 46.946 447.653, 46.943 444.503, 46.722 442.728 C 46.501 440.952, 46.324 442.650, 46.328 446.500" stroke="none" fill="#000000" fill-rule="evenodd"/>
</svg>