<svg xmlns="http://www.w3.org/2000/svg" width="512" height="512" viewBox="0 0 512 512" version="1.1">
	<path d="M 104.625 78.368 C 104.228 79.945, 103.637 80.970, 103.311 80.645 C 102.986 80.319, 101.995 81.354, 101.110 82.944 C 99.267 86.253, 89.505 96.986, 88.301 97.028 C 87.860 97.043, 86.200 98.381, 84.611 100.001 C 83.021 101.620, 81.334 102.706, 80.861 102.414 C 80.387 102.121, 80 102.290, 80 102.788 C 80 103.287, 78.987 104.156, 77.750 104.721 C 75.638 105.685, 75.748 105.816, 79.559 106.861 C 83.792 108.022, 86.938 112.088, 88.400 118.287 C 89.948 124.853, 84.728 134.157, 78.770 135.454 C 75.607 136.142, 75.574 136.200, 77.750 137.235 C 78.987 137.824, 80 138.713, 80 139.212 C 80 139.710, 80.462 139.832, 81.028 139.483 C 81.593 139.134, 83.348 140.232, 84.929 141.924 C 86.509 143.616, 88.184 145.003, 88.651 145.006 C 89.874 145.015, 99.184 155.586, 101.250 159.313 C 102.213 161.049, 103.016 162.026, 103.035 161.484 C 103.055 160.943, 103.696 161.625, 104.460 163 L 105.849 165.500 106.924 162.500 C 108.786 157.302, 109.565 156.572, 115.293 154.652 C 120.660 152.853, 121.107 152.848, 126.415 154.517 C 131.350 156.069, 132.180 156.741, 134.122 160.752 C 136.288 165.226, 136.304 165.236, 137.613 162.873 C 138.337 161.568, 138.963 160.950, 139.004 161.500 C 139.045 162.050, 139.705 161.150, 140.471 159.500 C 141.986 156.235, 152.116 145, 153.544 145 C 154.028 145, 155.342 143.894, 156.462 142.542 C 157.583 141.189, 159.143 139.952, 159.929 139.792 C 162.057 139.358, 164.972 136.763, 164.390 135.822 C 164.110 135.370, 163.121 134.985, 162.191 134.967 C 159.222 134.908, 156.185 131.440, 154.445 126.121 C 152.831 121.188, 152.842 120.695, 154.669 115.242 C 156.542 109.655, 158.029 108.171, 163.398 106.529 C 165.262 105.959, 165.262 105.916, 163.398 104.102 C 162.354 103.087, 161.225 102.411, 160.889 102.601 C 160.554 102.790, 158.979 101.620, 157.389 100.001 C 155.800 98.381, 154.093 97.043, 153.595 97.028 C 152.067 96.981, 141.040 84.642, 140.394 82.257 C 140.060 81.023, 139.398 80.254, 138.923 80.548 C 138.447 80.842, 137.756 79.876, 137.386 78.402 C 136.722 75.758, 136.685 75.780, 134.607 80.087 C 130.660 88.264, 120.858 90.858, 112.228 86.008 C 109.903 84.701, 107.980 83.152, 107.955 82.566 C 107.930 81.980, 107.333 80.150, 106.628 78.500 L 105.347 75.500 104.625 78.368" stroke="none" fill="#000000" fill-rule="evenodd"/>
</svg>