<svg xmlns="http://www.w3.org/2000/svg" width="512" height="468" viewBox="0 0 512 468" version="1.1">
	<path d="M 359.232 3 C 359.232 4.925, 359.438 5.713, 359.689 4.750 C 359.941 3.788, 359.941 2.212, 359.689 1.250 C 359.438 0.288, 359.232 1.075, 359.232 3 M 342.158 3 C 342.158 4.375, 342.385 4.938, 342.662 4.250 C 342.940 3.563, 342.940 2.438, 342.662 1.750 C 342.385 1.063, 342.158 1.625, 342.158 3 M 7.044 9.050 C 6.995 14.125, 5.715 16, 2.300 16 C 0.179 16, 0 16.428, 0 21.500 C 0 25.154, 0.419 27.050, 1.250 27.148 C 1.938 27.229, 3.175 27.388, 4 27.500 C 4.825 27.612, 6.669 27.771, 8.097 27.852 C 11.504 28.046, 14.011 30.460, 16.666 36.103 C 18.369 39.723, 19.864 41.219, 23.666 43.103 C 27.492 45, 29.022 46.540, 31 50.484 C 32.943 54.356, 34.589 56.042, 38.385 58.042 C 42.074 59.987, 43.852 61.763, 45.649 65.299 C 47.481 68.904, 49.164 70.556, 52.963 72.481 C 56.821 74.436, 58.411 76.019, 60.253 79.741 C 62.099 83.468, 63.682 85.042, 67.555 87 C 71.469 88.979, 72.972 90.488, 74.765 94.241 C 76.560 97.997, 78.062 99.505, 82.004 101.502 C 85.916 103.485, 87.509 105.071, 89.468 108.938 C 91.392 112.734, 93.121 114.485, 97.064 116.631 C 100.649 118.583, 102.773 120.595, 104.200 123.392 C 106.643 128.181, 107.892 129.514, 110.802 130.437 C 113.760 131.376, 119 135.861, 119 137.454 C 119 139.688, 123.086 144.025, 126.855 145.792 C 129.345 146.959, 131.281 148.980, 132.966 152.169 C 134.752 155.550, 136.822 157.628, 140.466 159.700 C 144.281 161.868, 146.105 163.761, 148 167.515 C 149.934 171.346, 151.606 173.051, 155.385 175.042 C 159.074 176.987, 160.852 178.763, 162.649 182.299 C 164.460 185.862, 166.171 187.560, 169.807 189.402 C 173.458 191.252, 175.242 193.028, 177.363 196.925 C 179.514 200.879, 181.192 202.530, 184.820 204.263 C 188.530 206.036, 190.018 207.535, 192 211.491 C 193.994 215.470, 195.456 216.934, 199.221 218.717 C 202.977 220.496, 204.462 221.978, 206.483 225.965 C 208.500 229.947, 210.054 231.501, 214.039 233.520 C 217.884 235.468, 219.552 237.083, 221.179 240.432 C 222.628 243.414, 224.604 245.514, 227.401 247.046 C 232.634 249.912, 236 252.949, 236 254.806 C 236 256.549, 242.611 263, 244.397 263 C 246.117 263, 249.424 266.859, 250.886 270.573 C 251.683 272.596, 253.843 274.647, 257.206 276.573 C 260.996 278.744, 263.007 280.791, 264.994 284.500 C 266.987 288.221, 268.882 290.145, 272.401 292.022 C 275.896 293.885, 277.832 295.840, 279.815 299.508 C 281.861 303.292, 283.578 304.985, 287.029 306.622 C 290.518 308.277, 292.203 309.957, 294.370 313.938 C 296.566 317.973, 298.204 319.588, 301.841 321.303 C 305.537 323.046, 306.968 324.480, 308.765 328.241 C 310.564 332.006, 312.061 333.504, 316.038 335.519 C 320.009 337.531, 321.508 339.029, 323.273 342.747 C 324.823 346.011, 326.716 348.118, 329.500 349.679 C 335.783 353.202, 336.735 354.085, 338.529 358.064 C 339.691 360.640, 341.652 362.586, 344.856 364.340 C 349.901 367.101, 352.423 369.607, 353.466 372.894 C 354.146 375.035, 359.878 380, 361.670 380 C 363.071 380, 366.656 384.122, 367.402 386.592 C 368.197 389.223, 371.807 392.649, 376.075 394.824 C 378.154 395.883, 380.341 398.340, 382.018 401.500 C 384.001 405.236, 385.868 407.138, 389.401 409.022 C 392.874 410.873, 394.844 412.853, 396.815 416.474 C 398.804 420.126, 400.698 422.018, 404.119 423.770 C 407.573 425.539, 409.338 427.316, 411.119 430.818 C 412.913 434.346, 414.682 436.116, 418.298 438 C 422.081 439.971, 423.563 441.514, 425.298 445.290 C 427.111 449.234, 428.388 450.501, 432.525 452.463 C 439.067 455.565, 440.673 457.490, 441.525 463.250 L 442.227 468 446.614 468 C 450.930 468, 451 467.946, 451 464.622 C 451 460.611, 453.053 458.586, 456.460 459.237 C 458.429 459.614, 457.031 457.660, 449.568 449.605 C 444.418 444.047, 438.771 438.225, 437.018 436.667 L 433.832 433.835 434.166 437.083 C 434.350 438.870, 434.014 440.494, 433.421 440.692 C 431.695 441.269, 423 433.044, 423 430.836 C 423 429.110, 423.439 428.934, 426.250 429.532 C 428.038 429.912, 430.400 430.952, 431.500 431.843 C 432.600 432.735, 431.017 430.997, 427.983 427.982 C 419.385 419.438, 419.040 419.243, 419.990 423.457 C 421.164 428.662, 418.799 428.103, 412.348 421.652 C 405.932 415.236, 405.510 413.498, 410.600 414.453 L 414.199 415.128 411.618 411.814 C 408.877 408.296, 404 403.466, 404 404.269 C 404 404.533, 404.643 406.570, 405.428 408.797 L 406.857 412.846 403.983 411.844 C 400.954 410.788, 393 402.857, 393 400.892 C 393 400.132, 394.195 399.932, 396.500 400.306 C 401.734 401.156, 401.449 400.605, 392.855 393.260 L 390.210 390.999 391 394.500 C 391.579 397.066, 391.453 398, 390.530 398 C 387.945 398, 378.527 389.236, 377.444 385.823 C 377.143 384.876, 376.133 383.854, 375.199 383.550 C 373.024 382.842, 349 358.605, 349 357.118 C 349 355.522, 352.591 355.737, 356.081 357.542 C 358.084 358.578, 359.844 360.852, 361.447 364.476 C 363.536 369.199, 364.338 370.021, 367.900 371.088 C 372.715 372.531, 374.320 374.171, 375.983 379.347 C 376.906 382.219, 378.070 383.549, 380.577 384.597 C 382.424 385.369, 384.201 386, 384.525 386 C 386.003 386, 380.540 380.035, 361.626 361 C 337.245 336.462, 330.675 330.327, 331.345 332.723 C 331.618 333.700, 332.132 335.512, 332.488 336.750 C 333.651 340.797, 330.006 339.331, 324.598 333.576 C 318.104 326.667, 317.530 326.090, 311.409 320.308 C 308.610 317.664, 306.022 314.677, 305.660 313.671 C 305.081 312.062, 305.394 311.923, 308.251 312.519 C 313.482 313.610, 315.710 315.612, 317.420 320.759 C 318.861 325.097, 319.436 325.703, 323.013 326.658 C 325.206 327.243, 327 327.522, 327 327.277 C 327 325.837, 304.706 304, 303.236 304 C 302.984 304, 303.073 305.575, 303.434 307.500 C 304.389 312.589, 302.574 312.004, 295.799 305.037 C 288.962 298.006, 288.526 296.501, 293.600 297.453 L 297.199 298.128 294.618 294.814 C 291.877 291.296, 287 286.466, 287 287.269 C 287 287.533, 287.643 289.570, 288.428 291.797 L 289.857 295.846 286.983 294.844 C 283.954 293.788, 276 285.857, 276 283.892 C 276 283.132, 277.195 282.932, 279.500 283.306 C 284.734 284.156, 284.449 283.605, 275.855 276.260 L 273.210 273.999 274 277.500 C 274.595 280.138, 274.463 281, 273.463 281 C 271.409 281, 263.391 273.877, 261.363 270.250 C 260.363 268.462, 259.138 267, 258.641 267 C 257.317 267, 232 241.467, 232 240.132 C 232 238.524, 235.579 238.731, 239.081 240.542 C 241.084 241.578, 242.844 243.852, 244.447 247.476 C 246.536 252.199, 247.338 253.021, 250.900 254.088 C 255.692 255.524, 257.322 257.174, 258.947 262.236 C 260.268 266.353, 260.707 266.769, 265.042 268.012 C 267.948 268.846, 267.983 268.814, 266.502 266.683 C 264.744 264.155, 226.826 225.814, 219.072 218.723 C 215.395 215.361, 214.019 214.547, 214.424 215.973 C 214.741 217.088, 215.255 218.900, 215.567 220 C 216.703 224.003, 212.357 222.074, 207.116 216.250 C 204.271 213.088, 201.241 209.825, 200.384 209 C 199.527 208.175, 196.390 205.157, 193.413 202.293 C 187.107 196.228, 186.569 194.543, 191.250 195.519 C 196.483 196.610, 198.710 198.612, 200.420 203.759 C 201.861 208.097, 202.436 208.703, 206.013 209.658 C 208.206 210.243, 210 210.522, 210 210.277 C 210 209.107, 194.026 193.143, 188.603 188.894 L 185.707 186.624 186.399 190.312 C 187.391 195.604, 185.651 195.082, 178.799 188.037 C 171.989 181.034, 171.541 179.502, 176.539 180.313 L 180.079 180.887 177.149 177.194 C 175.538 175.162, 173.194 172.600, 171.941 171.500 C 169.840 169.657, 169.714 169.645, 170.335 171.343 C 170.705 172.356, 171.280 174.269, 171.613 175.593 C 172.618 179.598, 169.248 178.534, 163.857 173.143 C 157.966 167.252, 157.621 165.515, 162.500 166.306 C 164.425 166.619, 166 166.642, 166 166.359 C 166 165.673, 156.667 157, 156.311 157.355 C 156.159 157.508, 156.445 159.065, 156.947 160.816 C 157.631 163.202, 157.542 164, 156.591 164 C 154.695 164, 148.621 158.981, 145.896 155.163 C 144.578 153.317, 142.616 151.062, 141.535 150.153 C 135.983 145.481, 115 124.118, 115 123.136 C 115 121.524, 118.575 121.729, 122.081 123.542 C 124.077 124.574, 125.842 126.847, 127.423 130.422 C 129.508 135.137, 130.294 135.926, 134.142 137.171 C 137.885 138.382, 138.858 139.310, 141.040 143.747 C 144.113 149.997, 143.967 149.843, 147.887 150.968 L 151.046 151.873 148.968 149.187 C 146.481 145.971, 110.678 109.728, 102.554 102.201 C 98.633 98.569, 97.018 97.547, 97.417 98.951 C 97.738 100.078, 98.255 101.900, 98.567 103 C 99.703 107.003, 95.357 105.074, 90.116 99.250 C 87.271 96.088, 84.241 92.825, 83.384 92 C 82.527 91.175, 79.390 88.157, 76.413 85.293 C 70.107 79.228, 69.569 77.543, 74.250 78.519 C 79.556 79.625, 81.849 81.689, 83.300 86.667 C 84.528 90.876, 85.059 91.444, 88.808 92.551 C 92.910 93.763, 92.940 93.753, 91.495 91.689 C 89.305 88.562, 78.165 77.324, 72.817 72.847 L 68.113 68.909 69.057 72.198 C 69.576 74.007, 70 75.602, 70 75.743 C 70 75.885, 69.145 76, 68.100 76 C 66.179 76, 56 65.728, 56 63.789 C 56 63.145, 57.366 62.960, 59.526 63.311 L 63.053 63.883 61.113 61.191 C 60.047 59.711, 57.536 56.927, 55.535 55.003 L 51.896 51.507 53.448 55.221 C 55.416 59.932, 55.400 61, 53.357 61 C 51.431 61, 42 51.876, 42 50.012 C 42 49.115, 43.035 48.906, 45.500 49.306 C 47.425 49.619, 49 49.642, 49 49.359 C 49 48.673, 39.667 40, 39.311 40.355 C 39.159 40.508, 39.445 42.065, 39.947 43.816 C 40.653 46.276, 40.553 47, 39.507 47 C 37.029 47, 27.537 38.268, 26.515 35.049 C 26.214 34.098, 24.863 32.729, 23.513 32.007 C 21.324 30.835, 16 24.314, 16 22.803 C 16 21.758, 18.952 21.044, 20.623 21.686 C 21.516 22.028, 23.310 24.714, 24.611 27.654 C 25.911 30.594, 27.096 33, 27.244 33 C 27.392 33, 28.989 33.423, 30.794 33.941 L 34.074 34.882 31.098 31.191 C 26.920 26.010, 21.088 20.158, 15.623 15.662 C 13.056 13.550, 10.087 10.175, 9.023 8.162 L 7.088 4.500 7.044 9.050 M 359.086 9 C 359.055 9.825, 359.467 11.175, 360 12 C 361.181 13.828, 361.181 12.249, 360 9.500 C 359.433 8.181, 359.122 8.011, 359.086 9 M 353 13.378 C 353 13.585, 353.788 14.373, 354.750 15.128 C 356.336 16.371, 356.371 16.336, 355.128 14.750 C 353.821 13.084, 353 12.555, 353 13.378 M 382.471 33.300 C 385.965 35.887, 389.420 39.322, 393.304 44.072 L 396.108 47.500 393.670 44 C 392.329 42.075, 390.949 39.566, 390.604 38.424 C 390.246 37.241, 387.722 35.219, 384.738 33.724 C 380.275 31.488, 379.939 31.425, 382.471 33.300 M 400.203 50.255 C 401.690 51.490, 403.823 53.625, 404.942 55 L 406.979 57.500 405.466 54.350 C 404.634 52.617, 402.854 50.479, 401.512 49.600 C 397.918 47.245, 397.083 47.663, 400.203 50.255 M 408 59.378 C 408 59.585, 408.788 60.373, 409.750 61.128 C 411.336 62.371, 411.371 62.336, 410.128 60.750 C 408.821 59.084, 408 58.555, 408 59.378 M 416.350 66.309 C 418.082 68.129, 420.732 71.166, 422.237 73.059 C 423.986 75.258, 423.696 74.540, 421.435 71.072 C 418.139 66.017, 415.394 63.107, 413.850 63.032 C 413.493 63.014, 414.618 64.489, 416.350 66.309 M 415 78.654 C 415 79.779, 417.603 82.261, 420 83.422 C 420.825 83.821, 420.600 83.430, 419.500 82.553 C 418.400 81.675, 416.938 80.205, 416.250 79.287 C 415.563 78.369, 415 78.084, 415 78.654 M 447.177 97.049 C 452.779 104.387, 455.031 106.444, 451.284 100.800 C 449.203 97.665, 446.904 94.854, 446.177 94.553 C 445.449 94.253, 445.899 95.376, 447.177 97.049 M 441 102.422 C 441 105.031, 446.445 111.831, 449.731 113.327 C 452.897 114.769, 453.180 114.789, 451.500 113.453 C 450.400 112.579, 449.008 111.556, 448.406 111.182 C 447.805 110.807, 445.892 108.520, 444.156 106.100 C 442.420 103.680, 441 102.025, 441 102.422 M 102 109.395 C 102 111.109, 110.258 120, 111.850 120 C 114.691 120, 111.594 111.782, 107.939 109.623 C 104.567 107.631, 102 107.532, 102 109.395 M 468.961 119.696 C 472.456 122.527, 475.457 125.599, 480.981 132 L 484.002 135.500 480.751 129.822 C 478.963 126.699, 476.375 123.572, 475 122.873 C 473.625 122.173, 470.925 120.542, 469 119.247 L 465.500 116.892 468.961 119.696 M 467.722 130.074 C 468.944 131.347, 470.196 132.137, 470.503 131.830 C 470.811 131.522, 469.811 130.481, 468.281 129.515 L 465.500 127.759 467.722 130.074 M 496.500 149.093 C 497.600 150.383, 499.110 152.094, 499.855 152.895 C 500.600 153.697, 503.638 154.554, 506.605 154.800 C 511.100 155.173, 512 154.977, 512 153.624 C 512 152.348, 510.958 152, 507.140 152 C 503.547 152, 501.264 151.315, 498.390 149.374 C 494.659 146.855, 494.582 146.844, 496.500 149.093 M 494 156.401 C 494 156.622, 495.549 157.717, 497.443 158.834 C 499.588 160.100, 500.698 160.376, 500.388 159.568 C 499.774 157.970, 494 155.107, 494 156.401 M 219 226.395 C 219 228.109, 227.258 237, 228.850 237 C 230.316 237, 230.304 235.483, 228.807 231.343 C 227.217 226.945, 219 222.799, 219 226.395 M 336 343.395 C 336 345.109, 344.258 354, 345.850 354 C 347.285 354, 347.311 352.190, 345.930 348.230 C 344.464 344.024, 336 339.903, 336 343.395 M 6.975 358.975 C 11.964 363.964, 10.123 369, 3.309 369 C 0.054 369, 0 369.073, 0 373.500 C 0 375.975, 0.337 378.049, 0.750 378.110 C 1.163 378.170, 2.943 378.341, 4.707 378.490 C 11.509 379.066, 12.620 379.809, 15.915 385.992 C 18.526 390.891, 19.993 392.441, 23.739 394.261 C 27.310 395.995, 28.934 397.627, 30.945 401.500 C 32.910 405.285, 34.719 407.138, 38.393 409.128 C 41.959 411.059, 43.941 413.043, 45.872 416.615 C 47.842 420.259, 49.608 422, 52.925 423.571 C 56.298 425.168, 57.961 426.834, 59.925 430.583 C 61.794 434.152, 63.647 436.079, 66.685 437.614 C 71.885 440.240, 73.114 441.470, 75.557 446.500 C 76.916 449.298, 78.702 451.056, 81.500 452.350 C 88.253 455.473, 90 457.698, 90 463.174 L 90 468 95.500 468 C 100.857 468, 101 467.927, 101 465.200 C 101 461.876, 102.626 459.988, 105.450 460.032 C 108.586 460.080, 111 462.424, 111 465.419 C 111 466.904, 111.419 467.859, 111.931 467.543 C 113.609 466.506, 112.003 461.548, 109.223 459.184 C 97.076 448.855, 97 448.804, 97 450.945 C 97 452.075, 96.438 452.998, 95.750 452.996 C 93.271 452.989, 87.880 448.910, 85.888 445.535 C 84.770 443.640, 83.035 441.828, 82.032 441.510 C 79.847 440.817, 71 431.557, 71 429.963 C 71 428.561, 76.569 429.607, 79.721 431.602 C 80.990 432.405, 82.524 435.005, 83.300 437.667 C 84.535 441.902, 85.046 442.440, 88.911 443.582 L 93.162 444.837 91.331 442.687 C 84.609 434.792, 77.858 428.009, 71.323 422.583 L 68.146 419.945 69.146 423.566 C 70.305 427.766, 69.900 428.552, 67.294 427.157 C 64.705 425.772, 56 416.348, 56 414.932 C 56 414.140, 57.175 413.998, 59.736 414.478 L 63.472 415.179 61.486 412.869 C 56.443 407.001, 52.808 403.624, 53.387 405.343 C 55.208 410.746, 55.223 412, 53.466 412 C 51.460 412, 42 402.934, 42 401.012 C 42 400.115, 43.035 399.906, 45.500 400.306 C 47.425 400.619, 49 400.665, 49 400.410 C 49 399.790, 39.606 391.060, 39.285 391.382 C 39.147 391.520, 39.445 393.065, 39.947 394.816 C 41.078 398.759, 39.732 398.991, 35.186 395.638 C 30.890 392.467, 27.293 388.500, 26.526 386.083 C 26.181 384.994, 25.042 383.831, 23.997 383.499 C 22.229 382.938, 16 375.468, 16 373.910 C 16 372.590, 19.150 372.010, 20.985 372.992 C 21.998 373.534, 23.623 376.065, 24.598 378.617 C 25.963 382.193, 27.155 383.584, 29.793 384.687 C 31.676 385.474, 33.366 385.967, 33.550 385.784 C 34.262 385.071, 23.201 372.934, 18.724 369.516 C 16.126 367.532, 14 365.578, 14 365.175 C 14 364.116, 6.938 357, 5.886 357 C 5.399 357, 5.889 357.889, 6.975 358.975 M 438.573 444.882 C 437.881 446.001, 441.510 450.668, 444.185 452.099 C 445.527 452.817, 446.551 452.849, 447.207 452.193 C 448.933 450.467, 446.934 446.870, 443.436 445.409 C 439.468 443.751, 439.284 443.731, 438.573 444.882" stroke="none" fill="#000000" fill-rule="evenodd"/>
</svg>