<svg xmlns="http://www.w3.org/2000/svg" width="169" height="171" viewBox="0 0 169 171" version="1.1">
	<path d="M 2.257 2.250 C -1.202 6.625, 0.115 8.771, 15.874 24.428 L 28.885 37.357 26.098 40.928 C 21.683 46.584, 18.191 53.123, 15.321 61.106 C 11.817 70.850, 10.838 91.866, 13.413 102.054 C 15.455 110.133, 21.635 123.094, 26.262 129 L 29.787 133.500 15.654 147.781 C 7.881 155.635, 1.204 162.919, 0.817 163.967 C -0.101 166.448, 3.413 171, 6.248 171 C 7.616 171, 13.500 165.891, 23.109 156.359 L 37.868 141.718 43.184 145.227 C 57.495 154.676, 67.127 157.502, 85 157.495 C 95.251 157.491, 99.944 157.048, 104.500 155.652 C 111.548 153.492, 122.817 148.004, 127.434 144.483 C 129.224 143.117, 131.091 142, 131.582 142 C 132.074 142, 139.072 148.585, 147.135 156.634 C 160.233 169.711, 162.068 171.200, 164.378 170.620 C 165.850 170.251, 167.642 168.658, 168.539 166.925 L 170.114 163.878 155.083 148.649 L 140.052 133.420 143.650 128.460 C 162.027 103.126, 162.722 69.905, 145.419 43.878 L 140.718 36.807 154.726 22.654 C 162.430 14.869, 168.986 7.760, 169.294 6.856 C 170.038 4.677, 166.054 1, 162.948 1 C 161.167 1, 156.792 4.727, 146.426 15.073 L 132.328 29.147 129.321 26.617 C 124.067 22.196, 111.594 16.073, 103.412 13.898 C 93.075 11.151, 77.336 10.947, 67.500 13.434 C 58.850 15.621, 47.678 20.836, 41.436 25.601 L 36.723 29.198 22.599 15.099 C 11.643 4.162, 7.888 1, 5.860 1 C 4.422 1, 2.800 1.563, 2.257 2.250" stroke="none" fill="#000000" fill-rule="evenodd"/>
</svg>