<svg xmlns="http://www.w3.org/2000/svg" width="512" height="512" viewBox="0 0 512 512" version="1.1">
	<path d="M 173.257 172.250 C 169.798 176.625, 171.115 178.771, 186.874 194.428 L 199.885 207.357 197.098 210.928 C 177.692 235.789, 177.776 273.869, 197.292 299 L 200.787 303.500 186.654 317.781 C 178.881 325.635, 172.204 332.919, 171.817 333.967 C 170.899 336.448, 174.413 341, 177.248 341 C 178.616 341, 184.500 335.891, 194.109 326.359 L 208.868 311.718 214.184 315.227 C 228.495 324.676, 238.127 327.502, 256 327.495 C 266.251 327.491, 270.944 327.048, 275.500 325.652 C 282.548 323.492, 293.817 318.004, 298.434 314.483 C 300.224 313.117, 302.102 312, 302.607 312 C 303.113 312, 310.039 318.525, 318 326.500 C 325.961 334.475, 333.267 341, 334.237 341 C 336.682 341, 340 337.444, 340 334.825 C 340 333.364, 335.246 327.858, 325.516 318.049 L 311.032 303.449 314.640 298.474 C 333.028 273.124, 333.726 239.912, 316.419 213.878 L 311.718 206.807 325.859 192.641 C 340.414 178.060, 341.749 175.893, 338.171 172.655 C 334.259 169.115, 332.147 170.379, 317.426 185.073 L 303.328 199.147 300.321 196.617 C 295.067 192.196, 282.594 186.073, 274.412 183.898 C 264.075 181.151, 248.336 180.947, 238.500 183.434 C 229.850 185.621, 218.678 190.836, 212.436 195.601 L 207.723 199.198 193.599 185.099 C 182.643 174.162, 178.888 171, 176.860 171 C 175.422 171, 173.800 171.563, 173.257 172.250" stroke="none" fill="#000000" fill-rule="evenodd"/>
</svg>