<svg xmlns="http://www.w3.org/2000/svg" width="512" height="512" viewBox="0 0 512 512" version="1.1">
	<path d="M 241.763 181.033 C 224.998 183.856, 207.711 194.010, 196.663 207.524 C 190.231 215.392, 183.477 229.545, 181.543 239.208 C 176.353 265.134, 184.503 291.080, 203.385 308.744 C 209.127 314.115, 220.528 322, 222.552 322 C 222.987 322, 224.053 322.599, 224.921 323.332 C 226.579 324.731, 237.019 327.383, 245.500 328.559 C 248.250 328.940, 251.058 329.697, 251.741 330.241 C 253.084 331.311, 254.183 331.154, 267 328.056 C 271.675 326.926, 277.883 325.711, 280.795 325.356 C 284.151 324.947, 286.540 324.068, 287.320 322.954 C 289.047 320.488, 301.810 312.043, 305.908 310.655 C 308.443 309.796, 309.631 308.603, 310.545 306 C 311.702 302.708, 318.458 291.745, 322.969 285.842 C 324.086 284.380, 324.996 282.355, 324.992 281.342 C 324.981 279.072, 327.631 267.306, 329.730 260.305 C 330.939 256.274, 331.040 254.480, 330.183 252.305 C 329.575 250.762, 328.572 246.575, 327.952 243 C 326.218 232.988, 324.687 228.029, 321.316 221.493 C 306.013 191.831, 274.082 175.591, 241.763 181.033 M 243.500 192.491 C 242.950 192.675, 241.287 193.092, 239.804 193.418 L 237.109 194.011 242.584 207.201 C 245.595 214.456, 248.270 220.604, 248.529 220.863 C 248.788 221.122, 249 214.733, 249 206.667 C 249 192.100, 248.985 192.001, 246.750 192.079 C 245.512 192.122, 244.050 192.308, 243.500 192.491 M 261 209.542 C 261 219.327, 261.212 227.122, 261.471 226.863 C 261.863 226.471, 271.070 204.818, 274.050 197.279 C 274.834 195.297, 274.523 194.949, 271.160 194.043 C 269.087 193.485, 265.953 192.741, 264.196 192.389 L 261 191.750 261 209.542 M 219.750 202.130 C 217.137 203.839, 215 205.528, 215 205.883 C 215 206.239, 220.595 212.112, 227.434 218.934 L 239.867 231.337 233.201 215.169 C 229.535 206.276, 226.077 199.005, 225.518 199.012 C 224.958 199.018, 222.363 200.421, 219.750 202.130 M 279.500 214.616 C 276.200 222.653, 273.337 229.739, 273.137 230.364 C 272.937 230.989, 278 226.332, 284.387 220.016 C 290.774 213.700, 296 208.226, 296 207.851 C 296 207.218, 286.678 199.998, 285.866 200.002 C 285.665 200.003, 282.800 206.580, 279.500 214.616 M 201.963 220.058 C 200.141 222.898, 199.108 225.465, 199.608 225.910 C 200.393 226.609, 206.759 229.231, 224.500 236.164 L 229.500 238.118 218.016 226.559 C 211.700 220.202, 206.235 215, 205.871 215 C 205.506 215, 203.748 217.276, 201.963 220.058 M 292.982 227.636 C 287.217 233.485, 283.175 238.036, 284 237.748 C 288.661 236.123, 309.610 227.610, 310.203 227.100 C 310.993 226.419, 305.423 217, 304.230 217 C 303.809 217, 298.747 221.786, 292.982 227.636 M 193.053 240.750 C 190.657 249.377, 189.990 249, 207.667 249 C 216.283 249, 223.137 248.803, 222.896 248.563 C 222.380 248.047, 195.352 237, 194.605 237 C 194.324 237, 193.625 238.688, 193.053 240.750 M 303.500 242.662 C 297.450 245.127, 291.600 247.533, 290.500 248.008 C 289.246 248.551, 293.861 248.897, 302.878 248.937 L 317.256 249 316.591 244.846 C 315.452 237.722, 315.574 237.742, 303.500 242.662 M 192 262.424 C 192 263.207, 192.529 266.137, 193.175 268.936 C 194.553 274.909, 192.648 275.108, 212.381 266.932 L 226.500 261.083 209.250 261.042 C 194.975 261.007, 192 261.246, 192 262.424 M 287.083 261.400 C 287.313 261.619, 293.575 264.288, 301 267.329 L 314.500 272.859 315.731 268.179 C 317.738 260.546, 318.617 261, 301.833 261 C 293.492 261, 286.854 261.180, 287.083 261.400 M 216.269 277.855 C 207.342 281.510, 200.030 284.998, 200.019 285.606 C 199.996 286.938, 206.789 296, 207.811 296 C 208.206 296, 214.142 290.375, 221 283.500 C 227.858 276.625, 233.252 271.047, 232.985 271.105 C 232.718 271.163, 225.196 274.200, 216.269 277.855 M 291.483 282.887 C 297.524 288.999, 302.764 294, 303.129 294 C 303.936 294, 310.412 284.046, 309.879 283.625 C 309.528 283.347, 283.885 272.950, 281.545 272.137 C 280.970 271.937, 285.442 276.774, 291.483 282.887 M 227.254 293.250 L 216.041 304.500 219.271 306.640 C 225.630 310.855, 226.960 311.273, 227.694 309.293 C 228.060 308.307, 230.730 301.762, 233.628 294.750 C 236.525 287.738, 238.799 282, 238.682 282 C 238.564 282, 233.421 287.063, 227.254 293.250 M 275.497 286.500 C 276.410 288.700, 278.745 294.441, 280.686 299.258 C 282.628 304.075, 284.602 308.254, 285.073 308.545 C 285.971 309.100, 294 304.201, 294 303.098 C 294 302.749, 289.463 297.971, 283.919 292.481 C 274.551 283.206, 273.955 282.783, 275.497 286.500 M 261 300.333 C 261 314.753, 261.210 317, 262.557 317 C 264.998 317, 272.985 314.833, 273.477 314.037 C 273.873 313.397, 262.538 285.205, 261.445 284.112 C 261.200 283.867, 261 291.167, 261 300.333 M 243.207 302.250 C 240.423 308.988, 238.468 314.833, 238.863 315.240 C 239.258 315.648, 241.700 316.271, 244.290 316.626 L 249 317.272 249 303.636 C 249 296.136, 248.835 290, 248.634 290 C 248.433 290, 245.991 295.512, 243.207 302.250" stroke="none" fill="#000000" fill-rule="evenodd"/>
</svg>