<svg xmlns="http://www.w3.org/2000/svg" width="151" height="151" viewBox="0 0 151 151" version="1.1">
	<path d="M 61.763 1.033 C 44.998 3.856, 27.711 14.010, 16.663 27.524 C 10.231 35.392, 3.477 49.545, 1.543 59.208 C -3.647 85.134, 4.503 111.080, 23.385 128.744 C 29.127 134.115, 40.528 142, 42.552 142 C 42.987 142, 44.053 142.599, 44.921 143.332 C 46.579 144.731, 57.019 147.383, 65.500 148.559 C 68.250 148.940, 71.058 149.697, 71.741 150.241 C 73.084 151.311, 74.183 151.154, 87 148.056 C 91.675 146.926, 97.883 145.711, 100.795 145.356 C 104.151 144.947, 106.540 144.068, 107.320 142.954 C 109.047 140.488, 121.810 132.043, 125.908 130.655 C 128.443 129.796, 129.631 128.603, 130.545 126 C 131.702 122.708, 138.458 111.745, 142.969 105.842 C 144.086 104.380, 144.996 102.355, 144.992 101.342 C 144.983 99.512, 147.223 89.157, 149.283 81.500 L 150.359 77.500 151.061 80.500 C 151.478 82.281, 151.748 79.436, 151.725 73.500 C 151.696 66.165, 151.524 64.833, 151.078 68.500 C 150.377 74.258, 149.740 73.132, 147.965 63 C 146.203 52.941, 144.679 48.012, 141.316 41.493 C 126.013 11.831, 94.082 -4.409, 61.763 1.033 M 63.500 12.491 C 62.950 12.675, 61.287 13.092, 59.804 13.418 L 57.109 14.011 62.584 27.201 C 65.595 34.456, 68.270 40.604, 68.529 40.863 C 68.788 41.122, 69 34.733, 69 26.667 C 69 12.100, 68.985 12.001, 66.750 12.079 C 65.513 12.122, 64.050 12.308, 63.500 12.491 M 81 29.542 C 81 39.327, 81.212 47.122, 81.471 46.863 C 81.863 46.471, 91.070 24.818, 94.050 17.279 C 94.834 15.297, 94.523 14.949, 91.160 14.043 C 89.087 13.485, 85.953 12.741, 84.196 12.389 L 81 11.750 81 29.542 M 39.750 22.130 C 37.138 23.839, 35 25.528, 35 25.883 C 35 26.239, 40.595 32.112, 47.434 38.934 L 59.867 51.337 53.201 35.169 C 49.535 26.276, 46.077 19.005, 45.518 19.012 C 44.958 19.018, 42.362 20.421, 39.750 22.130 M 99.500 34.616 C 96.200 42.653, 93.337 49.739, 93.137 50.364 C 92.937 50.989, 98 46.332, 104.387 40.016 C 110.774 33.700, 116 28.226, 116 27.851 C 116 27.218, 106.678 19.998, 105.866 20.002 C 105.665 20.003, 102.800 26.580, 99.500 34.616 M 21.963 40.058 C 20.141 42.898, 19.108 45.465, 19.608 45.910 C 20.393 46.609, 26.759 49.231, 44.500 56.164 L 49.500 58.118 38.016 46.559 C 31.700 40.202, 26.235 35, 25.871 35 C 25.506 35, 23.748 37.276, 21.963 40.058 M 112.982 47.636 C 107.217 53.485, 103.175 58.036, 104 57.748 C 108.661 56.123, 129.610 47.610, 130.203 47.100 C 130.993 46.419, 125.423 37, 124.230 37 C 123.809 37, 118.747 41.786, 112.982 47.636 M 13.053 60.750 C 10.657 69.377, 9.990 69, 27.667 69 C 36.283 69, 43.137 68.803, 42.896 68.563 C 42.380 68.047, 15.352 57, 14.605 57 C 14.324 57, 13.625 58.688, 13.053 60.750 M 123.500 62.662 C 117.450 65.127, 111.600 67.533, 110.500 68.008 C 109.246 68.551, 113.861 68.897, 122.878 68.937 L 137.256 69 136.591 64.846 C 135.452 57.722, 135.574 57.742, 123.500 62.662 M 0.365 74.500 C 0.368 80, 0.536 82.122, 0.738 79.216 C 0.941 76.311, 0.939 71.811, 0.734 69.216 C 0.528 66.622, 0.363 69, 0.365 74.500 M 12 82.424 C 12 83.207, 12.529 86.137, 13.175 88.936 C 14.553 94.909, 12.648 95.108, 32.381 86.932 L 46.500 81.083 29.250 81.042 C 14.975 81.007, 12 81.246, 12 82.424 M 107.083 81.400 C 107.313 81.619, 113.575 84.288, 121 87.329 L 134.500 92.859 135.731 88.179 C 137.738 80.546, 138.617 81, 121.833 81 C 113.492 81, 106.854 81.180, 107.083 81.400 M 36.269 97.855 C 27.342 101.510, 20.030 104.998, 20.019 105.606 C 19.996 106.938, 26.789 116, 27.811 116 C 28.206 116, 34.142 110.375, 41 103.500 C 47.858 96.625, 53.252 91.047, 52.985 91.105 C 52.718 91.163, 45.196 94.200, 36.269 97.855 M 111.483 102.887 C 117.524 108.999, 122.764 114, 123.129 114 C 123.936 114, 130.412 104.046, 129.879 103.625 C 129.528 103.347, 103.885 92.950, 101.545 92.137 C 100.970 91.937, 105.442 96.774, 111.483 102.887 M 47.254 113.250 L 36.041 124.500 39.271 126.640 C 45.630 130.855, 46.960 131.273, 47.694 129.293 C 48.060 128.307, 50.730 121.763, 53.628 114.750 C 56.525 107.737, 58.799 102, 58.682 102 C 58.564 102, 53.421 107.063, 47.254 113.250 M 95.497 106.500 C 96.410 108.700, 98.745 114.441, 100.686 119.258 C 102.628 124.075, 104.602 128.254, 105.073 128.545 C 105.971 129.100, 114 124.201, 114 123.098 C 114 122.749, 109.463 117.971, 103.919 112.481 C 94.551 103.206, 93.955 102.783, 95.497 106.500 M 81 120.333 C 81 134.753, 81.210 137, 82.557 137 C 84.998 137, 92.985 134.833, 93.477 134.037 C 93.873 133.397, 82.538 105.205, 81.445 104.112 C 81.200 103.867, 81 111.167, 81 120.333 M 63.207 122.250 C 60.423 128.988, 58.468 134.833, 58.863 135.240 C 59.258 135.648, 61.700 136.271, 64.290 136.626 L 69 137.272 69 123.636 C 69 116.136, 68.835 110, 68.634 110 C 68.433 110, 65.991 115.513, 63.207 122.250" stroke="none" fill="#000000" fill-rule="evenodd"/>
</svg>