<svg xmlns="http://www.w3.org/2000/svg" width="488" height="512" viewBox="0 0 488 512" version="1.1">
	<path d="M 211.985 3.750 C 211.964 8.705, 211.353 9.485, 205.480 12.044 C 198.820 14.946, 188.077 15.282, 185.199 12.679 C 183.244 10.911, 183.073 10.929, 179.306 13.307 C 174.501 16.340, 167.909 19.255, 162 20.961 C 152.789 23.619, 148.407 25.396, 145 27.856 C 140.190 31.330, 137 34.814, 137 36.595 C 137 37.416, 136.438 37.970, 135.750 37.825 C 133.982 37.454, 119.546 44.577, 113 49.052 C 109.975 51.119, 104.530 55.891, 100.900 59.655 C 95.922 64.817, 92.194 67.556, 85.734 70.795 C 76.904 75.223, 73.568 78.442, 71.014 85 C 68.845 90.570, 63.293 98.204, 58.650 102 C 56.296 103.925, 52.961 107.362, 51.238 109.638 C 47.324 114.808, 37.666 133.650, 38.356 134.767 C 38.638 135.223, 38.413 136.249, 37.858 137.048 C 37.173 138.033, 36.697 138.135, 36.379 137.365 C 35.616 135.519, 27.133 145.026, 24.415 150.771 C 22.435 154.956, 21.803 158.196, 21.387 166.280 C 20.784 177.982, 18.663 192.322, 16.377 200.136 C 15.515 203.086, 14.584 207.382, 14.309 209.681 C 13.631 215.361, 11.069 217.489, 4.903 217.495 L 0.006 217.500 0.003 233.549 L 0 249.598 3.511 249.189 C 6.163 248.879, 7.851 249.412, 10.416 251.368 C 13.384 253.632, 13.971 254.852, 15.084 261.085 C 16.466 268.814, 15.421 275.772, 12.374 279.139 C 11.021 280.634, 11.144 281.351, 13.574 286.146 C 17.990 294.860, 20.003 303.589, 21.038 318.499 C 21.867 330.447, 22.401 333.299, 24.681 337.959 C 27.812 344.359, 33.326 350.238, 36.342 350.392 C 37.952 350.474, 38.619 351.347, 39.094 354 C 40.642 362.637, 50.059 379.430, 56.473 384.992 C 64.088 391.596, 66.656 394.786, 70.313 402.187 C 74.832 411.333, 77.632 414.078, 87.041 418.587 C 92.472 421.190, 96.280 424.019, 101.475 429.311 C 105.356 433.265, 111.224 439.009, 114.516 442.075 C 117.807 445.141, 122.750 450.511, 125.500 454.008 C 132.073 462.365, 138.937 465.935, 151.500 467.529 C 161.137 468.752, 171.542 471.140, 177.208 473.428 C 180.381 474.710, 184.054 475.521, 185.462 475.252 C 186.954 474.967, 188 475.227, 188 475.883 C 188 476.498, 187.213 477.014, 186.250 477.031 C 185.148 477.051, 185.980 478.002, 188.500 479.602 C 198.980 486.256, 207.612 487.972, 220.521 485.967 C 232.581 484.095, 232.922 484.079, 236.329 485.235 C 239.700 486.380, 246.374 491.179, 249.209 494.499 C 251.501 497.182, 254 504.579, 254 508.678 C 254 511.887, 254.136 512, 258 512 C 261.739 512, 262 511.812, 262 509.126 C 262 500.219, 269.685 490.550, 279.197 487.490 C 284.660 485.732, 302.337 476.821, 305 474.483 C 307.144 472.600, 318.546 470.747, 323.176 471.530 C 325.335 471.895, 327.866 473.007, 328.801 474.002 C 330.432 475.738, 331.057 475.583, 344.500 470.091 C 352.200 466.945, 359.420 463.788, 360.544 463.074 C 361.668 462.360, 364.502 458.789, 366.842 455.138 C 371.627 447.674, 374.930 445.134, 383.235 442.532 C 392.261 439.705, 400 432.676, 400 427.306 C 400 426.038, 400.563 424.931, 401.250 424.848 C 401.938 424.764, 403.007 424.645, 403.626 424.583 C 404.245 424.521, 405.820 423.963, 407.126 423.342 C 431.649 411.684, 434.446 409.749, 438.264 401.790 C 439.660 398.881, 441.596 392.225, 442.565 387 C 444.928 374.266, 447.637 368.708, 454.994 361.500 C 459.853 356.739, 470 342.545, 470 340.509 C 470 340.277, 471.285 337.908, 472.856 335.244 C 474.871 331.826, 475.580 329.495, 475.261 327.327 C 474.931 325.074, 475.387 323.717, 476.974 322.238 C 479.284 320.087, 484.099 318.717, 486.336 319.575 C 487.463 320.008, 487.788 312.077, 488.248 272.888 C 488.553 246.924, 488.555 216.752, 488.251 205.840 L 487.699 186 484.396 186 C 479.145 186, 476.335 184.165, 474.590 179.597 C 472.746 174.767, 472.490 164.214, 474.130 160.615 C 475.080 158.528, 474.704 156.660, 471.755 148.818 C 469.828 143.693, 467.487 137.376, 466.554 134.779 C 464.513 129.103, 461.112 125.298, 454.768 121.594 C 448.247 117.787, 445.810 114.551, 442.557 105.384 C 439.478 96.709, 433.843 89.887, 428.102 87.886 C 426.374 87.283, 425.045 86.275, 425.148 85.645 C 425.316 84.624, 422.129 77.362, 415.665 64.035 C 410.512 53.410, 402.318 48.405, 385.187 45.417 C 372.884 43.272, 367.879 40.786, 361.849 33.825 C 354.545 25.395, 349.972 23.359, 330.916 20.053 C 318.684 17.931, 310.605 15.930, 307.443 14.237 C 306.363 13.659, 304.359 13.377, 302.989 13.612 C 298.788 14.330, 295.810 11.076, 295.240 5.146 L 294.746 0 253.373 0 L 212 0 211.985 3.750 M 275.699 56.200 C 274.123 57.494, 272.573 60.030, 272.153 62 C 271.743 63.925, 271.477 75.400, 271.562 87.500 C 271.688 105.553, 272.029 110.397, 273.459 114.500 C 275.443 120.192, 278.519 124, 281.132 124 C 283.398 124, 287.337 117.249, 289.301 110 C 292.334 98.807, 295.325 86.403, 295.778 83.139 C 296.383 78.781, 294.258 66.458, 292.148 62.088 C 288.723 54.997, 280.673 52.115, 275.699 56.200 M 211.500 59.386 C 206.427 61.596, 205.498 63.544, 205.523 71.904 C 205.550 80.833, 207.798 86.083, 213.434 90.382 C 219.475 94.989, 223.671 99.314, 226.405 103.750 C 227.846 106.088, 229.694 108, 230.513 108 C 231.331 108, 232.057 107.888, 232.128 107.750 C 232.198 107.612, 232.624 101.200, 233.075 93.500 C 233.526 85.800, 234.203 76.609, 234.580 73.074 C 235.407 65.324, 233.480 60.712, 228.722 59.053 C 224.592 57.613, 215.148 57.796, 211.500 59.386 M 347.620 82.250 C 343.911 85.847, 341.618 92.111, 339.873 103.417 C 338.475 112.469, 336.937 115.363, 331.722 118.753 C 326.482 122.160, 325.407 123.396, 322.955 128.833 C 320.573 134.112, 320.517 136.156, 322.640 140.300 C 324.638 144.200, 325.711 144.965, 329.215 144.985 C 333.599 145.009, 338.498 139.857, 341.460 132.103 C 344.394 124.426, 346.760 121.804, 352.381 120.002 C 356.487 118.686, 364 112.588, 364 110.571 C 364 109.914, 364.957 107.395, 366.126 104.975 C 369.074 98.873, 370.709 88.852, 369.271 85.696 C 367.812 82.494, 360.454 79, 355.170 79 C 351.786 79, 350.320 79.631, 347.620 82.250 M 149.587 85.199 C 139.506 96.766, 139.488 107.911, 149.535 117.711 C 155.610 123.637, 160.879 126.227, 165.983 125.796 L 169.500 125.500 169.230 117 C 168.907 106.855, 167.163 99.487, 162.640 89.162 C 159.634 82.298, 158.974 81.469, 156.310 81.199 C 153.872 80.953, 152.660 81.674, 149.587 85.199 M 175.815 133.750 C 175.124 136.641, 175.967 138.665, 178.296 139.709 C 181.297 141.054, 183 140.280, 183 137.572 C 183 133.295, 176.722 129.956, 175.815 133.750 M 396.823 139.164 C 393.895 142.572, 389.733 146.967, 387.573 148.930 C 378.546 157.135, 376.058 159.987, 376.627 161.472 C 376.948 162.306, 377.612 162.740, 378.105 162.435 C 378.597 162.131, 379 162.343, 379 162.906 C 379 164.917, 383.171 166.093, 393.540 167.003 C 403.611 167.888, 409 167.172, 409 164.948 C 409 164.546, 410.119 163.936, 411.487 163.593 C 412.855 163.249, 414.742 161.797, 415.680 160.366 C 417.288 157.912, 417.287 157.486, 415.661 152.907 C 413.318 146.311, 408.250 137.985, 404.903 135.234 L 402.146 132.969 396.823 139.164 M 99.838 144.133 C 97.217 145.093, 94 150.217, 94 153.433 C 94 158.008, 96.829 161.630, 102.947 164.891 L 109.175 168.211 115.333 166.855 C 126.022 164.503, 127.528 160.012, 120.504 151.440 C 114.763 144.433, 106.751 141.601, 99.838 144.133 M 65.315 203.984 C 60.288 206.063, 59.578 212.732, 63.923 217.077 C 66.440 219.594, 67.586 219.994, 72.173 219.953 C 75.315 219.926, 79.756 218.980, 83 217.648 C 87.485 215.806, 88.557 214.903, 88.810 212.757 C 89.170 209.708, 86.969 207.933, 80 205.652 C 73.681 203.583, 67.878 202.924, 65.315 203.984 M 421.223 207.557 C 419.652 208.657, 419 210.131, 419 212.581 C 419 215.428, 419.483 216.233, 421.695 217.074 C 423.866 217.900, 424.887 217.730, 426.945 216.201 C 433.611 211.247, 428.017 202.798, 421.223 207.557 M 0.409 233.500 C 0.408 242.850, 0.558 246.810, 0.743 242.299 C 0.928 237.789, 0.929 230.139, 0.745 225.299 C 0.562 220.460, 0.410 224.150, 0.409 233.500 M 405.845 271.564 C 393.823 274.199, 387.946 278.090, 389.574 282.333 C 390.406 284.500, 399.007 288.573, 407 290.585 C 410.575 291.485, 415.272 293.071, 417.438 294.111 C 423.350 296.947, 428.728 296.622, 431.654 293.250 C 434.634 289.816, 436.464 283.987, 435.620 280.620 C 433.624 272.671, 419.873 268.488, 405.845 271.564 M 76.438 273.434 C 66.892 275.207, 66.026 275.539, 62.031 278.962 L 58.562 281.934 61.531 285.049 C 69.823 293.749, 87.500 294.189, 104.500 286.118 C 107.800 284.551, 111.287 282.998, 112.250 282.666 C 115.209 281.646, 114.225 280.250, 108.750 277.700 C 98.795 273.062, 86.897 271.492, 76.438 273.434 M 123.500 322.234 C 120.750 323.426, 118.275 324.653, 118 324.960 C 117.725 325.267, 115.475 326.820, 113 328.411 C 103.770 334.344, 96.291 343.599, 95.385 350.210 C 94.871 353.961, 95.157 355.033, 97.381 357.676 C 100.366 361.223, 105.637 364, 109.385 364 C 112.973 364, 117.553 359.584, 121.316 352.496 C 124.490 346.520, 125.963 345.237, 137.915 338.054 C 144.998 333.796, 146.821 324.115, 141.114 321.061 C 137.806 319.290, 128.923 319.882, 123.500 322.234 M 371.143 322.076 C 368.747 322.547, 366.160 323.452, 365.393 324.089 C 363.144 325.956, 363.756 330.987, 366.709 334.906 C 369.965 339.225, 370.919 340.056, 377.988 344.734 C 383.605 348.451, 386.908 351.691, 386.967 353.542 C 386.985 354.115, 388.913 356.448, 391.250 358.726 C 397.675 364.988, 402.948 365.558, 408.328 360.572 C 413.681 355.610, 410.526 344.759, 401.886 338.416 C 399.191 336.438, 395.447 332.941, 393.566 330.645 C 389.813 326.066, 381.310 320.937, 377.757 321.110 C 376.516 321.170, 373.540 321.605, 371.143 322.076 M 181.683 354.798 C 179.537 357.169, 179.488 361.866, 181.601 362.677 C 184.526 363.800, 187.235 356.806, 184.813 354.384 C 183.551 353.122, 183.152 353.175, 181.683 354.798 M 231.904 370.542 C 228.779 372.180, 227.565 374.800, 224.543 386.432 C 221.671 397.484, 218.157 405.125, 213.480 410.488 C 203.371 422.079, 205.259 429.525, 219.253 433.250 C 231.318 436.461, 238.306 435.055, 241.704 428.733 C 243.134 426.074, 243.485 422.396, 243.681 408 C 243.812 398.375, 243.667 387.461, 243.358 383.747 C 242.486 373.257, 237.560 367.579, 231.904 370.542 M 328.653 373.220 C 327.610 377.208, 329.009 379.782, 333.322 381.812 C 337.742 383.893, 340.469 383.664, 339.557 381.289 C 339.251 380.490, 339 378.953, 339 377.873 C 339 375.138, 334.582 371, 331.662 371 C 329.994 371, 329.051 371.695, 328.653 373.220 M 158.193 376.961 C 153.314 381.840, 148 393.863, 148 400.022 C 148 404.577, 148.409 405.609, 151.400 408.600 C 155.246 412.446, 158.602 412.939, 163.053 410.309 C 164.627 409.380, 166.341 407.467, 166.862 406.059 C 168.326 402.105, 169.918 382.977, 169.157 378.500 C 168.524 374.777, 168.227 374.479, 164.868 374.197 C 161.950 373.953, 160.672 374.481, 158.193 376.961 M 274.044 382.428 C 270.914 387.493, 268.999 397.801, 268.365 413 L 267.802 426.500 270.651 429.818 C 275.929 435.964, 285.866 435.188, 290.125 428.298 C 292.092 425.115, 292.223 423.876, 291.727 413.165 C 291.169 401.148, 289.095 392.987, 284.118 383.231 C 282.330 379.726, 281.462 379, 279.061 379 C 276.839 379, 275.669 379.800, 274.044 382.428 M 339.834 383.500 C 338.989 384.345, 342.725 401.568, 344.497 404.994 C 347.721 411.228, 355.096 413.138, 359.601 408.905 C 362.870 405.834, 363.356 403.654, 362.017 398.072 C 360.484 391.682, 356.140 387.535, 349 385.643 C 345.975 384.842, 342.801 383.905, 341.948 383.562 C 341.094 383.219, 340.143 383.191, 339.834 383.500" stroke="none" fill="#000000" fill-rule="evenodd"/>
</svg>