<svg xmlns="http://www.w3.org/2000/svg" width="433" height="512" viewBox="0 0 433 512" version="1.1">
	<path d="M 0 18.842 L 0 37.683 4.395 37.750 C 9.599 37.828, 12.126 39.345, 17.500 45.613 C 22.065 50.937, 26.540 55.514, 33.588 62.068 C 36.289 64.580, 40.750 69.086, 43.500 72.081 C 46.250 75.077, 50.893 79.515, 53.817 81.944 C 59.976 87.058, 61.891 90.277, 62.661 96.804 C 63.784 106.316, 60.355 112.029, 48 121.228 C 42.618 125.236, 38.371 132.591, 37.460 139.485 C 36.387 147.599, 33.113 162.920, 32.012 164.977 C 31.333 166.245, 31.329 167.085, 31.997 167.498 C 33.417 168.376, 33.243 172.724, 31.750 173.691 C 31.063 174.136, 29.662 174.500, 28.637 174.500 C 27.420 174.500, 25.860 176.233, 24.137 179.500 C 21.668 184.182, 21.517 185.234, 21.765 196.050 C 21.982 205.508, 21.665 208.661, 20.015 213.457 C 17.857 219.730, 17.372 229.217, 18.992 233.478 C 19.537 234.913, 23.137 239.419, 26.992 243.491 L 34 250.896 34 257.225 C 34 261.441, 33.459 264.327, 32.380 265.867 C 31.032 267.792, 30.966 268.625, 31.987 270.840 C 32.661 272.303, 34.447 279.578, 35.955 287.006 C 37.462 294.434, 39.491 302.050, 40.464 303.930 C 41.436 305.811, 45.257 310.308, 48.955 313.925 C 55.085 319.920, 55.913 321.233, 58.339 328.812 C 62.092 340.535, 61.919 344.747, 57.496 349.302 C 55.568 351.286, 52.043 354.250, 49.662 355.889 C 47.281 357.527, 42.820 361.935, 39.749 365.684 C 33.254 373.612, 14.634 392.809, 11.027 395.296 C 9.642 396.250, 6.674 397, 4.277 397 L 0 397 0 418.500 L 0 440 3.929 440 C 6.253 440, 8.534 440.677, 9.515 441.657 C 11.058 443.201, 11.493 443.160, 15.836 441.064 C 24.992 436.644, 33.738 430.429, 37.035 426 C 41.972 419.367, 81.553 380.369, 85.188 378.556 C 90.980 375.667, 107.148 377.014, 115 381.042 C 116.925 382.029, 121.207 385.461, 124.515 388.668 C 132.670 396.576, 142.929 402.202, 149.500 402.371 C 154.095 402.490, 154.480 402.687, 154.252 404.806 C 154.045 406.727, 154.964 407.553, 159.752 409.749 C 164.555 411.953, 167.472 412.487, 177.500 412.998 C 188.516 413.559, 190.188 413.916, 197.894 417.347 L 206.289 421.084 210.687 419.017 C 217.147 415.981, 223.213 415.356, 225.363 417.506 C 226.832 418.975, 227.723 419.075, 231.296 418.174 C 233.608 417.591, 238.702 416.894, 242.616 416.626 C 251.875 415.992, 256.196 414.088, 262.185 408.004 C 268.506 401.583, 270.256 400.714, 276.876 400.714 C 281.276 400.714, 282.693 401.137, 284.096 402.871 L 285.842 405.027 293.671 401.628 C 297.977 399.758, 303.278 397.615, 305.451 396.864 C 309.819 395.356, 314.694 390.966, 317 386.465 C 317.825 384.854, 319.611 382.567, 320.968 381.382 C 323.157 379.472, 336.998 374.624, 342.598 373.806 C 345.952 373.317, 349.179 375.669, 354 382.118 C 356.475 385.429, 360.975 390.237, 364 392.804 C 367.025 395.371, 371.525 399.698, 374 402.421 C 380.192 409.233, 381.890 410.896, 387.353 415.500 C 389.964 417.700, 393.882 421.798, 396.061 424.607 C 399.950 429.620, 413.435 439.598, 420.122 442.409 C 422.876 443.567, 423.579 443.564, 424.756 442.387 C 425.519 441.624, 427.638 441, 429.464 441 C 431.571 441, 433.008 440.421, 433.393 439.418 C 433.727 438.548, 434 428.486, 434 417.057 L 434 396.277 431.575 396.741 C 426.835 397.647, 422.182 395.070, 416.240 388.249 C 413.083 384.625, 408.970 380.274, 407.100 378.580 C 402.732 374.624, 398.757 370.662, 392.386 363.916 C 389.573 360.937, 385.433 356.777, 383.187 354.670 C 377.749 349.572, 376.594 345.690, 377.295 334.870 C 378.023 323.646, 380.313 318.464, 387.764 311.185 C 394.264 304.835, 396.314 300.063, 398.120 287.086 C 398.688 283.008, 400.183 276.833, 401.442 273.362 C 402.719 269.845, 403.510 265.885, 403.229 264.415 C 402.797 262.157, 403.006 261.867, 404.680 262.398 C 406.247 262.896, 407.053 262.172, 408.730 258.760 C 412.067 251.973, 412.988 247.181, 413.006 236.500 C 413.016 230.891, 413.672 224.085, 414.500 221 C 416.351 214.103, 416.417 204.925, 414.645 200.718 C 413.899 198.948, 410.753 195.043, 407.653 192.041 C 404.553 189.038, 401.511 185.048, 400.892 183.174 C 399.337 178.462, 400.377 171.923, 403.021 169.782 C 404.979 168.196, 405.047 167.800, 403.788 165.272 C 402.034 161.749, 398.293 149.581, 397.557 145 C 396.730 139.858, 393.679 135.485, 388.144 131.508 C 382.770 127.647, 379.717 122.056, 377.979 112.888 C 377.444 110.068, 376.105 104.842, 375.003 101.275 C 371.800 90.906, 372.118 89.348, 378.621 83.530 C 385.865 77.048, 391.152 71.863, 398.066 64.460 C 401.127 61.182, 405.177 57.107, 407.066 55.405 C 408.955 53.703, 412.160 50.435, 414.188 48.143 C 420.406 41.117, 423.662 38.883, 428.741 38.157 L 433.500 37.477 433.772 18.738 L 434.044 0 415.272 0 L 396.500 0 396.324 4.558 C 396.111 10.086, 393.549 13.742, 384.661 21.206 C 381.194 24.118, 376.959 28.303, 375.249 30.506 C 373.540 32.709, 369.297 36.973, 365.821 39.982 C 362.344 42.991, 356.937 48.449, 353.804 52.111 C 347.257 59.765, 341.595 63, 334.749 63 C 326.265 63, 322.259 60.324, 314.440 49.432 C 307.120 39.235, 296.342 35.161, 279.956 36.397 C 270.513 37.109, 258.501 35.214, 251.654 31.932 C 249.234 30.772, 246.731 30.304, 244.904 30.669 C 243.171 31.016, 242 30.826, 242 30.198 C 242 29.620, 242.788 28.993, 243.750 28.804 C 244.826 28.594, 242.803 27.154, 238.500 25.067 C 232.328 22.073, 230.316 21.617, 221.489 21.215 C 215.899 20.961, 209.054 21.263, 205.989 21.900 C 199.654 23.216, 188.899 28.018, 190.750 28.704 C 192.495 29.350, 192.315 31, 190.500 31 C 189.675 31, 189 30.575, 189 30.056 C 189 29.537, 186.882 30.049, 184.293 31.195 C 177.166 34.347, 169.704 35.915, 156.735 36.983 C 147.288 37.762, 143.890 38.482, 139.485 40.639 C 136.468 42.116, 134 43.677, 134 44.107 C 134 46.341, 121.956 53.245, 114.045 55.547 C 109.345 56.914, 103.363 58.746, 100.751 59.617 C 94.420 61.728, 89.363 61.631, 86.799 59.350 C 85.655 58.333, 82.058 54.423, 78.806 50.663 C 75.554 46.902, 70.330 41.676, 67.197 39.048 C 64.064 36.421, 60.198 32.523, 58.606 30.386 C 57.015 28.249, 53.262 24.475, 50.267 22 C 41.903 15.089, 38.768 10.642, 38.217 4.910 L 37.746 0 18.873 0 L 0 0 0 18.842 M 0.417 19.500 C 0.418 29.950, 0.566 34.089, 0.746 28.698 C 0.926 23.307, 0.925 14.757, 0.744 9.698 C 0.563 4.639, 0.416 9.050, 0.417 19.500 M 0.426 418.500 C 0.427 430.600, 0.571 435.413, 0.747 429.195 C 0.923 422.977, 0.922 413.077, 0.746 407.195 C 0.569 401.313, 0.425 406.400, 0.426 418.500" stroke="none" fill="#000000" fill-rule="evenodd"/>
</svg>